/* XPM */
static char *exit1[] = {
/* columns rows colors chars-per-pixel */
"32 32 128 2 ",
"   c #0D0102",
".  c #140103",
"X  c #1B0207",
"o  c #150209",
"O  c #1B060E",
"+  c #1D080E",
"@  c #1C0710",
"#  c #1E0A12",
"$  c #230607",
"%  c #220608",
"&  c #260A0B",
"*  c #290D0E",
"=  c #200C13",
"-  c #230E18",
";  c #231117",
":  c #25131B",
">  c #2A171E",
",  c #29181F",
"<  c #361311",
"1  c #32181B",
"2  c #261420",
"3  c #291521",
"4  c #2C1B24",
"5  c #341E2E",
"6  c #2F2027",
"7  c #2D212E",
"8  c #312127",
"9  c #33242C",
"0  c #3A262F",
"q  c #352231",
"w  c #332B35",
"e  c #3B2C34",
"r  c #3B2439",
"t  c #352D3A",
"y  c #36323E",
"u  c #3D323B",
"i  c #492C2C",
"p  c #5F3020",
"a  c #442E35",
"s  c #453036",
"d  c #4E3436",
"f  c #40363D",
"g  c #533432",
"h  c #543B3E",
"j  c #663A2A",
"k  c #713E28",
"l  c #78442E",
"z  c #6A4236",
"x  c #744736",
"c  c #7C4A36",
"v  c #714738",
"b  c #7C4E3A",
"n  c #4C3D41",
"m  c #563E41",
"M  c #593F42",
"N  c #4D454E",
"B  c #514047",
"V  c #5A4143",
"C  c #4F4751",
"Z  c #504751",
"A  c #544C56",
"S  c #57565F",
"D  c #59535D",
"F  c #624645",
"G  c #664845",
"H  c #674B49",
"J  c #7D5444",
"K  c #695152",
"L  c #6E5658",
"P  c #645C65",
"I  c #6A646E",
"U  c #6F6971",
"Y  c #736E79",
"T  c #77727F",
"R  c #835646",
"E  c #855845",
"W  c #885A45",
"Q  c #835A49",
"!  c #8B5D4A",
"~  c #915F45",
"^  c #966146",
"/  c #966148",
"(  c #9A6649",
")  c #916D5E",
"_  c #937266",
"`  c #9D7461",
"'  c #A37963",
"]  c #7B7682",
"[  c #7C7A85",
"{  c #817F8A",
"}  c #7A848F",
"|  c #7E8793",
" . c #7D8893",
".. c #83818D",
"X. c #858491",
"o. c #888592",
"O. c #898995",
"+. c #8C8D9A",
"@. c #8D919E",
"#. c #90929F",
"$. c #8F93A0",
"%. c #9295A3",
"&. c #999CA4",
"*. c #979CAA",
"=. c #989EAC",
"-. c #9BA5B2",
";. c #9BA9B7",
":. c #9DADBB",
">. c #A2A8B7",
",. c #A3ADBB",
"<. c #A2B1BF",
"1. c #ACB3BE",
"2. c #9BB1C2",
"3. c #A3B4C2",
"4. c #AAB4C2",
"5. c #A5B8C6",
"6. c #A7BAC9",
"7. c #A9BCC9",
"8. c #ADC0CE",
"9. c #B6C0C8",
"0. c #BDC6CA",
"q. c #B5C6D5",
"w. c #B3C8D7",
"e. c #B4CAD9",
"r. c #BACFDE",
"t. c #BCD2E1",
"y. c #BEDCEC",
"u. c #C8E5F5",
/* pixels */
"r r 4 : = @ O O + O O + + O O O O + O O + + O O O O + = ; 4 5 q ",
"r 5 # ; 4 e 9 9 9 9 8 8 9 9 w 9 w 9 9 9 9 8 9 9 9 9 w 6 = = 4 q ",
"2 - . , P ......] ] T [ ....X.X.o.o.....] T T ] ......P > X = 4 ",
"# ; 3 N %.4.+.o.&.-.,.-.+.X.O.O.O.O...+.-.>.>.&.o.+.1.%.N > - - ",
"O 8 P %.r.4.Z f { >.q.-.C 6 7 w w w 4 Z -.w.>.{ f C 4.r.%.P 4 = ",
". e o.4.7.| , = Y ,.t.-.w   % & * $   e -.t.,.T ; : | 7.1.{ 0 @ ",
"o e ..#.D 7 . 3 T <.t.;.f < p l k p < f ;.r.<.T 3 . 9 S #.X.e o ",
". e @.@.6   . e T >.w.1.U K ) ' ' ) K U 3.w.>.T e .   4 +.$.e o ",
". y :.:.w . 1 B ] -.9.w.5.1.9.0.0.9.1.5.w.8.-.T B > . w >.:.u . ",
"  n 7.6.e X i L +.<.w.e.<.;.2.2.2.<.:.<.w.w.1.+.L i X y 7.7.u X ",
". f 7.6.y $ j _ 1.u.u.5.S w t y y y w S 7.u.y.1._ j $ t 6.8.f . ",
"  f 6.5.w $ l ` &.2.2.| 9 . + & * X . 9  .2.2.&.` l $ e 5.7.f . ",
". u 6.5.w & b ! n y y y 0 i z x v z i w e y y B W c & t 5.6.u . ",
". u 6.5.w & b b > . & 1 s F Q ( ( W F s > & o 1 b b & w 5.6.f . ",
"  f 7.5.w & b Q d i z z h V E ^ ^ Q M h z z a d ! b & w 5.7.f . ",
". u 7.5.t & b ! V V ! ! M h J ^ ~ b M M ! ! V V ! b & w 6.7.f . ",
". f 6.5.w & b ! V V E E h h J ! ~ J m m E W m V ! b & w 5.7.u . ",
"  u 6.6.w & b ! V h E E V h R ~ ~ J m m E E m m ! b & w 5.6.f . ",
". f 7.6.w & b ! m h E E h m J ^ ~ J m m E E m m ! b & t 6.7.f . ",
". u :.2.w & b ! V m E E V h J ~ ~ J m h E E m V ! b & w :.3.f . ",
". e $.@.7 * b ! m m E E h m J ~ ~ J m m E E m m ! b & 7 @.%.e . ",
". e $.+.7 * b ! V h E E m m J ~ ^ J m m E E m m ! b * 7 @.$.e o ",
". u 3.:.w * b ! V h E E h m R / ^ J m m E ! m M ! b & t :.3.u . ",
". u 3.3.w & v E V V J J m m J E E J m m b J m V Q v $ w 3.4.f o ",
". e %.@.3 . g H M M F F M M F G G F M V F F V V H g . 3 @.%.e . ",
". w o.+.C 9 0 a s s s s s s a a a a f s s s s s a e 9 N +.o.e o ",
"X w o.1.<.} 0 . @ = = = - # = # @ = # # = # # + X w } <.1.o.e o ",
"+ 9 I &.t.5.C , 4 9 9 7 q 7 9 9 9 9 9 q 9 9 q 4 > N 4.t.*.I 9 # ",
"= ; 4 A =.4.@.{ { o.o.X.X.X.X.o.X.X.X.X.o.X.X.X.{ +.4.=.A 6 : = ",
"> ; . 4 I X...o.O.O.O.O.O.O.o.O.O.o.o.o.O.O.O.+.O.O.+.I 3 . - > ",
"5 4 = : 9 u u e a e e e t e e a u e e e e u e f f e u 9 : = 5 q ",
"q 5 3 = = + + + O O = = @ @ O = @ @ @ # % @ O X O o O # = 3 r r "
};
