/* XPM */
static char *skull_L1[] = {
/* columns rows colors chars-per-pixel */
"32 32 105 2 ",
"   c #25131A",
".  c #28161E",
"X  c #291621",
"o  c #2C1925",
"O  c #2D1A28",
"+  c #321D2B",
"@  c #361F31",
"#  c #2E212D",
"$  c #35202F",
"%  c #2F2835",
"&  c #362132",
"*  c #392135",
"=  c #362538",
"-  c #3D253B",
";  c #322C3B",
":  c #3A2839",
">  c #32313F",
",  c #4D2734",
"<  c #4F2836",
"1  c #43263B",
"2  c #4E293D",
"3  c #542C3F",
"4  c #592C3A",
"5  c #343444",
"6  c #353949",
"7  c #393B49",
"8  c #393E51",
"9  c #5C2E40",
"0  c #413A46",
"q  c #423D55",
"w  c #6E3342",
"e  c #743544",
"r  c #7A3640",
"t  c #7D3945",
"y  c #3A4255",
"u  c #3A4659",
"i  c #3D495E",
"p  c #3D4D62",
"a  c #3D5065",
"s  c #3F556B",
"d  c #44424D",
"f  c #464A59",
"g  c #494662",
"h  c #404C62",
"j  c #425067",
"k  c #43556C",
"l  c #4C5C6E",
"z  c #445D74",
"x  c #4B5A74",
"c  c #4E6377",
"v  c #46627B",
"b  c #4A637F",
"n  c #833A46",
"m  c #943F49",
"M  c #9C424A",
"N  c #A2434B",
"B  c #B3494E",
"V  c #BC4C51",
"C  c #4D6785",
"Z  c #4A6985",
"A  c #4C6E8B",
"S  c #516383",
"D  c #4E708E",
"F  c #596C91",
"G  c #4E7493",
"H  c #4E7B99",
"J  c #527A9B",
"K  c #6F7E8E",
"L  c #718495",
"P  c #5285A5",
"I  c #5B80A6",
"U  c #5387A8",
"Y  c #5984A8",
"T  c #558BAD",
"R  c #5F8DAA",
"E  c #568EB1",
"W  c #5A8DB2",
"Q  c #5790B4",
"!  c #5990B3",
"~  c #5C95BA",
"^  c #5D98BE",
"/  c #628DA9",
"(  c #799AAF",
")  c #6395B4",
"_  c #679BBB",
"`  c #7C9CB0",
"'  c #7CA4BC",
"]  c #5E9EC5",
"[  c #5FA1C9",
"{  c #60A5CD",
"}  c #6AA8CC",
"|  c #61A7D0",
" . c #62ABD4",
".. c #6EB2D7",
"X. c #7CB9DB",
"o. c #86A1B3",
"O. c #85B6D2",
"+. c #89BBD6",
"@. c #82BCDC",
"#. c #8CC2DE",
"$. c #91C5E0",
"%. c #96C8E1",
"&. c #9BCAE2",
"*. c #A2CFE5",
"=. c #A7D1E6",
/* pixels */
"V V V m 3 - - - - - - - - - - - - @ X o @ - - - - - - 9 M V V V ",
"V B M t 2 - - - - - - - - = * @ @ = 5 5 = * - - - - = 9 n N B V ",
"V M w 3 1 - - - - - - - - * O X X 6 A v 5 o * - - - - 1 9 e N V ",
"M r 2 - - 1 - - - - * @ @ = 5 7 d c ~ H 6 X @ - - - - - 5 9 n M ",
"4 , 1 - - - - - - & O X . 6 D / ` ' } H 6 X @ - - - - - @ 0 3 4 ",
"$ & - - - - - - * : 5 6 6 v _ @.&.$...H 6 X @ - - @ - - - - 1 @ ",
"$ $ - - - - - @ O 6 D P P _ +.&.*.$...H 6 X & * O O @ - - - 1 - ",
"@ & - - - - - @ . y T  ...@.&.=.=.%.X.R k 5 = = 5 5 * @ - - - - ",
"$ * - 1 - - - @ X y E ..#.&.=.=.=.*.%.X._ Z 5 5 C C 5 O @ - - - ",
"$ $ - - - = * = 5 a G / ` o.o.o.o.o.o.' } T j k ~ Y 7 . @ 1 - - ",
"$ $ - - - & o 6 A Z u 7 d d d d d d d c W [ T ) O.( q o @ - - - ",
"* + - - - @ . 6 A Z y 5 5 6 6 6 7 > > u A W } @.&.o.0 o @ - - - ",
"$ & - - - + X O > u z A J P P P P H b k u l ' &.*.o.q X @ - - - ",
"$ $ - - - @ X o % i J ~ {  . . .| { ! A u f L o.o.K 0 @ @ 1 - - ",
"$ $ 1 - - @ X % s G ~ [ |  . . . .| { R D x f 0 q 0 @ @ @ 0 - - ",
"* * * 1 - @ X ; s G W ] | ] T T ~ _ ^ W Y C :     X @ - 1 @ 1 5 ",
"- - - - - @ X o % 8 C I [ P p i C F F F J S ;     X @ - - - - 5 ",
"- - - - - # X     & q C ^ H > % q g g x D b ;   X O @ - - - @ 1 ",
"+ * - - - @ X     X # a Q H ; X O % & 8 C C ; X + * - - - - 0 * ",
"+ & - - - @ X o % 5 6 s ~ U p 6 6 5 5 8 k s % O @ - - - 1 - - - ",
"- - - - - @ X ; k A J Q [ ] E U P H A j 6 ; & * - - - - - - - - ",
"- - - - - @ O ; k G ~ ^ T E [ | ] W A p = O * - - - - - - - - - ",
"- - - - - = * * = i J A u z ~ [ W A 8 = * * = - - - - - - - - - ",
"- - - - - - - @ O 5 k p % 6 A H A h & O * - - - - - - - - - - - ",
"- - - - - - - - @ ; = = & ; 5 5 ; ; * @ - - - - - - - - - - - - ",
"- 1 - - - - - - - @ O O * @ o X . X * - - - - - - - - - - 1 - - ",
"- - - - - - - - - - & * - - @ @ O + - - - - - - - 1 - - - - - - ",
"9 9 - - - - - - - - - - - - - - & & - - - - - - - - - - - 1 9 9 ",
"M n 2 - - - - 5 - - - - - - 1 * & & - - 1 1 - - - 1 - 1 - 9 n m ",
"V m w 3 1 - @ 1 1 - - - - - - 1 & $ - - * 1 - - - 1 @ 1 2 e N V ",
"V B N t 2 - @ @ * - & $ $ $ @ & @ @ $ $ @ * @ @ @ @ @ < n N B V ",
"V V V m 3 1 * @ - 1 * $ $ $ & & $ & $ $ @ @ @ @ @ @ @ 9 m V V V "
};
