/* XPM */
static char *skull_R2[] = {
/* columns rows colors chars-per-pixel */
"32 32 106 2 ",
"   c #26131B",
".  c #28151F",
"X  c #2A1721",
"o  c #271921",
"O  c #2C1925",
"+  c #2E1A28",
"@  c #331D2C",
"#  c #361F31",
"$  c #2E222C",
"%  c #35202F",
"&  c #2F2533",
"*  c #2F2936",
"=  c #2F2D3A",
"-  c #362132",
";  c #392235",
":  c #362538",
">  c #3D253B",
",  c #322C3B",
"<  c #3B2B3A",
"1  c #32313F",
"2  c #4D2734",
"3  c #41263A",
"4  c #4D293C",
"5  c #5A2D3B",
"6  c #343344",
"7  c #3D3640",
"8  c #363748",
"9  c #353949",
"0  c #393B49",
"q  c #373E50",
"w  c #3B3E51",
"e  c #5C2E40",
"r  c #423B47",
"t  c #433F49",
"y  c #423D55",
"u  c #793642",
"i  c #394355",
"p  c #3A4659",
"a  c #3E4A5F",
"s  c #3E5065",
"d  c #3F556B",
"f  c #45424D",
"g  c #42445C",
"h  c #464A59",
"j  c #404F65",
"k  c #4C4B68",
"l  c #43546C",
"z  c #4C5C6E",
"x  c #4F5776",
"c  c #465A73",
"v  c #495B72",
"b  c #45637C",
"n  c #4A637F",
"m  c #5B6573",
"M  c #843A47",
"N  c #923E47",
"B  c #943F49",
"V  c #9B4249",
"C  c #BC4C51",
"Z  c #496681",
"A  c #4A6984",
"S  c #4B6E8B",
"D  c #526687",
"F  c #53698A",
"G  c #4E7493",
"H  c #4E7B99",
"J  c #517494",
"K  c #597196",
"L  c #597499",
"P  c #537A9B",
"I  c #6E7D8C",
"U  c #738596",
"Y  c #5285A5",
"T  c #5A84A9",
"R  c #548AAC",
"E  c #5F8CA8",
"W  c #568EB1",
"Q  c #5991B5",
"!  c #5B95BA",
"~  c #5E99BF",
"^  c #628DA9",
"/  c #799AAF",
"(  c #6395B4",
")  c #679BBB",
"_  c #7C9CB0",
"`  c #7DA3BB",
"'  c #5E9CC2",
"]  c #5EA2C9",
"[  c #60A2CA",
"{  c #6BA8CB",
"}  c #78AFCF",
"|  c #62AAD3",
" . c #6EB2D7",
".. c #70B2D7",
"X. c #73B4D8",
"o. c #86A1B3",
"O. c #81A6BC",
"+. c #85B6D2",
"@. c #89BBD6",
"#. c #82BCDC",
"$. c #8AC1DE",
"%. c #9EC5D9",
"&. c #95C7E1",
"*. c #9BCAE2",
"=. c #A3CFE5",
"-. c #A7D1E6",
/* pixels */
"C V e > > > > > > > > > > > > > > 3 > > > > > > > > > > > e N C ",
"V M e > > > > > > > - ; > > > > > > > > > > > > > > > > > 4 u B ",
"5 e 3 > r # > > > - + + - > > > > > > > > > > > > > > 3 3 3 2 5 ",
"> > > > ; 3 6 : - : 6 6 : # # # # ; > > > > > > > > 6 3 3 # # # ",
"> > > > 3 > > # + 6 A A 6 . X . X + ; > > > > > > > > > 3 > # # ",
"> > > > 3 # 3 # . 9 Y W l 9 9 9 9 6 : # # ; : > > > > > > > - # ",
"> > > > > > 3 # . 9 Y ] W Y Y Y Y S 9 X X + # > > > > > 3 3 # - ",
"> > > > # # > ; + 6 A W [ |  .X.X.) b 9 9 6 : ; > > > > > ; # - ",
"> > > # O O # > # : 6 l W ..$.&.&.@.) Y Y S 9 + - > > > > > - % ",
"> > # : 6 6 : # # : 6 l ) X.*.-.-.*.#.X.| W i X @ > > > > > - % ",
"> # + 6 A A 6 O X 6 A ( +.*.=.-.-.-.*.$.X.W i . - > > > 3 ; - - ",
"> # X w ^ ( l 0 9 d W { ` o.o.o.o.o.o._ ^ G s 6 : ; > > 3 ; - - ",
"> # X y / +.( P Y W [ E v f f f f f f f 0 p S S 8 + ; > > > - - ",
"> # X 7 I O.} X.X.{ Q S i 1 6 9 9 9 9 6 6 9 A S 6 X # > 3 > - % ",
"> # + + 7 m +.%.&.O.z i v A P Y Y R Y H S v p 6 + o @ > > : % % ",
"> # + X   t o.@.+.I h i J Q [ | | | | ] ! H a * o X # > > > ; - ",
"> > ; @ . f o.+.m h v G Q ] | | | | | | [ ! J l , . # > > > > > ",
"> > > - + 4 U U r , n T ! ' ' ~ Q Q ] | [ Q P c , X # > > > > > ",
"> > > > - < f t + , n P L K K D s d R ] T D a = O X # > > > # @ ",
"> > > > < - O .   , n K x k k y $ = H ~ F g -     X @ > > > - - ",
"> > > > > > # + . , n A w : : $ o = H Q d & X     X # > > > > : ",
"> > > > > > > ; X , l c 8 * = 1 1 p Y Q d = * & X X # > > > > 3 ",
"> > > > > > > > - ; , w j Z G H H Y ' ] R G A s * X # > > > > > ",
"> > > > > > > > > - + , l P ! ] | ] ! Q ' ! H c , O # > > > > > ",
"> > > > > > > 6 > > - : , a J ! ] ' Z s G P k 6 : # > > > > > > ",
"> > > > 3 > 3 3 > > > ; + = l G P G 8 & j l 6 + ; > > > > > > > ",
"> > > > > > # r > > > > # : , 8 q q > # 6 6 # # ; > > > > > > > ",
"> > > > 3 > > # > > > > > - X . X + # # + X # > > > > > > > > > ",
"> > > 3 > 3 3 > 3 3 > 3 3 ; @ @ # # # > # # > # > > > > > > > > ",
"e 4 3 3 3 # > > ; 3 ; ; > 3 # # # 6 > > > 3 > r > > > > > 3 e e ",
"N u 2 # # # # # 3 @ # - # # # # # # # # # # # 3 # # > > # r u M ",
"C B 5 # # # # # % % % % % - # # # # # # # # 3 3 # # # r # e B C "
};
