/* XPM */
static char *skull_L2[] = {
/* columns rows colors chars-per-pixel */
"32 32 110 2 ",
"   c #26131B",
".  c #28151F",
"X  c #2A1721",
"o  c #271921",
"O  c #2C1925",
"+  c #2E1A28",
"@  c #331D2C",
"#  c #361F31",
"$  c #2E222C",
"%  c #35202F",
"&  c #2F2533",
"*  c #2F2936",
"=  c #2F2D3A",
"-  c #362132",
";  c #392235",
":  c #362538",
">  c #3D253B",
",  c #322C3B",
"<  c #3B2B3A",
"1  c #32313F",
"2  c #4D2734",
"3  c #41263A",
"4  c #4D293C",
"5  c #542C3D",
"6  c #5A2D3B",
"7  c #79363F",
"8  c #343344",
"9  c #3D3640",
"0  c #3F3943",
"q  c #363748",
"w  c #353949",
"e  c #393B49",
"r  c #373E50",
"t  c #3B3E51",
"y  c #5C2E40",
"u  c #423B47",
"i  c #433F49",
"p  c #423D55",
"a  c #793642",
"s  c #394355",
"d  c #3A4659",
"f  c #3E4A5F",
"g  c #3E5065",
"h  c #3F556B",
"j  c #45424D",
"k  c #42445C",
"l  c #464A59",
"z  c #404F65",
"x  c #4C4B68",
"c  c #43546C",
"v  c #4C5C6E",
"b  c #4F5776",
"n  c #465A73",
"m  c #495B72",
"M  c #45637C",
"N  c #4A637F",
"B  c #5B6573",
"V  c #843A47",
"C  c #923E47",
"Z  c #943F49",
"A  c #9B4249",
"S  c #BC4C51",
"D  c #496681",
"F  c #4A6984",
"G  c #4B6E8B",
"H  c #526687",
"J  c #53698A",
"K  c #4E7493",
"L  c #4E7B99",
"P  c #517494",
"I  c #597196",
"U  c #597499",
"Y  c #537A9B",
"T  c #6E7D8C",
"R  c #738596",
"E  c #5285A5",
"W  c #5A84A9",
"Q  c #548AAC",
"!  c #5F8CA8",
"~  c #568EB1",
"^  c #5991B5",
"/  c #5B95BA",
"(  c #5E99BF",
")  c #628DA9",
"_  c #799AAF",
"`  c #6395B4",
"'  c #679BBB",
"]  c #7C9CB0",
"[  c #7DA3BB",
"{  c #5E9CC2",
"}  c #5EA2C9",
"|  c #60A2CA",
" . c #6BA8CB",
".. c #78AFCF",
"X. c #62AAD3",
"o. c #6EB2D7",
"O. c #70B2D7",
"+. c #73B4D8",
"@. c #86A1B3",
"#. c #81A6BC",
"$. c #8EADBF",
"%. c #85B6D2",
"&. c #89BBD6",
"*. c #82BCDC",
"=. c #8AC1DE",
"-. c #9EC5D9",
";. c #95C7E1",
":. c #9BCAE2",
">. c #A3CFE5",
",. c #A7D1E6",
/* pixels */
"S C 5 > > > > > > > > > > > > > > > > 9 > > > > > > > > > y Z S ",
"A a 4 > > > > > > > > > > 3 > > > > > # # # > > > > > > > y V A ",
"6 2 3 3 > > > > > > > > > > > > 3 8 > # + + # 8 > > > > > 4 y y ",
"@ % > > > > > > > > > > > > ; # # # # > 8 q # # > > > > > # u # ",
"- - > > > > > > > > > > > - O . X X O 8 F F 8 O ; > > > > > > > ",
"% - > > > 3 > > > ; ; # # < 8 w q q w h ~ E w O # > > > > > > > ",
"- % > > > > > > > # O . . w G E Y Q Y ^ { E w o # > > > > > > > ",
"- % > > > > > > # < 8 w w M | +.+.O.X.| ~ F 8 + # > # # > > > > ",
"% - 3 3 > > > # + w G E E ' &.-.;.=.o.~ h 8 : ; > # + + # u # 3 ",
"- - > > > > > # X s ~ X.O.*.:.,.,.:.*.` c 8 : - # > 8 q # # > # ",
"% % ; > > > > # X s ~ +.=.:.>.,.,.>.:.%.` F 8 . O 8 F F 8 + # 3 ",
"- - > 3 > > # , 8 g K ) _ @.@.@.@.@.@.[  .Q c w q c / W q O # 3 ",
"% % > > > # O w G G f w j j j j j j j v ^ { ~ E E ` %.] p X # > ",
"% - > > > # o 8 G F e , 8 w w w w 8 1 s G ^  .+.+...#.T 9 X # > ",
"% % > 3 > @ X + 8 d n G E E E E E Y G n s m #.;.;.#.B 3 + X # 8 ",
"; - > > > # X O * f L / } X.X.X.X.} ^ K s l R $.-.@.p   X + # 3 ",
"> > > > # # . & c P / | X.X.X.X.X.| } / K m l B $.@.j X @ ; > > ",
"> > 3 > 8 # . 8 n Y / { X.} ^ ^ ( { { / W N , 0 R R u + # > > > ",
"# # > > 3 # . + 8 f J W { Q h g H I I U U N , $ j j < # > > > > ",
"# # > # 3 # .     # p G { L 1 + p x x b P N =     + - 3 > > > > ",
"> > > > u @ .     o & c ^ L = o - * , t F N , . @ # > > > > > > ",
"> > > > # # . . + * = h ^ E d 8 = = * 8 m c , + # > > > > > > > ",
"> > > > > # X & g D K Q } { E L L K D c t , : # > > > > > > > > ",
"3 > > > > # O 8 n L { { ~ { | X.| / Y c : + # > > > > > > > > > ",
"> > > > 3 > # # 8 z Y P g n / } { P f 8 # # > > > > > > > # u # ",
"> > > > 3 > 8 # X 8 m z & r K E J z 8 + : > > > > > > > > 9 3 3 ",
"> > > > > > > # # : , , ; , w r q 8 # # > > > > > > > > > > > > ",
"> > > > > > > 3 > # O @ ; # + X   . # > > > 3 3 > > > > > > > > ",
"> > > > > > > > > ; # - # 3 # # + @ # 8 u 3 3 3 3 u 3 3 > > > > ",
"y 4 > > > 3 > > > > > > 3 ; 3 3 # # # 3 # 2 # # # # # 3 > > 4 5 ",
"V a y : 3 > # # > > - % # # # # # # # # # # # # # # # # # 2 a Z ",
"S Z y > 3 > # # > 3 - % # # ; # # # # # # # # ; # # # # # 6 Z S "
};
