/* XPM */
static char *wall_R3[] = {
/* columns rows colors chars-per-pixel */
"32 32 85 1 ",
"  c #200E11",
". c #200F12",
"X c #200F15",
"o c #210F15",
"O c #211015",
"+ c #221016",
"@ c #241217",
"# c #231318",
"$ c #23111A",
"% c #241318",
"& c #251318",
"* c #25131A",
"= c #26141C",
"- c #27151E",
"; c #27151F",
": c #29151F",
"> c #291520",
", c #2B1621",
"< c #2A1723",
"1 c #2A1820",
"2 c #2D1823",
"3 c #321D2D",
"4 c #371F32",
"5 c #372032",
"6 c #372033",
"7 c #372235",
"8 c #382034",
"9 c #3B233A",
"0 c #3E253B",
"q c #3E273D",
"w c #40273F",
"e c #412641",
"r c #422741",
"t c #412642",
"y c #412840",
"u c #422943",
"i c #442942",
"p c #452B46",
"a c #492D46",
"s c #462B49",
"d c #482B49",
"f c #482E4B",
"g c #4C2E48",
"h c #4C2F4A",
"j c #4E314A",
"k c #513349",
"l c #513449",
"z c #54344A",
"x c #54344B",
"c c #56364B",
"v c #51324F",
"b c #59384F",
"n c #593851",
"m c #624047",
"M c #684447",
"N c #6A4747",
"B c #6B4947",
"V c #6F4B47",
"C c #634249",
"Z c #644249",
"A c #64444B",
"S c #6B4749",
"D c #6B474A",
"F c #6B4848",
"G c #6C4848",
"H c #6D494A",
"J c #6E4A4A",
"K c #724E47",
"L c #704A48",
"P c #704B49",
"I c #734E48",
"U c #744E49",
"Y c #724C4F",
"T c #734C4F",
"R c #754F4D",
"E c #755048",
"W c #78524A",
"Q c #79534F",
"! c #7C534E",
"~ c #7C544D",
"^ c #734D50",
"/ c #734F52",
"( c #7A5250",
") c #7C5450",
"_ c #7F5651",
/* pixels */
"gggssssssssgjp<.$$=&@=$=@=&=@=$=",
"gjkllkxkxlxlvy,X&=@==@=&=@=$=@=&",
"jkCHT^/^/HFCxp,X&&=@&=@=$=@=&=@=",
"skNE!_!!_~WFnt<X@=$==$=@=&=@=$=@",
"dkNEQQULHU~/xw<X@===@=&=@=&=@=$=",
"dkSURRHSFI_/nt<X@#$#=@=$=@=$=@=&",
"skYQLVVVVH(/nt< @===$=@=$=@=&=@=",
"sxY~HVHVVL(Rnt<X###==&=@=&=@=$=@",
"dlSUKVHVHVUSxi1X@=&=@=&=@=&=@=$=",
"skSIKHVVVLKSnw<@@@=$=@=$=@=$=@=&",
"dlBUUIKKIIUHnt<X@#@=$=@=$=@=&=@=",
"glZHZMSHSSHZxq<X@==@=&=@=&=@=$=@",
"jgxxxxxxllxla01@#==#@=$=@=&=@=$=",
"gadspsspssfp93=@=#=$=@=&=@=$=@=&",
"wyytityytpy92$$&=&=@&=@=$=@=&=@=",
"777466885585<=&&@=$==$=@=&=@=$=@",
"1===::=<:==,44=#=$=&=$=@=@=@=$=&",
"= @&@X@@#X@<0q1@@=@=@=&=$=&=@=@=",
"1#@$##=@#@O=001@=&=@=@=@=@=$=&=@",
"<#=$=$@=$#O<09=.@=$=&=$=&=@=@=$=",
"$=$==@=&$$&;q0;@=@=@=@=@=@=&=$=&",
"$@=&@=$===&;661=$=&=$=&=$=@=@=@=",
":&@==&=@=&&=--=@=@=$=@=$=&=$=&=@",
":O=$$=#=@=&&--@@&=@=&=@=@=@=@=$=",
":&=@=$=&#$@:55:@&=@=&=@==@=@=$=&",
"&&=$@=@==&@;qq;@=$=@=$=&$=&=@=@=",
"=&=#=&=@@&@;qq;@@&&=@=$==@=$=&=@",
"&=@=@=$===@<572&@==$=@==&=@=@=$=",
"=$$#=#==$=$#:<$#==#=#$=$=$##=#==",
"@#=#@@@@@@&@X+$#@@@@#X##@##@@@@@",
".O@XO OOXX@@X.XXXO@  @XO@XO@O@OO",
"11><<<=1=<<;2,111111<:<=<<<1;2;;"
};
