/* XPM */
static char *wall_R1[] = {
/* columns rows colors chars-per-pixel */
"32 32 182 2 ",
"   c #4C2F49",
".  c #4B2E49",
"X  c #482C49",
"o  c #472B49",
"O  c #472B48",
"+  c #482D4B",
"@  c #4C2F4E",
"#  c #40263F",
"$  c #26141D",
"%  c #1C0E11",
"&  c #221017",
"*  c #25131A",
"=  c #211116",
"-  c #29151F",
";  c #4D3048",
":  c #52344A",
">  c #553549",
",  c #54344B",
"<  c #54354B",
"1  c #53354A",
"2  c #523448",
"3  c #58374E",
"4  c #4E3044",
"5  c #331D2A",
"6  c #26131D",
"7  c #251219",
"8  c #241219",
"9  c #482B49",
"0  c #53344A",
"q  c #6A464C",
"w  c #754E4F",
"e  c #734D4F",
"r  c #714C4F",
"t  c #724D50",
"y  c #6F4A4D",
"u  c #694548",
"i  c #6B474A",
"p  c #744E50",
"a  c #6B474E",
"s  c #503247",
"d  c #3A2237",
"f  c #291720",
"g  c #211216",
"h  c #251318",
"j  c #452B48",
"k  c #55354B",
"l  c #835950",
"z  c #7D554F",
"x  c #7C544E",
"c  c #7D5450",
"v  c #7A534D",
"b  c #744E48",
"n  c #744F48",
"m  c #7F564E",
"M  c #765051",
"N  c #5D3B54",
"B  c #442944",
"V  c #2C1724",
"C  c #210F15",
"Z  c #231318",
"A  c #452A48",
"S  c #754E4A",
"D  c #704B49",
"F  c #714C4A",
"G  c #704C49",
"H  c #6F4B47",
"J  c #714B47",
"K  c #754F49",
"L  c #6D494C",
"P  c #573850",
"I  c #422842",
"U  c #2B1623",
"Y  c #200F14",
"T  c #724C4F",
"R  c #6C4947",
"E  c #6D4947",
"W  c #6D4948",
"Q  c #6D4A48",
"!  c #6E4A48",
"~  c #724D47",
"^  c #694649",
"/  c #56364E",
"(  c #2A1621",
")  c #452B49",
"_  c #724E48",
"`  c #69474A",
"'  c #56364F",
"]  c #200F15",
"[  c #442948",
"{  c #704A48",
"}  c #432845",
"|  c #55354C",
" . c #432945",
".. c #472A48",
"X. c #734C4F",
"o. c #472C48",
"O. c #7D564F",
"+. c #734E4A",
"@. c #704C48",
"#. c #734E48",
"$. c #56374F",
"%. c #442946",
"&. c #56374C",
"*. c #775050",
"=. c #815850",
"-. c #76504A",
";. c #724C47",
":. c #775048",
">. c #6D484A",
",. c #57374F",
"<. c #442A45",
"1. c #55364D",
"2. c #6C484F",
"3. c #734D4D",
"4. c #684447",
"5. c #694748",
"6. c #6B4847",
"7. c #64434A",
"8. c #432942",
"9. c #2B1621",
"0. c #482B47",
"q. c #4F304B",
"w. c #54364A",
"e. c #523449",
"r. c #513249",
"t. c #513349",
"y. c #513449",
"u. c #523549",
"i. c #53334B",
"p. c #51324F",
"a. c #442942",
"s. c #2B1821",
"d. c #492E47",
"f. c #4C2F4A",
"g. c #482E4B",
"h. c #50314E",
"j. c #462A42",
"k. c #492E48",
"l. c #472A49",
"z. c #50304E",
"x. c #462B45",
"c. c #4F314C",
"v. c #523348",
"b. c #55364C",
"n. c #523450",
"m. c #3F263F",
"M. c #57374E",
"N. c #6C474E",
"B. c #744E4F",
"V. c #734D50",
"C. c #714C4D",
"Z. c #6D484F",
"A. c #58384F",
"S. c #3E253F",
"D. c #59384E",
"F. c #7F554D",
"G. c #754F4F",
"H. c #593A50",
"J. c #422642",
"K. c #452A45",
"L. c #56374D",
"P. c #734E4F",
"I. c #6D494B",
"U. c #57384E",
"Y. c #734C50",
"T. c #40253F",
"R. c #58384E",
"E. c #442A47",
"W. c #402540",
"Q. c #593850",
"!. c #754E50",
"~. c #5A3951",
"^. c #765050",
"/. c #2A1520",
"(. c #402640",
"). c #57384F",
"_. c #28161F",
"`. c #51344E",
"'. c #231216",
"]. c #27141E",
"[. c #482B4B",
"{. c white",
/* pixels */
"  . X o O O O o o + @ # $ % & * * * * * * * * * * * * * * * = - ",
". ; : > , , < 1 2 : 3 4 5 6 7 8 * * * * * * * * * * * * * * = - ",
"9 0 q w e r t y u i p a s d f g h * * * * * * * * * * * * * = - ",
"j k w l z x c v b n m M N B V C Z * * * * * * * * * * * * * = - ",
"A , e z S D F G H J K L P I U Y Z * * * * * * * * * * * * * = - ",
"A , T x D R E W Q ! ~ ^ / I ( Y Z * * * * * * * * * * * * * = - ",
") , e x F E ! ! ! ! _ ` ' I ( ] Z * * * * * * * * * * * * * = - ",
"[ < e x F E ! ! ! { _ ` ' I ( ] Z * * * * * * * * * * * * * = - ",
"} | e x F E ! ! ! { _ ` ' I ( ] Z * * * * * * * * * * * * * = - ",
" .| e x F E ! ! ! { _ ` ' I ( ] Z * * * * * * * * * * * * * = - ",
"..< X.x F E ! ! ! { _ ` ' I ( ] Z * * * * * * * * * * * * * = - ",
"o.< e O.+.E ! { { @.#.i $.I ( ] Z * * * * * * * * * * * * * = - ",
"%.&.*.=.-.;._ _ _ #.:.>.,.I ( ] Z * * * * * * * * * * * * * = - ",
"<.1.2.3.i 4.u u u 5.6.7.$.8.9.] Z * * * * * * * * * * * * * = - ",
"0.q.0 w.e.r.t.y.y.y.u.i.p.a.s.] Z * * * * * * * * * * * * * = - ",
"d.f.9 ) ) o o o o o o g.h.j.s.] Z * * * * * * * * * * * * * = - ",
"k.f.9 j A A A l.o o ) + z.j.s.] Z * * * * * * * * * * * * * = - ",
"x.c.0 k , , , 1 v.2 w.b.n.8.s.] Z * * * * * * * * * * * * * = - ",
"m.M.N.B.e X.V.C.5.i 3.Z.A.I ( ] Z * * * * * * * * * * * * * = - ",
"S.D.*.l z x c v b n F.G.H.J.( ] Z * * * * * * * * * * * * * = - ",
"K.L.P.z S D F G H J K I.U.I ( ] Z * * * * * * * * * * * * * = - ",
"<.L.Y.x D R E W Q ! ~ ^ ' I ( ] Z * * * * * * * * * * * * * = - ",
"T.R.V.x F E ! ! ! ! _ ` ' I ( ] Z * * * * * * * * * * * * * = - ",
"T.R.V.x F E ! ! ! { _ ` ' I ( ] Z * * * * * * * * * * * * * = - ",
"E.L.V.x F E ! ! ! { _ ` ' I ( ] Z * * * * * * * * * * * * * = - ",
"E.L.V.x F E ! ! ! ! _ ` ' I ( ] Z * * * * * * * * * * * * * = - ",
"W.R.Y.x D R E W Q ! ~ ^ ' I ( ] Z * * * * * * * * * * * * * = - ",
"S.Q.!.z S D F G H J K I.U.I ( ] Z * * * * * * * * * * * * * = - ",
"m.~.^.l z x c v b n F.G.H.J.( ] Z * * * * * * * * * * * * * = /.",
"(.).N.B.X.X.V.C.5.i 3.Z.A.I ( ] Z * * * * * * * * * * * * * g _.",
"8.`.b.k , , , 1 v.2 w.b.n.8.s.] Z * * * * * * * * * * * * * '.].",
"j.z.[.j A A A l.o o ) + z.j.s.] Z * * * * * * * * * * * * * '.]."
};
