/* XPM */
static char *wall_bonus[] = {
/* columns rows colors chars-per-pixel */
"32 32 78 1 ",
"  c black",
". c #1C0E11",
"X c #200F15",
"o c #221017",
"O c #231318",
"+ c #25131A",
"@ c #26131D",
"# c #2A1621",
"$ c #2B1821",
"% c #331D2A",
"& c #3E253F",
"* c #40263F",
"= c #3F2540",
"- c #3F2640",
"; c #422642",
": c #432745",
"> c #432942",
", c #452940",
"< c #442A45",
"1 c #442947",
"2 c #492C45",
"3 c #442A48",
"4 c #472B48",
"5 c #482B49",
"6 c #482B4B",
"7 c #482C49",
"8 c #482D4B",
"9 c #4C2F49",
"0 c #4C2F4E",
"q c #4E3044",
"w c #4D3048",
"e c #4D304D",
"r c #4F314C",
"t c #52344A",
"y c #54344B",
"u c #54354B",
"i c #54364A",
"p c #50304E",
"a c #55354C",
"s c #58374E",
"d c #56384C",
"f c #57384F",
"g c #58384F",
"h c #523450",
"j c #593850",
"k c #593851",
"l c #5A3951",
"z c #6C4947",
"x c #6D4947",
"c c #6F4B47",
"v c #694748",
"b c #694649",
"n c #69474A",
"m c #6B474A",
"M c #6A464C",
"N c #6C474E",
"B c #6D4A48",
"V c #6E4A48",
"C c #6D494B",
"Z c #714B47",
"A c #704B49",
"S c #724E48",
"D c #744E48",
"F c #744F48",
"G c #754F49",
"H c #754E4A",
"J c #714C4F",
"K c #734D4F",
"L c #7A534D",
"P c #7C544E",
"I c #7D554F",
"U c #734C50",
"Y c #754E50",
"T c #775050",
"R c #7D5450",
"E c #815850",
"W c #835950",
"Q c white",
/* pixels */
"+++++++++++++++++X.@*08444545289",
"++++++++++++++++++@%qstttuuuutq9",
"++++++                    JJKMa5",
"+++++ QQQQQQQQQQQQQQQQQQQQ IWJa4",
"++++ Q                    Q IKu1",
"++++ Q                    Q IJy8",
"++++ Q                    Q IJy4",
"++++ Q                    Q PKy4",
"++++ Q                    Q IKa1",
"++++ Q                    Q LJu1",
"++++ Q                    Q IKu1",
"++++ Q                    Q IKu1",
"++++ Q                    Q WLa4",
"++++ Q                    Q JCa<",
"++++ Q                    Q tfr>",
"++++ Q                    Q 44r,",
"+++++ QQQQQQQQQQQQQQQQQQQQ 51594",
"++++++                    yuuup2",
"+++++++++++++++OX#>aCKmvJJJKYbu5",
"+++++++++++++++OX#>lJWDDLIIIWTf,",
"+++++++++++++++OX#<lbFBSAAAFRUf&",
"+++++++++++++++OX#=abSzCzzCSIUg*",
"+++++++++++++++OX#>sbSCSCzzBIYf<",
"+++++++++++++++OX#;lbSzBzSCSPUa<",
"+++++++++++++++O.#>hbZSCCSzAIKs;",
"+++++++++++++++OX#>lbFzzCzCAPKs*",
"+++++++++++++++O.#,fbSzzzzzAIUl;",
"+++++++++++++++OO#,gCFZSSZAFIYj&",
"+++++++++++++++OX#:lTIDFPRPRELl;",
"+++++++++++++++O.#;lCJbnCUUYJNa&",
"++++++++++++++++o$>hyutqtauusua1",
"++++++++++++++++X$,08845551158p*"
};
