/* XPM */
static char *wall_R2[] = {
/* columns rows colors chars-per-pixel */
"32 32 114 2 ",
"   c #462A42",
".  c #50304E",
"X  c #482B4B",
"o  c #452B48",
"O  c #452B49",
"+  c #472B49",
"@  c #482E4B",
"#  c #50314E",
"$  c #2B1821",
"%  c #200F15",
"&  c #231318",
"*  c #25131A",
"=  c #211216",
"-  c #28161F",
";  c #432942",
":  c #52344E",
">  c #55364C",
",  c #54364A",
"<  c #523449",
"1  c #513249",
"2  c #513349",
"3  c #513449",
"4  c #523549",
"5  c #53334B",
"6  c #51324F",
"7  c #442942",
"8  c #211116",
"9  c #2A1520",
"0  c #422640",
"q  c #57384F",
"w  c #6C484F",
"e  c #724D4D",
"r  c #6B474A",
"t  c #684447",
"y  c #694548",
"u  c #694748",
"i  c #6B4847",
"p  c #64434A",
"a  c #56374F",
"s  c #2B1621",
"d  c #29151F",
"f  c #402640",
"g  c #5A3951",
"h  c #775052",
"j  c #815850",
"k  c #76504A",
"l  c #724C47",
"z  c #724E48",
"x  c #734E48",
"c  c #775048",
"v  c #6D484A",
"b  c #57374F",
"n  c #422842",
"m  c #2A1621",
"M  c #3F2640",
"N  c #593851",
"B  c #754F50",
"V  c #7C564F",
"C  c #734E4A",
"Z  c #6D4947",
"A  c #6E4A48",
"S  c #704A48",
"D  c #704C48",
"F  c #3F2540",
"G  c #734D50",
"H  c #7C544E",
"J  c #714C4A",
"K  c #69474A",
"L  c #56364F",
"P  c #704B49",
"I  c #6C4947",
"U  c #6D4948",
"Y  c #6D4A48",
"T  c #724D47",
"R  c #694649",
"E  c #754E50",
"W  c #7D554F",
"Q  c #754E4A",
"!  c #704C49",
"~  c #6F4B47",
"^  c #714B47",
"/  c #754F49",
"(  c #6D494B",
")  c #57384E",
"_  c #765050",
"`  c #835950",
"'  c #7D5450",
"]  c #7A534D",
"[  c #744E48",
"{  c #744F48",
"}  c #7F554D",
"|  c #754F4F",
" . c #593A50",
".. c #422642",
"X. c #6C474E",
"o. c #744E4F",
"O. c #734C4F",
"+. c #714C4D",
"@. c #734D4D",
"#. c #6D484F",
"$. c #58384F",
"%. c #432940",
"&. c #51344E",
"*. c #55354B",
"=. c #54344B",
"-. c #53354A",
";. c #523348",
":. c #523448",
">. c #523450",
",. c #442A40",
"<. c #452A48",
"1. c #472A49",
"2. c #482D4B",
"3. c white",
/* pixels */
"  . X o O + + + + + + @ #   $ % & * * * * * * * * * * * * * = - ",
"; : > , < 1 2 3 3 3 4 5 6 7 $ % & * * * * * * * * * * * * * 8 9 ",
"0 q w e r t y y y u i p a ; s % & * * * * * * * * * * * * * 8 d ",
"f g h j k l z z z x c v b n m % & * * * * * * * * * * * * * 8 d ",
"M N B V C Z A S S D x r a n m % & * * * * * * * * * * * * * 8 d ",
"F N G H J Z A A A S z K L n m % & * * * * * * * * * * * * * 8 d ",
"M N G H J Z A A A S z K L n m % & * * * * * * * * * * * * * 8 d ",
"M N G H J Z A A A S z K L n m % & * * * * * * * * * * * * * 8 d ",
"M N G H J Z A A A S z K L n m % & * * * * * * * * * * * * * 8 d ",
"M N G H J Z A A A S z K L n m % & * * * * * * * * * * * * * 8 d ",
"M N G H J Z A A A S z K L n m % & * * * * * * * * * * * * * 8 d ",
"M N G H J Z A A A S z K L n m % & * * * * * * * * * * * * * 8 d ",
"M N G H J Z A A A S z K L n m % & * * * * * * * * * * * * * 8 d ",
"M N G H J Z A A A S z K L n m % & * * * * * * * * * * * * * 8 d ",
"M N G H J Z A A A S z K L n m % & * * * * * * * * * * * * * 8 d ",
"M N G H J Z A A A S z K L n m % & * * * * * * * * * * * * * 8 d ",
"M N G H J Z A A A S z K L n m % & * * * * * * * * * * * * * 8 d ",
"M N G H J Z A A A S z K L n m % & * * * * * * * * * * * * * 8 d ",
"M N G H J Z A A A S z K L n m % & * * * * * * * * * * * * * 8 d ",
"M N G H J Z A A A S z K L n m % & * * * * * * * * * * * * * 8 d ",
"M N G H J Z A A A S z K L n m % & * * * * * * * * * * * * * 8 d ",
"M N G H J Z A A A S z K L n m % & * * * * * * * * * * * * * 8 d ",
"M N G H J Z A A A S z K L n m % & * * * * * * * * * * * * * 8 d ",
"M N G H J Z A A A S z K L n m % & * * * * * * * * * * * * * 8 d ",
"M N G H J Z A A A S z K L n m % & * * * * * * * * * * * * * 8 d ",
"M N G H J Z A A A A z K L n m % & * * * * * * * * * * * * * 8 d ",
"F N G H P I Z U Y A T R L n m % & * * * * * * * * * * * * * 8 d ",
"M N E W Q P J ! ~ ^ / ( ) n m % & * * * * * * * * * * * * * 8 d ",
"f g _ ` W H ' ] [ { } |  ...m % & * * * * * * * * * * * * * 8 d ",
"0 q X.o.O.O.G +.u r @.#.$.n m % & * * * * * * * * * * * * * 8 d ",
"%.&.> *.=.=.=.-.;.:., > >.; $ % & * * * * * * * * * * * * * 8 d ",
",.. X o <.<.<.1.+ + O 2..   $ % & * * * * * * * * * * * * * 8 d "
};
