/* XPM */
static char *player1[] = {
/* columns rows colors chars-per-pixel */
"32 32 141 2 ",
"   c #25131A",
".  c #2A161E",
"X  c #27181E",
"o  c #2A191E",
"O  c #311A1D",
"+  c #2A1721",
"@  c #2B1C23",
"#  c #2E1B28",
"$  c #341F21",
"%  c #321C2B",
"&  c #361F31",
"*  c #2C2125",
"=  c #2E2528",
"-  c #372123",
";  c #3C2224",
":  c #34222E",
">  c #3A242A",
",  c #322D2E",
"<  c #3E282A",
"1  c #372132",
"2  c #392334",
"3  c #342E31",
"4  c #3A2B33",
"5  c #3D253B",
"6  c #312F3B",
"7  c #3D2D39",
"8  c #363435",
"9  c #3B3333",
"0  c #353238",
"q  c #3E323B",
"w  c #3B383B",
"e  c #412525",
"r  c #472926",
"t  c #492825",
"y  c #442A2A",
"u  c #4C2C29",
"i  c #512E29",
"p  c #55322B",
"a  c #5E372E",
"s  c #412635",
"d  c #472B31",
"f  c #4A2D34",
"g  c #4C3833",
"h  c #41353E",
"j  c #423A3B",
"k  c #583730",
"l  c #5B3A32",
"z  c #59343D",
"x  c #613E36",
"c  c #55423A",
"v  c #59453C",
"b  c #654038",
"n  c #6B443B",
"m  c #61483D",
"M  c #744234",
"N  c #7C4837",
"B  c #704638",
"V  c #794B3B",
"C  c #3F2B42",
"Z  c #3D354B",
"A  c #3C3B4B",
"S  c #423742",
"D  c #463D45",
"F  c #41364E",
"G  c #483E49",
"H  c #433E57",
"J  c #603F45",
"K  c #3C4E62",
"L  c #474249",
"P  c #4B444B",
"I  c #54454D",
"U  c #57484C",
"Y  c #594B4F",
"T  c #4D4C51",
"R  c #42435B",
"E  c #544C55",
"W  c #59535C",
"Q  c #54595D",
"!  c #7B5140",
"~  c #71524A",
"^  c #765B54",
"/  c #454561",
"(  c #49526F",
")  c #5B5660",
"_  c #5E5C66",
"`  c #4A5874",
"'  c #4C5E7D",
"]  c #625B65",
"[  c #605F69",
"{  c #4A647F",
"}  c #66616C",
"|  c #73676C",
" . c #6B6C77",
".. c #74727D",
"X. c #834D3B",
"o. c #85523E",
"O. c #8B533E",
"+. c #895944",
"@. c #955B43",
"#. c #995B42",
"$. c #A25E43",
"%. c #8B6053",
"&. c #A66347",
"*. c #A56548",
"=. c #A17162",
"-. c #4C6583",
";. c #527091",
":. c #737681",
">. c #767D87",
",. c #7A7985",
"<. c #7B7D88",
"1. c #857C80",
"2. c #5680A3",
"3. c #5387A8",
"4. c #5689AC",
"5. c #5889AD",
"6. c #5A8FB3",
"7. c #5A91B7",
"8. c #5E9EC5",
"9. c #5FA2C9",
"0. c #62ABD4",
"q. c #81828E",
"w. c #8D878E",
"e. c #838591",
"r. c #828A96",
"t. c #898995",
"y. c #858C98",
"u. c #8D929D",
"i. c #989093",
"p. c #90919E",
"a. c #8C95A1",
"s. c #8F9EA9",
"d. c #9194A1",
"f. c #949AA6",
"g. c #959DAA",
"h. c #93A0AD",
"j. c #9DA2A9",
"k. c #99A4B1",
"l. c #9FADBA",
"z. c #A0ACB9",
"x. c #A5B5C2",
/* pixels */
"0.0.0.5./ 5 5 5 s 5 5 C 5 5 5 5 5 5 5 5 5 5 5 5 5 5 5 H ;.0.0.0.",
"0.9.7.;.H 5 5 5 & & & & & & & & & & & & 5 5 5 5 5 5 5 Z ;.7.9.0.",
"0.7.' H C 5 5 1 # + + . + + # . + + # # 2 5 5 5 C 5 5 C H ` 6.0.",
"5.;.H 5 5 5 1 5 S D h h h 7 7 h h 7 h 7 2 1 5 5 5 5 5 5 C Z -.4.",
"/ H C 5 5 1 # A :.y.,.................] 7 % 1 5 5 5 5 5 & C Z H ",
"5 5 5 5 1 5 h _ a.k.q.........:.......] < . & 5 5 2 & & 5 5 & 1 ",
"5 5 5 1 % S :.a.f.q.E h h h q q h q h 4 + + & 1 # + + @ & 5 1 & ",
"5 5 5 & . D y.z.f...h @ q s @ @ s q @ @ w S 5 % + + q S 5 2 % 1 ",
"5 5 5 & + h ,.f.d...h h :...0 q ....q q :.:.S +   4  .<.G @ % & ",
"5 5 5 1 + 7 ..d.f.,.h D a.a.L G a.a.G G a.a.D     q r.h.T + % & ",
"5 5 5 & + h ..f.z.t.S G a.a.G G a.a.G G a.a.D     q r.h.I   % & ",
"5 5 5 & . h ..g.x.h.[ [ h.h.[ _ h.s.[ _ s.a.G     7 1.i.I $ % & ",
"5 5 C & + 7 ..g.x.x.g.h.x.x.h.h.x.x.h.h.x.a.D     e %.=.J & % 1 ",
"5 5 5 & + 4 ] q.k.x.x.x.x.z.g.a.a.s.l.l.g...q . $ i M +.z 5 1 & ",
"5 5 5 & + @ 4 E q.g.g.g.g.e.) G D W 2.i.) h $ $ k x p y s 5 & : ",
"5 5 2 % +   + q [ ,.t.p.p.1.E q f I } ] 4     $ l x ; + & 5 1 1 ",
"5 1 # +   o , 3 9 E ,.p.p.t.,.....} I < O     o - - . . & 5 5 5 ",
"& 2 7 w S A 3 , @ q } >...<.p.p.<.[ q = j l y e t e O + & s 5 5 ",
"+ 7 ] ,.y...w * , 8 L P S W a.u.W q 3 L >.2.^ V O.X.t . % 5 & & ",
"  h ..j.x.a.L X , 8 3 9 9 W a.a._ D w Q s.j.%.o.&.$.i . & 5 1 1 ",
"  h ..f.x.u.L @ , 3 * 9 [ ,.p.g.a.>.T Q s.u.Y a O.$.i + & 5 5 5 ",
"  7 | w.u...w + , 8 * q [ <.u.f.a.>.T T 2...9 e N X.t + & 5 5 5 ",
"  < ~ ^ U q * X , 8 8 3 q W a.a._ A w w c g o o e e O + & 5 5 5 ",
"  - a x - X o : g v c g @ L a.a.L - g g $     o $ O . . & 5 5 5 ",
"  . ; ; o o = g ! @.@.V < L s.a.L ; V V ;     - a x - + & 5 5 5 ",
". .     X * 8 c +.*.*.+.u j =.2.j r o.o.u o   ; B X.r + % 5 5 5 ",
"% %   o , , 8 w v v m c 9 8 D L w 9 c c 9 = X r X.@.i . & C 5 s ",
"H Z # @ , 8 8 8 8 w 8 8 8 , - - , 3 8 w 8 , @ r X.#.i . & C F H ",
"2.-.6 * , 8 8 w 8 8 w 3 * < l l < = 3 8 w , o e n +.u + & Z -.;.",
"0.4.K 6 8 8 8 8 8 8 8 , @ < b x ; * , 8 8 , * < l n y # C ( 7.0.",
"0.9.3.{ A 1 4 1 2 4 4 1 % > d d > % : 4 1 1 & 2 d f 5 C -.5.8.0.",
"0.0.0.3.R 1 1 : 1 1 % & 1 & 1 & & & : 1 & 1 5 5 1 1 C / ;.0.0.0."
};
