/* XPM */
static char *player2[] = {
/* columns rows colors chars-per-pixel */
"32 32 158 2 ",
"   c #25131B",
".  c #29151E",
"X  c #27181E",
"o  c #2C181D",
"O  c #321C1F",
"+  c #291620",
"@  c #2C1B24",
"#  c #2E1B29",
"$  c #331D20",
"%  c #321C2B",
"&  c #361E31",
"*  c #2C2226",
"=  c #2E2328",
"-  c #352224",
";  c #3B2223",
":  c #34222E",
">  c #3B232A",
",  c #332D2F",
"<  c #3E292B",
"1  c #372232",
"2  c #392334",
"3  c #342E31",
"4  c #3A2C33",
"5  c #3D253B",
"6  c #312F3B",
"7  c #3C2C3A",
"8  c #363536",
"9  c #393237",
"0  c #353238",
"q  c #3E323B",
"w  c #3B3A3C",
"e  c #462624",
"r  c #472A27",
"t  c #4C2A26",
"y  c #412628",
"u  c #42292A",
"i  c #4B2B28",
"p  c #512E29",
"a  c #55322C",
"s  c #5B362E",
"d  c #412734",
"f  c #472B31",
"g  c #482C37",
"h  c #443633",
"j  c #4E3732",
"k  c #483834",
"l  c #41363E",
"z  c #583730",
"x  c #543D36",
"c  c #5A3A32",
"v  c #50393B",
"b  c #613E35",
"n  c #603C3A",
"m  c #51423B",
"M  c #5D473D",
"N  c #654138",
"B  c #6B453A",
"V  c #6B473A",
"C  c #704034",
"Z  c #7B4636",
"A  c #7C4837",
"S  c #754839",
"D  c #7D4C3C",
"F  c #3F2B42",
"G  c #3B3046",
"H  c #3D354B",
"J  c #3C3B4B",
"K  c #423742",
"L  c #463C45",
"P  c #493E47",
"I  c #41364E",
"U  c #483E49",
"Y  c #433E57",
"T  c #3C4E62",
"R  c #474249",
"E  c #4A444B",
"W  c #494A4D",
"Q  c #52454D",
"!  c #4F4952",
"~  c #42435B",
"^  c #544C55",
"/  c #5C4D50",
"(  c #554E58",
")  c #4E5154",
"_  c #5E5156",
"`  c #565059",
"'  c #58545E",
"]  c #795342",
"[  c #71554F",
"{  c #7E574A",
"}  c #655F5E",
"|  c #7C625D",
" . c #454561",
".. c #49526F",
"X. c #5B5660",
"o. c #5D5963",
"O. c #4A5874",
"+. c #4C5E7D",
"@. c #615A65",
"#. c #625F69",
"$. c #4A647F",
"%. c #64636D",
"&. c #6B656E",
"*. c #666771",
"=. c #6C6671",
"-. c #6B6C77",
";. c #746970",
":. c #74717D",
">. c #834D3B",
",. c #85513D",
"<. c #8A503B",
"1. c #845744",
"2. c #995A42",
"3. c #A25E43",
"4. c #8B6053",
"5. c #A86447",
"6. c #A17162",
"7. c #4C6583",
"8. c #527091",
"9. c #737581",
"0. c #797782",
"q. c #747A84",
"w. c #7B7A86",
"e. c #777D88",
"r. c #7A7E89",
"t. c #857C80",
"y. c #7E8591",
"u. c #5680A3",
"i. c #5387A8",
"p. c #5689AC",
"a. c #5889AD",
"s. c #5A8FB3",
"d. c #5A91B7",
"f. c #5E9EC5",
"g. c #5FA2C9",
"h. c #62ABD4",
"j. c #81828E",
"k. c #838591",
"l. c #838B96",
"z. c #8A8B96",
"x. c #858C98",
"c. c #888F9C",
"v. c #86929C",
"b. c #8F919E",
"n. c #979093",
"m. c #90919E",
"M. c #8C95A1",
"N. c #8D98A4",
"B. c #9194A1",
"V. c #949AA7",
"C. c #959DAA",
"Z. c #93A0AD",
"A. c #99A4B1",
"S. c #99A8B5",
"D. c #9EACB9",
"F. c #A0ADBA",
"G. c #A4B5C2",
"H. c #A6B8C6",
/* pixels */
"h.h.h.a. .5 5 5 d F 5 5 5 5 5 5 5 5 d F 5 5 5 5 5 5 5 Y 8.h.h.h.",
"h.g.d.8.Y 5 5 5 & & & & & & & & & & & & 5 5 5 5 5 5 5 Y 8.d.g.h.",
"h.d.+.Y F 5 5 1 # + + . + + + + + + + # 1 5 5 5 5 5 5 F Y O.a.h.",
"a.8.Y 5 5 5 1 5 K L l l l l 7 l l 7 l 5 2 & 5 5 5 5 5 5 5 J 7.a.",
" .Y F 5 5 1 # H 9.x.w.:.:.:.:.:.:.:.:.#.K # 1 5 5 5 5 5 5 F H ~ ",
"5 5 5 5 1 5 l o.M.A.j.:.:.:.:.9.:.:.9.#.d . 1 5 5 5 2 & & 2 % & ",
"5 5 5 2 # l q.N.V.y.( q l g q q l q q 4 # o & 5 5 2 % . + @ % 1 ",
"5 5 5 & o L x.F.C.:.q @ q q @ @ g q = @ 7 K 5 1 5 & + @ q K 2 % ",
"2 5 5 1 + q r.V.B.:.l q 9.9.0 q :.e.L 3 -.e.U @ & 1 + 4 -.e.U + ",
"5 5 5 & + g :.B.V.w.l L M.M.U L M.Z.! q y.C.! + & 1 @ q l.C.!   ",
"5 5 5 & . l :.V.D.x.L L M.M.U R M.Z.! G x.Z.! + & 2 + q y.C.!   ",
"5 5 5 & . l :.C.G.C.#.#.Z.Z.#.o.Z.S.*.X.N.Z.! + & & # 7 t.n.Q + ",
"5 5 5 & + l :.C.G.G.C.Z.G.G.C.Z.G.H.A.C.G.C.! + & 2 + u 4.6.P % ",
"5 5 1 % + 2 @.j.A.G.G.G.G.F.C.M.M.N.D.D.Z.e.L + % 5 > p D >.z & ",
"5 1 # +   @ 4 ^ j.C.C.V.C.k.X.U U ` y.l.@.q # + & g n C a t y & ",
"1 2 7 K L q @ 4 @.w.z.B.B.w.^ q q L #.=.( l = + % d b b % + % & ",
"@ d @.w.x.9.8 @ 4 ^ w.B.B.z.w.:.:.=.Q E 9.e.L   X @ $ ; o . & 5 ",
"  l :.C.G.M.U   X q &.r.r.t.m.c.j.=.l K l.Z.!   O ; e ; o . % 5 ",
"  q :.C.G.M.L o = 8 W ! U @.M.M.o.K 9 W v.Z.^ O a V >.Z e . % & ",
"  4 ;.z.V.e.w @ , 8 3 3 4 ^ M.N.' q 8 W e.y.L $ c ,.5.3.p + % % ",
"  < [ | _ L = @ , 8 * 9 X.0.b.V.c.q.) w E R % . e s 2.3.a + & 5 ",
"  ; b b ; . O ; h h u v &.j.m.V.C.x.} k -   . +   $ Z <.t . & d ",
"  o ; ; o $ c V V ] ,.D M X.v.N.%./ { ,.r X # % . . e t O + & 5 ",
"+ . . o X ; N ] ] 1.2.,.e R N.N.R ; A <.i X % 2 + . O $ . + & 5 ",
"% & 1 # + @ h m m m M m $ R v.b.R o j x - . & & + $ s b $ + & 5 ",
"5 5 1 1 @ * 8 8 8 8 w 3 * l q.y.L @ , 8 = # % 1 y p b b e # & 5 ",
"5 2 % @ = 8 8 8 8 w 8 8 3 8 R R 8 , 8 8 , , @ u b >.s y & & & d ",
"Y F # @ 3 8 8 8 8 8 8 8 3 , ; - , 8 8 8 8 , @ ; <.3.t + & I I Y ",
"u.7.6 @ , 8 8 8 8 8 8 8 = < c c ; * 8 8 8 8 @ ; S 1.r + & I 7.8.",
"h.p.T 0 0 8 8 8 8 9 8 3 @ > b N ; @ , 8 8 3 * - n V y % F ..s.h.",
"h.g.i.7.J 1 4 3 2 4 4 : % > f f > % : 1 2 2 & & f g 2 F 7.a.f.h.",
"h.h.h.i.~ 1 & & & 1 % & : 1 & 1 & : & : & & d 5 & & K  .8.h.h.h."
};
