/* XPM */
static char *player_R22[] = {
/* columns rows colors chars-per-pixel */
"32 32 148 2 ",
"   c #25141B",
".  c #29151D",
"X  c #2A191E",
"o  c #321C1F",
"O  c #291620",
"+  c #2C1A23",
"@  c #2F1A28",
"#  c #331D21",
"$  c #381E20",
"%  c #321C2B",
"&  c #351E31",
"*  c #2C2326",
"=  c #2F2429",
"-  c #362325",
";  c #3C2324",
":  c #34222E",
">  c #3C232B",
",  c #322B2E",
"<  c #382A2E",
"1  c #3B302F",
"2  c #372232",
"3  c #392335",
"4  c #352C31",
"5  c #392B33",
"6  c #3D253B",
"7  c #3C2D39",
"8  c #363435",
"9  c #3D3134",
"0  c #3E333B",
"q  c #3E3C3F",
"w  c #462624",
"e  c #472A27",
"r  c #4C2A26",
"t  c #412629",
"y  c #41292B",
"u  c #4B2C28",
"i  c #512E2A",
"p  c #55322C",
"a  c #5B362E",
"s  c #452A33",
"d  c #492D33",
"f  c #442A3A",
"g  c #423330",
"h  c #463B37",
"j  c #41323C",
"k  c #483E39",
"l  c #563336",
"z  c #5C3B33",
"x  c #523F38",
"c  c #5B3938",
"v  c #6D3E32",
"b  c #623E3A",
"n  c #4D403A",
"m  c #53433B",
"M  c #5C463D",
"N  c #654136",
"B  c #6B443B",
"V  c #704034",
"C  c #7B4636",
"Z  c #714638",
"A  c #754839",
"S  c #7D4B3A",
"D  c #7F503D",
"F  c #3D2B41",
"G  c #3D354B",
"H  c #3B3A4E",
"J  c #453B43",
"K  c #483D46",
"L  c #41344C",
"P  c #5B3D40",
"I  c #423D54",
"U  c #464047",
"Y  c #4A434B",
"T  c #4A494E",
"R  c #52464D",
"E  c #4F4952",
"W  c #534C55",
"Q  c #4D5053",
"!  c #5D5350",
"~  c #56525A",
"^  c #59525B",
"/  c #654F4E",
"(  c #6B4F4A",
")  c #765141",
"_  c #625357",
"`  c #464662",
"'  c #434B63",
"]  c #474D69",
"[  c #5E5A65",
"{  c #615A64",
"}  c #625F69",
"|  c #66636D",
" . c #676672",
".. c #6B6671",
"X. c #6D6974",
"o. c #726F7B",
"O. c #72747F",
"+. c #814C3A",
"@. c #85513D",
"#. c #8A503B",
"$. c #815643",
"%. c #885944",
"&. c #875A48",
"*. c #975F46",
"=. c #995A42",
"-. c #A25E43",
";. c #8B6458",
":. c #A86447",
">. c #9F7468",
",. c #4E6383",
"<. c #4D6D8A",
"1. c #547D9F",
"2. c #717580",
"3. c #797581",
"4. c #737882",
"5. c #7B7985",
"6. c #7F7D89",
"7. c #807F8B",
"8. c #7E818B",
"9. c #7E8591",
"0. c #5680A3",
"q. c #5A8FB5",
"w. c #5990B5",
"e. c #60A6CE",
"r. c #61A9D2",
"t. c #848085",
"y. c #82828E",
"u. c #838591",
"i. c #828A96",
"p. c #8B8A95",
"a. c #868D99",
"s. c #8B8E9B",
"d. c #88949E",
"f. c #91929E",
"g. c #8A94A1",
"h. c #8F9BA8",
"j. c #9295A3",
"k. c #949AA6",
"l. c #949DAA",
"z. c #93A0AD",
"x. c #99A0AD",
"c. c #97A4B1",
"v. c #99A6B3",
"b. c #9FACB9",
"n. c #9FB0BD",
"m. c #A3B1BF",
"M. c #A4B5C3",
"N. c #A7B8C5",
/* pixels */
"e.q.] 6 6 6 6 & O                     . & 6 6 6 6 6 6 6 6 I 1.e.",
"q.1.` 6 6 6 3 6 7 0 7 5 5 5 5 5 5 3 5 4 6 & 6 6 6 6 6 6 6 I <.q.",
"] ` L 6 6 3 % 7  .9.3.X...X.X.X.X.X.X.{ 0 @ 2 6 6 6 6 6 6 F I ' ",
"6 6 6 3 3 3 7 W a.b.p.5.3.3.5.5.5.5.5...0 O & 6 6 6 6 6 6 6 2 & ",
"6 f 6 3 % 7  .a.l.p.[ J J J J J J J J j * . & 6 6 6 6 6 6 6 % 2 ",
"6 6 6 3 O 7 9.M.l.5.J O 4 5 + + 3 5 + + 4 0 6 3 6 6 3 3 3 3 % 2 ",
"6 6 6 & + 5 O.l.j.5.J 4 | 2.j 4 | O.j 4 | 2.K @ & 3 % O O % % 2 ",
"6 6 6 3 + 3 X.f.j.y.J 0 i.z.E 0 i.z.E 0 i.l.E O & & + O < 9 3 % ",
"3 6 6 & O 5 X.k.v.j.Y j i.z.E 0 9.c.E 7 i.z.E O & 3 + 5 | 2.J O ",
"6 6 6 3 O 5 X.k.m.v.} W g.c.| W g.v.[ W g.z.E O & 2 + 0 i.l.E   ",
"6 6 6 & + 5 X.l.M.M.k.g.n.M.h.g.n.N.h.g.n.z.E O & 3 O 0 i.z.E   ",
"6 6 F 3 + : { u.c.N.N.N.N.M.v.l.z.c.M.M.v.9.K @ & & @ 7 t.f.R O ",
"6 6 6 & O O 9 W 8.l.l.l.x.f.| W E [ 9.s.| K 7 & 3 3 + y ;.>.P % ",
"6 6 L & O . . 5 { 7.p.d.f.7.W 3 5 J } ..J O & F 6 3 > r +.#.l & ",
"6 F F & O . : 4 j W 3.f.f.p.3.X.X.} W J 6 2 6 6 6 f c N a i > 2 ",
"6 & & & O + , 4 * 5 | 6.5.7.s.j.7...f . % & & 3 & f b N ; . % 3 ",
"6 2 % O   X , 8 , 8 T E Y ~ a.k.} f *   O O O + + + ; ; X . & 6 ",
"2 3 3 5 0 9 8 8 8 8 8 4 5 Y a.l.} 7 * + 5 8 @ . # ; t $ o . % 6 ",
"+ 3 ^ o.8.2.U * 8 , * 5 ^ 3.s.l.d.4.E G X.2.k o p Z +.C w O % % ",
". 5 X.k.n.z.E X , 8 * 5 { 6.s.l.z.i.~ Q g.l.E o z $.:.-.p . % & ",
"  4 X.l.m.z.E X , 8 , , 0 ~ a.l.X.T q Q d.c.T X ; a =.-.p . & & ",
"  < } p.k.8.U X 4 n n h - 0 i.z.T X g ! 8.9.J     $ C #.r . % L ",
"  ; ( ;._ U , # m ) %.D e 0 9.z.E ; Z &./ U =     o r r o O % 6 ",
"  o z b ;   . - N $.*.#.u 8 4.9.Y t S #.u   X X     o o . O & 6 ",
"  . ; ; X . * 4 n n M m - * h Y 8 1 k x -   % % . o p c $ O & f ",
"O .     . * 4 8 8 q 8 8 +   $ e < 4 8 8 * + % > > r b v t + & & ",
"& % . . * 8 8 8 8 8 8 4 * $ V +.u * 8 8 4 , * > v +.p w & & F & ",
"6 3 + O , 8 8 8 8 8 8 8 X ; @.#.p X , 8 8 4 + ; #.-.i . & 6 6 L ",
"6 2 + X , 8 8 8 8 8 8 8 + ; A @.e X , 8 8 8 + ; C $.r O & 6 6 6 ",
"H G 2 O , 8 8 8 8 8 8 5 + ; z B y + 4 8 8 4 + - b v s O & f L I ",
"0.<.H % 2 4 5 5 3 4 5 : : : s d > % : 4 3 5 3 & s d 6 & 6 L ,.1.",
"r.w.' 2 & > 2 2 & > & 2 & : 2 2 2 % 2 & & & 6 6 & & 6 6 6 ` 1.r."
};
