/* XPM */
static char *player1_l[] = {
/* columns rows colors chars-per-pixel */
"32 32 149 2 ",
"   c #25131A",
".  c #2A161E",
"X  c #27181E",
"o  c #2A191E",
"O  c #311A1D",
"+  c #2A1721",
"@  c #2B1C23",
"#  c #2E1B28",
"$  c #341F21",
"%  c #321C2B",
"&  c #361F31",
"*  c #2C2125",
"=  c #2E2528",
"-  c #372123",
";  c #3C2224",
":  c #34222E",
">  c #3A242A",
",  c #322D2E",
"<  c #3E282A",
"1  c #372132",
"2  c #392334",
"3  c #342E31",
"4  c #3A2B33",
"5  c #3D253B",
"6  c #312F3B",
"7  c #3D2D39",
"8  c #363435",
"9  c #3B3333",
"0  c #353238",
"q  c #3E323B",
"w  c #3B383B",
"e  c #412525",
"r  c #472926",
"t  c #492825",
"y  c #442A2A",
"u  c #4C2C29",
"i  c #512E29",
"p  c #55322B",
"a  c #5E372E",
"s  c #412635",
"d  c #472B31",
"f  c #4A2D34",
"g  c #4C3833",
"h  c #41353E",
"j  c #423A3B",
"k  c #583730",
"l  c #5B3A32",
"z  c #59343D",
"x  c #613E36",
"c  c #55423A",
"v  c #59453C",
"b  c #694236",
"n  c #654038",
"m  c #6B443B",
"M  c #61483D",
"N  c #744234",
"B  c #7C4837",
"V  c #704638",
"C  c #754839",
"Z  c #794B3B",
"A  c #7E503E",
"S  c #3F2B42",
"D  c #3B3046",
"F  c #3D354B",
"G  c #3C3B4B",
"H  c #423742",
"J  c #463D45",
"K  c #41364E",
"L  c #483E49",
"P  c #433E57",
"I  c #603F45",
"U  c #3C4E62",
"Y  c #474249",
"T  c #4B444B",
"R  c #54454D",
"E  c #57484C",
"W  c #594B4F",
"Q  c #4D4C51",
"!  c #42435B",
"~  c #544C55",
"^  c #59535C",
"/  c #54595D",
"(  c #7B5140",
")  c #71524A",
"_  c #765B54",
"`  c #795D56",
"'  c #7F665F",
"]  c #454561",
"[  c #49526F",
"{  c #5B5660",
"}  c #5E5C66",
"|  c #4A5874",
" . c #4C5E7D",
".. c #625B65",
"X. c #605F69",
"o. c #4A647F",
"O. c #66616C",
"+. c #73676C",
"@. c #6B6C77",
"#. c #74727D",
"$. c #834D3B",
"%. c #85523E",
"&. c #8B533E",
"*. c #895944",
"=. c #955B43",
"-. c #995B42",
";. c #A25E43",
":. c #8B6053",
">. c #A66347",
",. c #A56548",
"<. c #A17162",
"1. c #4C6583",
"2. c #506A8A",
"3. c #527091",
"4. c #737681",
"5. c #767D87",
"6. c #7A7985",
"7. c #7B7D88",
"8. c #857C80",
"9. c #5680A3",
"0. c #5387A8",
"q. c #5689AC",
"w. c #5889AD",
"e. c #5A8FB3",
"r. c #5A91B7",
"t. c #5E9EC5",
"y. c #5FA2C9",
"u. c #62ABD4",
"i. c #848287",
"p. c #81828E",
"a. c #8D878E",
"s. c #838591",
"d. c #828A96",
"f. c #898995",
"g. c #858C98",
"h. c #8D929D",
"j. c #989093",
"k. c #90919E",
"l. c #8C95A1",
"z. c #8F9EA9",
"x. c #9194A1",
"c. c #949AA6",
"v. c #959DAA",
"b. c #93A0AD",
"n. c #9DA2A9",
"m. c #99A4B1",
"M. c #9FADBA",
"N. c #A0ACB9",
"B. c #A5B5C2",
/* pixels */
"u.u.u.9.P 5 5 5 5 5 5 5 5 5 5 5 5 5 5 S 5 5 5 5 5 5 S ] w.u.u.u.",
"u.t.r.2.K 5 5 5 5 5 S 2 & & & & & & & & & & & 2 5 5 5 P 3.r.t.u.",
"u.w.| P S 5 s S 5 5 5 2 # + + + + + + + + + + % & 5 5 S P 1.r.u.",
"q.1.F 5 5 5 5 5 5 2 2 2 7 h q h h 5 h h q h J H 5 2 2 5 5 P 3.w.",
"! F S 5 5 5 5 5 5 2 # 5 ..#.#.#.#.#.#.#.#.6.g.4.H % & 5 5 K P P ",
": 1 5 2 & & & 2 2 & + 4 ..#.#.#.#.#.#.#.#.p.m.l.} H s & & 5 s 5 ",
"& : 5 1 # + + % 2 & . @ 2 h q q h h s q h ~ p.c.l.4.H % & & S & ",
"& % 1 5 H 7 # + % 2 H h @ @ q 0 @ @ q q $ q #.c.N.f.K # & H & S ",
"1 % $ L 7.@.,   . H 4.#.w q 4.#.q q #.4.h h 4.x.c.6.h + & 5 5 & ",
"& % + Q b.d.h     J l.l.J L l.l.J L l.l.J H 6.c.x.4.h + & s 5 H ",
"& # . R b.d.q     L l.l.L L l.l.L J l.l.J H g.N.c.#.s + & 5 5 5 ",
"& # # R j.i.s     J l.b.X.X.b.v.X.X.b.v.X.X.b.B.v.4.H + & 5 5 5 ",
"& % & I <.:.y     J l.B.b.b.B.B.b.b.B.B.v.b.B.B.v.#.H + & 5 5 5 ",
"1 & 5 z $.B u $ . q 4.v.M.M.v.l.l.z.M.B.B.B.B.m.8...& + & 5 5 5 ",
"& % 5 s u p b k - @ q ^ s.s.^ J L ^ s.v.c.v.c.s.^ 2 + + & 5 5 5 ",
"2 2 5 & + ; x k -     4 } O.T h q ~ 6.x.x.f.6.X.7 + + + & & 5 5 ",
"& 5 s & . . e O .     @ 4 T O.#.#.6.f.k.j.<.Q 8 8 = @   . # 1 5 ",
"5 S s & . O t t e < j q = q ..7.h.h.7.#.9.O.G * = 8 w J h 7 2 1 ",
"& 2 5 % . t $.&.Z ` i.5.T 3 0 / l.h.^ H Y Y 8 , * H 4.g.6...7 @ ",
"& & 5 & . i ;.>.&.+.n.z./ w c X.l.h.^ h 3 3 8 , . Y l.B.c.#.q   ",
"5 2 5 & . i ;.&.a E k.b./ Q 9.h.v.h.7...q * 3 3 @ J l.B.v.#.h   ",
"s S 5 & . t $.N e h <.9.Q Q 8.j.v.h.7...q * 3 , @ q 4.f.a.+.4   ",
"5 5 5 & . O e e o @ 8 G w w J } l.l.^ q , 8 8 , X * h E ` ) y   ",
"5 5 5 & . o ; $ o     $ g g O Y l.l.J - g v v g > . . $ l l $   ",
"5 5 5 & + % x p $     e Z Z < J l.l.Y e Z =.=.( g = X o - ; o   ",
"5 5 & & + r ( N <   X r %.%.u j 5.7.j u *.,.,.*.c , * X X     o ",
"5 5 5 & + i =.$.t . = 9 c c 9 9 Y Y 8 9 c v M v w 8 , , X X % : ",
"P K H & + i -.$.u X , 8 8 8 8 , > - , 8 8 8 8 w 8 w 8 , @ # D P ",
"3.1.K & + t *.N e @ , w 8 3 = > k l > = 8 8 8 8 8 w 8 , @ 6 o.9.",
"u.w.[ D # y m z > # , 8 8 3 # e n n > * 3 8 8 8 8 0 8 0 6 U q.u.",
"u.y.q.o.S s f d 2 & 1 3 2 : % > d d : % > 2 4 2 3 2 3 G o.0.y.u.",
"u.u.u.9.P 5 1 1 5 2 1 1 : 1 & : & 1 1 : & & : & & : : ! 0.u.u.u."
};
