/* XPM */
static char *player_R2[] = {
/* columns rows colors chars-per-pixel */
"32 32 251 2 ",
"   c #2E1A28",
".  c #372134",
"X  c #3B2338",
"o  c #3D253B",
"O  c #361F32",
"+  c #2A1721",
"@  c #473E47",
"#  c #8B95A1",
"$  c #71747F",
"%  c #3E333B",
"&  c #2D1D25",
"*  c #2F1A22",
"=  c #392123",
"-  c #613E38",
";  c #442934",
":  c #492D3A",
">  c #3C2435",
",  c #3C2434",
"<  c #3C243A",
"1  c #372233",
"2  c #30282B",
"3  c #2C1D25",
"4  c #331E2E",
"5  c #3B222F",
"6  c #452729",
"7  c #7D4838",
"8  c #554D56",
"9  c #81828E",
"0  c #99A4B1",
"q  c #A0ACB9",
"w  c #959AA7",
"e  c #9194A1",
"r  c #949BA8",
"t  c #8E97A3",
"y  c #5E5C66",
"u  c #59535C",
"i  c #8C94A0",
"p  c #8E929E",
"a  c #7D7C88",
"s  c #625C66",
"d  c #3C3138",
"f  c #352F32",
"g  c #30292C",
"h  c #2B2024",
"j  c #2D1E26",
"k  c #302230",
"l  c #3A374A",
"z  c #3F4259",
"x  c #414259",
"c  c #3E3A4E",
"v  c #3D2C42",
"b  c #423E55",
"n  c #4F6E8C",
"m  c #5688AB",
"M  c #62ABD4",
"N  c #5889AD",
"B  c #517091",
"V  c #737581",
"C  c #423742",
"Z  c #3A2737",
"A  c #321C2C",
"S  c #291620",
"D  c #26131B",
"F  c #382223",
"G  c #604137",
"H  c #413432",
"J  c #2E1E22",
"K  c #2C2226",
"L  c #333031",
"P  c #353435",
"I  c #393538",
"U  c #3D333A",
"Y  c #65626B",
"T  c #464548",
"R  c #49464B",
"E  c #433940",
"W  c #76737E",
"Q  c #787882",
"!  c #90919E",
"~  c #898995",
"^  c #7B7985",
"/  c #534A53",
"(  c #5B5660",
")  c #919DAA",
"_  c #9FADBA",
"`  c #838591",
"'  c #727781",
"]  c #413A41",
"[  c #373235",
"{  c #3C3332",
"}  c #4F3F39",
"|  c #80503D",
" . c #462D2A",
".. c #432625",
"X. c #7F4E3C",
"o. c #4C3833",
"O. c #321F22",
"+. c #433C43",
"@. c #767D87",
"#. c #4C4E51",
"$. c #3B383B",
"%. c #3F353D",
"&. c #747B85",
"*. c #48474C",
"=. c #515257",
"-. c #8E9CA7",
";. c #8C97A3",
":. c #4A454C",
">. c #30242A",
",. c #2B1A22",
"<. c #392A32",
"1. c #615964",
"2. c #67616C",
"3. c #4D424B",
"4. c #5E3B33",
"5. c #3B2328",
"6. c #38202F",
"7. c #372032",
"8. c #372131",
"9. c #452A32",
"0. c #633F39",
"q. c #3D2429",
"w. c #412625",
"e. c #7A4C3B",
"r. c #8E543E",
"t. c #482826",
"y. c #291C21",
"u. c #322E2F",
"i. c #373737",
"p. c #373237",
"a. c #362531",
"s. c #372030",
"d. c #3B2539",
"f. c #3E253C",
"g. c #3B2438",
"h. c #361F30",
"j. c #361F33",
"k. c #331C2B",
"l. c #321C2A",
"z. c #28161F",
"x. c #4B3B43",
"c. c #54363B",
"v. c #4D2E34",
"b. c #804B3E",
"n. c #996B5D",
"m. c #8F878A",
"M. c #8E8689",
"N. c #956758",
"B. c #814B39",
"V. c #54312B",
"C. c #664035",
"Z. c #5D3A32",
"A. c #372022",
"S. c #2B171C",
"D. c #2E181D",
"F. c #412423",
"G. c #7B4736",
"H. c #985840",
"J. c #4B2A26",
"K. c #3F2C44",
"L. c #433E57",
"P. c #454561",
"I. c #5889AE",
"U. c #527091",
"Y. c #5789AD",
"T. c #44455F",
"R. c #443E57",
"E. c #5E372E",
"W. c #9E5D42",
"Q. c #AB6648",
"!. c #83523E",
"~. c #795D56",
"^. c #71524A",
"/. c #73676C",
"(. c #8D878E",
"). c #8B909B",
"_. c #57484C",
"`. c #55433C",
"'. c #925D46",
"]. c #7E5543",
"[. c #4E413B",
"{. c #4B3F3A",
"}. c #745141",
"|. c #734F3F",
" X c #714A3C",
".X c #412B2A",
"XX c #483935",
"oX c #48393F",
"OX c #4A2F2E",
"+X c #3F2F35",
"@X c #3E282A",
"#X c #3E253A",
"$X c #3C2439",
"%X c #3D253C",
"&X c #45455F",
"*X c #5788AC",
"=X c #4D6D89",
"-X c #3E394F",
";X c #371F33",
":X c #2A1722",
">X c #2E1A27",
",X c #362132",
"<X c #351F2E",
"1X c #321D2B",
"2X c #372531",
"3X c #423741",
"4X c #727581",
"5X c #413640",
"6X c #41353E",
"7X c #7A7A86",
"8X c #858C98",
"9X c #453B44",
"0X c #605F69",
"qX c #93A0AD",
"wX c #A4B6C3",
"eX c #A5B5C2",
"rX c #979DAA",
"tX c #75717D",
"yX c #3F323B",
"uX c #25131A",
"iX c #35202F",
"pX c #352030",
"aX c #342531",
"sX c #342530",
"dX c #362331",
"fX c #342B31",
"gX c #2E1E26",
"hX c #332B31",
"jX c #35232F",
"kX c #331F2C",
"lX c #37212D",
"zX c #432930",
"xX c #613E37",
"cX c #3C2428",
"vX c #3C2433",
"bX c #382434",
"nX c #3D2E38",
"mX c #625A65",
"MX c #7C4938",
"NX c #452B29",
"BX c #382D2D",
"VX c #46282B",
"CX c #39222C",
"ZX c #331C2D",
"AX c #361F31",
"SX c #3D243A",
"DX c #382134",
"FX c #382133",
"GX c #2F272A",
"HX c #28191F",
"JX c #26151B",
/* pixels */
"M I.P.o o o o O + uXuXuXuXuXuXuXuXuXuX+ O o o o o o o o f.T.m M ",
"Y.U.L.o o X . Z C 9X6XyXyXyXyXyXyXyXyXnXbX. X o o o o o f.b n m ",
"T.R.K.o o .   C V 8X7XtXtXtXtXtXtXtXtXmXnX  . o o o o o f.v c x ",
"d.f.o X . Z C y t 0 9 tXtXtXtXtXtXtXtX1.<.+ O o o o o o f.d.s.s.",
"d.f.o .   C V t r 9 8 yXyXyXyXyXyXyXyX<.,.+ O o o o o o f.d.s.s.",
"d.f.o O + 9X8Xq w tXyX& % % & & % % & & % C Z . X X . O ;X,X<Xs.",
"d.f.o O + 6X7Xw e tXyX% $ $ % % $ $ % % $ V C   . .   + :X>X1Xs.",
"d.f.o O + yXtXe w 7X6X@ # # @ @ # # @ @ # # @ + O O + & % 3X2Xl.",
"g.f.o O + yXtXw q 8X9X@ # # @ @ # # @ @ # # @ + O O + % $ 4X5Xz.",
"$X%Xo O + yXtXrXeXqX0X0XqXqX0X0XqXqX0X0XqX# @ + O O + @ # # @ uX",
"#Xo o O + yXtXrXeXwXqXqXwXwXqXqXwXwXqXqXwX# @ + O O + @ # # @ uX",
"o o o O + <.1.9 0 eXeXeXeX_ ) # # ) _ _ ) V C   . O + oXM.m.x.z.",
"o o o O + ,.<.8 9 rXrXrXrX` ( @ @ ( ` ` ( C Z . X O + OXN.n.c.l.",
"o X . A S JXHXd s ^ ~ ! ! ^ / yXyX3.2.1.<.S A . X > q.V.B.b.v.pX",
"o .   S D HXGXf d / ^ ! ! ~ ^ tXtX2.3.<.,.D S   . : 0.C.V.VXCXiX",
"O bXnX6X9X] [ g h U Y Q W a p p a 1.<.& % % & S A ; - Z.A.+ ZXDX",
"+ nXmX7X8X' ] h g I T R E u i i u <.,.% $ $ % D S * = A.S.+ AXSX",
"uXyXtXrXeX# @ y.u.P L f d u i t y %.>.:.;.# @ S.A.w.t.F.D.+ AXd.",
"uXyXtXrXeX# @ y.u.L K d s a p r t &.*.=.-.# @ A.Z.e.r.G.F.+ ZXiX",
"uX+X/.(.).$ % y.u.L K d s a p r t @.#.#.@.$ % A.Z.!.Q.H.J.+ k.iX",
"uX@X^.~._.% & y.u.P L f d u i t y +.$.$.+.% & S.A.E.W.H.J.+ h.g.",
"uXA.Z.Z.A.S.A..XXX[.`.o.O.@ # # @ O.o.o.O.D S S D F.G.G.F.+ j.f.",
"uXS.A.A.S.A.Z. X|.].'.X...@ # # @ ..X.X...S A A S D.F.F.D.+ O o ",
"+ + + S D F G }.}.].'.X...% $ ' ]  .| X...+ O O + S.A.A.S.+ O o ",
"O O O A S J H {.{.[.`.o.O.& % ] [ { } o.O.+ O O + A.Z.Z.A.+ O o ",
"o X . 4 3 K L i.i.i.i.u.y.D.F.NXBXL P L K 3 4 5 6 V.C.4.5.  . o ",
"o .   3 2 L P i.i.i.i.u.y.F.G.MXNXK L P L 2 3 6 7 B.V.5.6.. X o ",
"o O + y.u.i.i.i.i.i.i.u.y.t.r.r.t.y.u.i.i.u.y.t.r.r.t.+ O o o o ",
"%X;X:Xy.u.i.i.i.i.i.i.u.y.w.e.e.w.y.u.i.i.u.y.w.e.e.w.+ O o o o ",
"&X-Xk j hXp.p.p.p.p.p.hXgXcXxXxXcXgXhXp.p.fXgXq.0.0.q.  . K.L.P.",
"*X=Xl kXjXa.a.a.a.a.a.jXkXlXzXzXlXkXjXaXsXdX1 , 9.9.vX. X L.B N ",
"M m z s.s.s.s.s.s.s.s.s.s.s.7.7.s.s.s.pXiXFX< < 8.8.$X%Xo P.N M "
};
