/* XPM */
static char *gburtin1[] = {
/* columns rows colors chars-per-pixel */
"32 32 51 1 ",
"  c #1E0D14",
". c #210F15",
"X c #231117",
"o c #25131B",
"O c #29161E",
"+ c #2B181F",
"@ c #271520",
"# c #2A1621",
"$ c #2C1921",
"% c #301D27",
"& c #331D2D",
"* c #351E31",
"= c #36222E",
"- c #38232F",
"; c #372134",
": c #3B2535",
"> c #3E2936",
", c #3D263B",
"< c #3E2939",
"1 c #492D37",
"2 c #40273D",
"3 c #422B3C",
"4 c #463037",
"5 c #4A3037",
"6 c #473038",
"7 c #4D323D",
"8 c #51353F",
"9 c #442B42",
"0 c #482F40",
"q c #472B49",
"w c #492C49",
"e c #473040",
"r c #4C3341",
"t c #4E3049",
"y c #533640",
"u c #553942",
"i c #593B42",
"p c #523449",
"a c #553456",
"s c #5C3A54",
"d c #58365A",
"f c #674547",
"g c #684647",
"h c #6D4A47",
"j c #654348",
"k c #6A464A",
"l c #6B4849",
"z c #714C47",
"x c #734D4C",
"c c #76514B",
"v c #7B5350",
/* pixels */
"wwwqwqqqqwaawqqwadaaaaaddawqqwwt",
"ttppppppppssppppsssssssssspppptw",
"wpjgggffffkkkfflkkxkkkkkkkkfgjpw",
"wpgcxxzzxzzzzzzzxzzzzzhxzzzzzlpw",
"wpgzzhhhkllhhhlxhhxllzlxhgxxzftq",
"wpkvzzxxxxxxxxxxlxxxxxxxxxxxcxpq",
"wpxvvvvvvvvvcvvvcvvvcvvvcvvvvxpw",
"qpkvxxxxvxxxxxxxxxxxxxxxxxxxcxpq",
",9yiiiiiiiiiiiiiiiiiiiiiiiiiji2*",
";,ru8888yryy88y7y8y8yy88ry888792",
",28u8ii88uyy8iyyyyy8yyyyyyyy8ytq",
",27ui88888yy8i88yyyy8y88yyyyyytq",
",9eyui8ii8yyi8i8iyi888iiiyiu8092",
"**29r8788u88u8r77yyy7888y7yr029*",
"@@*9,,,22,2222:,,,,2,2,,,,2,,,2*",
"@@:92,,,,,;,,22,22,,,,2,2,,,,29*",
"**30y8yye9,,e<ru7888ryr8yr8y0922",
"99ruu8i8re,,euuu8ii8iii8i888y0**",
"*quy8iuuue<,7uuuyy88yyyy888ii1%#",
"&,8i88uuuy<<uuuuiiiiiiiiiiiii7$@",
"o$3yuuiiue92euuuiiiiiiiiiiyuy7,&",
"@$<0yr754,;;<4e477777711178yw9,*",
"*,222;$oooooooooOOOOOOOoO$,99,##",
"*,,,9;$ooo+oo+o@oX..ooooX$;,;&##",
"@#:9er64444666ee<-oo-<<<:26<$#;;",
"oo<ruuuuuuuuuuuuy<o+3e3<973=oO;;",
".#6uuuuuuuuuuuuuu4+o33$$34%OXo#@",
" $5uurrrrrreuueuu6+O--$$:-O XoXX",
"X+<eeeeeeee7eeeet<$Xo$<:=@oXoooX",
"X+:<>>:>::>>::>:<-OXX@>>O Xooooo",
"X@++++++++++$+++$oooXX+$XXoooooX",
"oXX X    X  X  XXXXooXXXXoXoooXO"
};
