/* XPM */
static char *gburtin0[] = {
/* columns rows colors chars-per-pixel */
"32 32 18 1 ",
"  c #351F2E",
". c #361E31",
"X c #361F31",
"o c #35202F",
"O c #352030",
"+ c #372030",
"@ c #382132",
"# c #3B2437",
"$ c #3B2438",
"% c #3B2439",
"& c #3B253A",
"* c #3C2539",
"= c #3D253D",
"- c #3E253C",
"; c #3E263F",
": c #40263E",
"> c #412740",
", c #412940",
/* pixels */
"++++++++++++++++++++X@*: X**;*;:",
"++o+++++..++ @oo+++o X:$XX*$$::$",
"$*$###*******#@+##*#*$**#**;$;#$",
"$;;;;;;*#:;*:*X+#;;;:#;;:*;*:$;*",
"*:#;*;#;*;#:;*++#;:**;:*$;#:::$$",
"$*:*;#:#:#;#*#+X$-$;:$#;;*$$$:*$",
"$*:*;***$;$;;#  $;$$*;#*$;$:;$:$",
"$;#;#:#;;$;$-#X.$;$;;$:*;$::$;$;",
"*-$;*;$;$:--**;:*$$::*$:#:;$;:$:",
"$;;$*$;$:*$-*$$:*#:$$$#:$:$;$::$",
"#:$:-$::$;$*-$::;$::;$:$:#$$--$$",
"$;**---$;$;*---$$;$;$;:#:$*:$-#:",
":$$;$:$;$:$;$:$;:::$$;$;:#*:$$..",
"$:;$$:;$$:;$$:;$:$$$;*;$*;*#*: @",
":$$;:$$::$$;:$$:;$**#$$:;##;*;*;",
"$:$*:$**$:**:$**$;$::$::#;;$;***",
"$#-:*$$:;$$#$;*$:---:$;$;$;$;$X@",
"*--*:#:$$;*-;$:#:-$$**$;::$;-$X ",
";$$:$;::;#--$;$:;$**$$$:$--*:#X@",
"$;;$;$#;#;:*:$:$$;$;$::::-#$;#+X",
";::$;$;#::$:;#;::*;$::;$#;*:*# @",
"$#$:*$$;:$$#$;#:-:$;:$$;:#;#;$oX",
"XX$:-#*:$;*:;$---$*$$$*$**#;;#@ ",
"X #:--:$;$;$*$#--$*;:$*;#;;#;*@ ",
"X+#--$;$:$:-#$*::$::**;::*$;$# .",
"++#;$;$;:$--;*:##:$#:#$*#;$#::X ",
"++#***;#$;$;$;#;$*#;$;*;;*::;*++",
"++#:;:#;;$;$;$;#$;;$;$:##:$:*#++",
"@.**##;#:$$:--:$;$;#;$:;#;#;;*@ ",
"o.*;:;#;*;**$--:$;::$;**;#;;:$X@",
"+@;:,,:>,>>>::>>>>::>>>,::;::#@@",
"@+##...@......XXXXX +...+.@@##X@"
};
