/* XPM */
static char *wall_B[] = {
/* columns rows colors chars-per-pixel */
"32 32 236 2 ",
"   c #462B41",
".  c #44293F",
"X  c #442A40",
"o  c #432940",
"O  c #422640",
"+  c #402640",
"@  c #3F2640",
"#  c #3F2540",
"$  c #452A40",
"%  c #50314D",
"&  c #51314E",
"*  c #4E304F",
"=  c #50324E",
"-  c #57384F",
";  c #5A3951",
":  c #593851",
">  c #51314F",
",  c #51334F",
"<  c #4C2F4B",
"1  c #4B2E4B",
"2  c #462A49",
"3  c #51324C",
"4  c #6B464E",
"5  c #764F50",
"6  c #754E50",
"7  c #734D50",
"8  c #754F50",
"9  c #775052",
"0  c #6B474F",
"q  c #4E2F4B",
"w  c #492C49",
"e  c #4B2F48",
"r  c #4F3249",
"t  c #5D3C4C",
"y  c #76504F",
"u  c #805850",
"i  c #7D554F",
"p  c #7C544E",
"a  c #7E574F",
"s  c #744E4E",
"d  c #5D3B4B",
"f  c #4F324A",
"g  c #4B2E49",
"h  c #482B49",
"j  c #53344A",
"k  c #69444C",
"l  c #7C5350",
"z  c #7A534F",
"x  c #734E4A",
"c  c #704B49",
"v  c #714C4A",
"b  c #714C49",
"n  c #734E4B",
"m  c #6A474F",
"M  c #452B48",
"N  c #55354B",
"B  c #744F4F",
"V  c #754E4C",
"C  c #6F4A48",
"Z  c #6C4947",
"A  c #6D4947",
"S  c #724D48",
"D  c #7C554D",
"F  c #754D4F",
"G  c #54364A",
"H  c #452B49",
"J  c #452A48",
"K  c #54344B",
"L  c #7E554F",
"P  c #734F4B",
"I  c #6E4A48",
"U  c #6D4A48",
"Y  c #6F4B47",
"T  c #754F49",
"R  c #6B484A",
"E  c #523449",
"W  c #452A49",
"Q  c #53354A",
"!  c #704B4D",
"~  c #7A534D",
"^  c #6F4C48",
"/  c #724E48",
"(  c #684447",
")  c #513249",
"_  c #472B49",
"`  c #523349",
"'  c #6A4748",
"]  c #694548",
"[  c #513349",
"{  c #6B474A",
"}  c #744F48",
"|  c #714B47",
" . c #704A48",
".. c #704C48",
"X. c #734E48",
"o. c #694748",
"O. c #513449",
"+. c #734E4D",
"@. c #7F564D",
"#. c #775048",
"$. c #6B4848",
"%. c #523549",
"&. c #6D484F",
"*. c #754E4F",
"=. c #684647",
"-. c #694648",
";. c #6C4848",
":. c #644249",
">. c #482C49",
",. c #4C2F4A",
"<. c #4F304B",
"1. c #56374D",
"2. c #57374B",
"3. c #53344C",
"4. c #52354A",
"5. c #54354A",
"6. c #55364A",
"7. c #54344A",
"8. c #4E314A",
"9. c #4A2E47",
"0. c #482B47",
"q. c #472B45",
"w. c #442A47",
"e. c #462A47",
"r. c #462A48",
"t. c #462B48",
"y. c #472B48",
"u. c #482C47",
"i. c #492E47",
"p. c #41283F",
"a. c #3E263D",
"s. c #3F263D",
"d. c #3F2740",
"f. c #422741",
"g. c #412740",
"h. c #41263F",
"j. c #40263D",
"k. c #3A2439",
"l. c #3D253B",
"z. c #3C243A",
"x. c #372235",
"c. c #372034",
"v. c #382034",
"b. c #372033",
"n. c #372035",
"m. c #3C253B",
"M. c #382336",
"N. c #412640",
"B. c #412940",
"V. c #3B2438",
"C. c #2D1A25",
"Z. c #26141C",
"A. c #27151D",
"S. c #29151F",
"D. c #27151E",
"F. c #2C1724",
"G. c #392336",
"H. c #3F283F",
"J. c #3B243A",
"K. c #351E2F",
"L. c #27141B",
"P. c #200F14",
"I. c #211016",
"U. c #211216",
"Y. c #211116",
"T. c #210F15",
"R. c #231216",
"E. c #211015",
"W. c #200F11",
"Q. c #26141E",
"!. c #382235",
"~. c #3C2439",
"^. c #3C243B",
"/. c #2F1A27",
"(. c #26141B",
"). c #241319",
"_. c #241217",
"`. c #251318",
"'. c #25131A",
"]. c #231318",
"[. c #221016",
"{. c #28151F",
"}. c #372032",
"|. c #231118",
" X c #2A1620",
".X c #3C2339",
"XX c #422943",
"oX c #28151E",
"OX c #200F12",
"+X c #221117",
"@X c #2A1820",
"#X c #3E273D",
"$X c #221216",
"%X c #331E2E",
"&X c #3E253C",
"*X c #211115",
"=X c #241216",
"-X c #241219",
";X c #3D263C",
":X c #221116",
">X c #241218",
",X c #26131A",
"<X c #2C1925",
"1X c #231217",
"2X c #2A1822",
"3X c #2A1722",
"4X c #291720",
"5X c #2A1721",
"6X c #2A151F",
"7X c #24131A",
"8X c #2D1A26",
"9X c #382134",
"0X c #382132",
"qX c #2D1926",
"wX c #291520",
"eX c #2C1923",
"rX c #27151C",
"tX c #372233",
"yX c #3D243A",
"uX c #3A2236",
"iX c #2D1924",
"pX c #2D1724",
"aX c #372234",
"sX c #382236",
"dX c #361F32",
"fX c #3E253B",
"gX c #392236",
"hX c #2A1720",
"jX c #241318",
"kX c #2E1A27",
"lX c #26131B",
"zX c #25131B",
"xX c #200F15",
"cX c #2B1821",
"vX c #2A1621",
"bX c white",
/* pixels */
"  . X o O + @ # @ @ @ @ @ @ @ @ @ @ @ @ @ @ @ @ # @ + O o X $ $ ",
"% & * = - ; : : : : : : : : : : : : : : : : : : : : ; - = * > , ",
"< 1 2 3 4 5 6 7 7 7 7 7 7 7 7 7 7 7 7 7 7 7 7 7 7 8 9 0 3 2 1 q ",
"w e r t y u i p p p p p p p p p p p p p p p p p p p a s d f e g ",
"h j k y l z x c v v v v v v v v v v v v v v v v v v b n s m j h ",
"M N B u z V C Z A A A A A A A A A A A A A A A A A A A S D F G H ",
"J K 7 L P C A I I I I I I I I I I I I I I I I I I I U Y T R E H ",
"W Q ! ~ ^ A I I I I I I I I I I I I I I I I I I I I I I / ( ) _ ",
"_ ` ' / Y U I I I I I I I I I I I I I I I I I I I I I I / ] [ _ ",
"_ E { } | I I  . . . . . . . . . . . . . . . . . . . ...X.o.O._ ",
"H G +.@.T S / / / / / / / / / / / / / / / / / / / / / X.#.$.%.h ",
"h j &.*.R =.-.-.-.-.-.-.-.-.-.-.-.-.-.-.-.-.-.-.-.-.-.o.;.:.[ >.",
",.<.1.2.3.4.5.5.5.5.5.5.5.5.5.5.5.5.5.5.5.5.5.5.5.5.5.5.6.7.8.,.",
"9.0.q.w.e.r.r.r.r.r.r.r.r.r.r.r.r.r.r.r.r.r.r.r.r.r.r.r.t.y.u.i.",
"p.a.a.s.d.f.f.f.f.f.f.f.f.f.f.f.f.f.f.f.f.f.f.f.f.f.f.f.f.g.h.j.",
"k.l.l.z.x.c.v.v.c.c.c.c.c.c.c.c.c.c.b.b.c.c.c.c.c.c.v.c.c.n.k.m.",
"M.N.B.V.C.Z.A.S.S.S.S.S.S.S.S.S.S.D.Z.Z.D.S.S.S.S.S.S.A.Z.F.M.a.",
"G.H.J.K.L.P.I.U.Y.Y.Y.Y.Y.Y.U.U.T.R.L.L.R.T.U.U.Y.U.U.E.W.Q.!.p.",
"~.^./.(.)._.`.'.'.'.'.'.'.'.'.].[.{.}.}.{.[.].'.'.'.'.|.I. X.XXX",
"z.~.oXOX+X'.'.'.'.'.'.'.'.'.'.`.I.@X#X#X@XI.|.'.'.'.'.].$X{.%XJ.",
"&X&X@XT.[.$X*X*X*X*X*X*XY.=X-X_.P.S.;X;XS.W.E.Y.*X*X:X$X>X>X,X<X",
"}.}.D.1X{.2X3X4X4X4X4X5X2X6X7X7XD.8X9X0XqXS.wX4X4X5X2X6X7X1X(.eX",
"D.rX1X{.tX&XyXz.z.z.z.yX&X}.D.oX!.uXiXpXtXl.yXz.z.yX&X}.D.D.tXaX",
"oXD.1X{.tX&XyXz.z.z.z.yX&X}.D.oXsX!.(.(.dXfXyXz.z.yX&X}.D.oX!.gX",
"sXsX6X_.{.2X5X4X4X4X4X5X2X6X7X7XhX X7XjX{.2X5X4X4X5X2X6X7X7XoXkX",
"uXuX5XU.[.$X*X*X*X*X*X*XY.=X-X-X_._.-X-X=XY.*X*X*X*XY.=X-X_.T.D.",
"3X3XlX-X'.'.'.'.'.'.'.'.'.'.'.'.'.'.'.'.'.'.'.'.'.'.'.'.'.'._.zX",
"_._.-X'.'.'.'.'.'.'.'.'.'.'.'.'.'.'.'.'.'.'.'.'.'.'.'.'.'.'.'.-X",
"'.'.'.'.'.'.'.'.'.'.'.'.'.'.'.'.'.'.'.'.'.'.'.'.'.'.'.'.'.'.'.'.",
"].].].].].].].].].].].].].].].].].].].].].].].].].].].].].].].].",
"xXxXxXxXxXxXxXxXxXxXxXxXxXxXxXxXxXxXxXxXxXxXxXxXxXxXxXxXxXxXxXxX",
"cXcXvXvXvXvXvXvXvXvXvXvXvXvXvXvXvXvXvXvXvXvXvXvXvXvXvXvXvXvXcXcX"
};
