/* XPM */
static char *wall_L1[] = {
/* columns rows colors chars-per-pixel */
"32 32 180 2 ",
"   c #25131A",
".  c #221017",
"X  c #1C0E11",
"o  c #26141D",
"O  c #40263F",
"+  c #4C2F4E",
"@  c #482D4B",
"#  c #472B49",
"$  c #472B48",
"%  c #482C49",
"&  c #4B2E49",
"*  c #4C2F49",
"=  c #241219",
"-  c #251219",
";  c #26131D",
":  c #331D2A",
">  c #4E3044",
",  c #58374E",
"<  c #52344A",
"1  c #523448",
"2  c #53354A",
"3  c #54354B",
"4  c #54344B",
"5  c #553549",
"6  c #4D3048",
"7  c #251318",
"8  c #211216",
"9  c #291720",
"0  c #3A2237",
"q  c #503247",
"w  c #6B474E",
"e  c #744E50",
"r  c #6B474A",
"t  c #694548",
"y  c #6F4A4D",
"u  c #724D50",
"i  c #714C4F",
"p  c #734D4F",
"a  c #754E4F",
"s  c #6A464C",
"d  c #53344A",
"f  c #482B49",
"g  c #231318",
"h  c #210F15",
"j  c #2C1724",
"k  c #442944",
"l  c #5D3B54",
"z  c #765051",
"x  c #7F564E",
"c  c #744F48",
"v  c #744E48",
"b  c #7A534D",
"n  c #7D5450",
"m  c #7C544E",
"M  c #7D554F",
"N  c #835950",
"B  c #55354B",
"V  c #452B48",
"C  c #200F14",
"Z  c #2B1623",
"A  c #422842",
"S  c #573850",
"D  c #6D494C",
"F  c #754F49",
"G  c #714B47",
"H  c #6F4B47",
"J  c #704C49",
"K  c #714C4A",
"L  c #704B49",
"P  c #754E4A",
"I  c #452A48",
"U  c #2A1621",
"Y  c #56364E",
"T  c #694649",
"R  c #724D47",
"E  c #6E4A48",
"W  c #6D4A48",
"Q  c #6D4948",
"!  c #6D4947",
"~  c #6C4947",
"^  c #724C4F",
"/  c #200F15",
"(  c #56364F",
")  c #69474A",
"_  c #724E48",
"`  c #452B49",
"'  c #704A48",
"]  c #462A48",
"[  c #55354C",
"{  c #442946",
"}  c #55374C",
"|  c #432745",
" . c #734C4F",
".. c #432845",
"X. c #56374F",
"o. c #734E48",
"O. c #704C48",
"+. c #734E4A",
"@. c #7D564F",
"#. c #442947",
"$. c #57374F",
"%. c #6D484A",
"&. c #775048",
"*. c #724C47",
"=. c #76504A",
"-. c #815850",
";. c #775050",
":. c #56384C",
">. c #442A48",
",. c #2B1621",
"<. c #432942",
"1. c #64434A",
"2. c #6B4847",
"3. c #694748",
"4. c #684447",
"5. c #724D4D",
"6. c #6C484F",
"7. c #56374E",
"8. c #452A45",
"9. c #2B1821",
"0. c #442942",
"q. c #51324F",
"w. c #53334B",
"e. c #523549",
"r. c #513449",
"t. c #513349",
"y. c #513249",
"u. c #523449",
"i. c #54364A",
"p. c #55364C",
"a. c #50334D",
"s. c #422940",
"d. c #462A42",
"f. c #50314E",
"g. c #482E4B",
"h. c #4D304D",
"j. c #452940",
"k. c #50304E",
"l. c #472A49",
"z. c #4D2F4B",
"x. c #492C45",
"c. c #523450",
"v. c #523348",
"b. c #4F314C",
"n. c #482C48",
"m. c #58384F",
"M. c #6D484F",
"N. c #734D4D",
"B. c #714C4D",
"V. c #734D50",
"C. c #744E4F",
"Z. c #6C474E",
"A. c #422642",
"S. c #593A50",
"D. c #754F4F",
"F. c #7F554D",
"G. c #765050",
"H. c #57384D",
"J. c #422844",
"K. c #57384E",
"L. c #6D494B",
"P. c #58384E",
"I. c #3E253F",
"U. c #734C50",
"Y. c #40253F",
"T. c #56374D",
"R. c #442A45",
"E. c #442A47",
"W. c #402640",
"Q. c #593850",
"!. c #593851",
"~. c #3F253F",
"^. c #754E50",
"/. c #3F2540",
"(. c #5A3951",
"). c #3F2640",
"_. c #57384F",
"`. c #51344E",
"'. c #482B4B",
"]. c white",
/* pixels */
"                                  . X o O + @ # # $ $ $ # % & * ",
"                                = - ; : > , < 1 2 3 4 4 5 < 6 & ",
"                              7 8 9 0 q w e r t y u i p a s d f ",
"                              g h j k l z x c v b n m M N a B V ",
"                              g C Z A S D F G H J K L P M p 4 I ",
"                              g C U A Y T R E W Q ! ~ L m ^ 4 I ",
"                              g / U A ( ) _ E E E E ! K m p 4 ` ",
"                              g / U A ( ) _ ' E E E ! K m p 3 ] ",
"                              g / U A ( ) _ ' E E E ! K m p [ { ",
"                              g / U A ( ) _ ' E E E ! K m p } | ",
"                              g / U A ( ) _ ' E E E ! K m  .} ..",
"                              g / U A X.r o.O.' ' E ! +.@.p } #.",
"                              g / U A $.%.&.o._ _ _ *.=.-.;.:.>.",
"                              g / ,.<.X.1.2.3.t t t 4.r 5.6.7.8.",
"                              g / 9.0.q.w.e.r.r.r.t.y.u.i.p.a.s.",
"                              g / 9.d.f.g.# # # # # # ` ` f h.j.",
"                              g / 9.d.k.@ ` # # l.I I I V f z.x.",
"                              g / 9.<.c.p.i.1 v.2 4 4 4 B d b.n.",
"                              g / U A m.M.N.r 3.B.V. .p C.Z.3 $ ",
"                              g / U A.S.D.F.c v b n m M N G.H.J.",
"                              g / U A K.L.F G H J K L P M e P.I.",
"                              g / U A ( T R E W Q ! ~ L m U.P.Y.",
"                              g / U A ( ) _ E E E E ! K m V.T.R.",
"                              g / U A ( ) _ ' E E E ! K m V.T.E.",
"                              g / U A ( ) _ ' E E E ! K m V.P.W.",
"                              g / U A ( ) _ E E E E ! K m V.Q.I.",
"                              g / U A ( T R E W Q ! ~ L m V.!.~.",
"                              g / U A K.L.F G H J K L P M ^.!./.",
"                              g / U A.S.D.F.c v b n m M N ;.(.).",
"                              g / U A m.M.N.r 3.B.V. . .C.Z._.W.",
"                              g / 9.<.c.p.i.1 v.2 4 4 4 B p.`.<.",
"                              g / 9.d.k.@ ` # # l.I I I V '.k.d."
};
