/* XPM */
static char *wall_T[] = {
/* columns rows colors chars-per-pixel */
"32 32 50 1 ",
"  c #1E0D13",
". c #210F15",
"X c #231116",
"o c #26141B",
"O c #2A171F",
"+ c #2A181E",
"@ c #271520",
"# c #2B1722",
"$ c #2C1821",
"% c #331D2D",
"& c #351E31",
"* c #372133",
"= c #3B2535",
"- c #3D2933",
"; c #3D263B",
": c #3E293A",
"> c #40273D",
", c #422B3D",
"< c #4A3037",
"1 c #463038",
"2 c #4D323D",
"3 c #51343F",
"4 c #452B42",
"5 c #482F40",
"6 c #472B49",
"7 c #492C49",
"8 c #473040",
"9 c #4C3340",
"0 c #4F3940",
"q c #4E3048",
"w c #533740",
"e c #543A42",
"r c #593B42",
"t c #523449",
"y c #553949",
"u c #553456",
"i c #593756",
"p c #5C3A54",
"a c #58365A",
"s c #674547",
"d c #684647",
"f c #6D4A47",
"g c #664448",
"h c #6B474A",
"j c #6C494A",
"k c #704C47",
"l c #734D4B",
"z c #755047",
"x c #76514C",
"c c #7B5350",
/* pixels */
"ii77uaauuuuuuuuaau7677777777777q",
"uutypppippppppppppttttqttqqttqq7",
"7ygfhhhhhhhhhhhhhhdsddsdssshfgt7",
"6tdkkkkkkkkkkkklkkklzkllklkzkft7",
"6thlkhffhhhffffhffhffffffhkhkdt7",
"6thlklkllllllllllllllhlhlkllxht7",
"7tccccccccccccccccccccccccccclt7",
"6tjcllllllxlllxllllxlllcllxxchq6",
";4errrrrrrrrrrrrrrrrrrrrrrrrg3,>",
"&;2e33e3339w33w9w3w393w39w33324&",
";>3wr3wwwwww3wwwww3wwwr3wwwwwwq6",
";>ww3r3wwwwwr3w3wwwwww33wwww3wq6",
";44ee3r33rrr33wrr3rrr33rrwwew5,4",
"&&,43392w322wwww393322ww9ww55,>&",
"@O&4>::;>>&>>>>4>>>;;;;>>>;;&44&",
"@@&4>:;>>>>>>;&&&;;;;;>=>>>>4&4&",
"&&,5ww9w3w3384;;449ww9ww3933444&",
"445ww3rww3re98;;2wwwwrrw3rr3w2;&",
"&6wrr3eee3eee9,>wr3rwwerrr3wr<$@",
"%>3r3wwrwrree9*=2wrrwrerw3rrr2$@",
"o#,werrrrrrry1$$,yrrrrrrrrrwt5>%",
"O#>593<<3<22:*oo&2<2<2<<<23q5,>&",
"&=>>,=$ooooo@o  oOooOoooo$&4,=@O",
"&;;;>=$ooooo+@+$OoooOoooo#&4>&#@",
"@$=,92111111111111111111<<99,::*",
"XO:9eeeeeyyeyeeyeeyyeeyeeee02:;*",
".O<e00ee00ee0ee0ee00ee0eee0ee1%X",
" #1y900009090000008000099090e1o ",
"X$,08888888888888888888288889:$ ",
"Xo*::--:---=:-----:--::=--:-:=#X",
"ooo#+#@@+#+#@o#+##@@+o+#@#o$$ooo",
"oXX..........X X .X ........XXXo"
};
