/* XPM */
static char *wall_L3[] = {
/* columns rows colors chars-per-pixel */
"32 32 193 2 ",
"   c #25131A",
".  c #231318",
"X  c #200F15",
"o  c #2B1821",
"O  c #462A42",
"+  c #50314E",
"@  c #482E4B",
"#  c #472B49",
"$  c #452A49",
"%  c #452A48",
"&  c #462B49",
"*  c #482C49",
"=  c #4C2F4A",
"-  c #4C2E48",
";  c #442942",
":  c #51324F",
">  c #523349",
",  c #533448",
"<  c #53354A",
"1  c #54344B",
"2  c #533449",
"3  c #513349",
"4  c #4D3049",
"5  c #2B1621",
"6  c #432942",
"7  c #55354F",
"8  c #634249",
"9  c #6C4848",
"0  c #714C4D",
"q  c #734D50",
"w  c #734C4F",
"e  c #724C4F",
"r  c #704B4C",
"t  c #6D494A",
"y  c #624047",
"u  c #4A2E49",
"i  c #2A1621",
"p  c #422842",
"a  c #58384E",
"s  c #6E4A4A",
"d  c #79534B",
"f  c #7B544E",
"g  c #7C5450",
"h  c #7C544D",
"j  c #7B554F",
"k  c #7F5651",
"l  c #7D564E",
"z  c #78524A",
"x  c #6A4747",
"c  c #523549",
"v  c #482B49",
"b  c #412642",
"n  c #58394F",
"m  c #744F4B",
"M  c #704B49",
"N  c #734E4A",
"B  c #79534F",
"V  c #7A5250",
"C  c #755049",
"Z  c #684447",
"A  c #513249",
"S  c #412641",
"D  c #593851",
"F  c #734F52",
"G  c #7C544F",
"H  c #704C49",
"J  c #6A4947",
"K  c #6B4947",
"L  c #6F4A48",
"P  c #754F4D",
"I  c #77504E",
"U  c #764F4B",
"Y  c #6A474A",
"T  c #523449",
"R  c #452B49",
"E  c #7D5450",
"W  c #714C4A",
"Q  c #6D4947",
"!  c #6E4A48",
"~  c #724D4B",
"^  c #7C534E",
"/  c #714C4F",
"(  c #7A534D",
")  c #6D4948",
"_  c #704C48",
"`  c #7B534D",
"'  c #412842",
"]  c #57384E",
"[  c #6B474B",
"{  c #744E49",
"}  c #6F4B47",
"|  c #6D4A48",
" . c #744F49",
".. c #6B474A",
"X. c #56364F",
"o. c #6B4749",
"O. c #724E47",
"+. c #704A48",
"@. c #724E48",
"#. c #694647",
"$. c #513449",
"%. c #432943",
"&. c #59384F",
"*. c #6D484A",
"=. c #755048",
"-. c #734E48",
";. c #6B4848",
":. c #210F15",
">. c #2A1722",
",. c #40273F",
"<. c #54354D",
"1. c #64444B",
"2. c #694748",
"3. c #694648",
"4. c #6D4848",
"5. c #644249",
"6. c #251318",
"7. c #211115",
"8. c #2A1721",
"9. c #3B2239",
"0. c #492D46",
"q. c #51344A",
"w. c #56364B",
"e. c #54354A",
"r. c #55364A",
"t. c #54344A",
"y. c #4E314A",
"u. c #241216",
"i. c #27151E",
"p. c #321D2D",
"a. c #3B233A",
"s. c #452B46",
"d. c #482D4B",
"f. c #462A48",
"g. c #462B48",
"h. c #472B48",
"j. c #4A2D48",
"k. c #4A2E48",
"l. c #241219",
"z. c #241318",
"x. c #23111A",
"c. c #2D1823",
"v. c #3C233A",
"b. c #432A44",
"n. c #422943",
"m. c #422741",
"M. c #422941",
"N. c #412940",
"B. c #26141B",
"V. c #2A1723",
"C. c #341E30",
"Z. c #382235",
"A. c #382234",
"S. c #382034",
"D. c #372034",
"F. c #372035",
"G. c #28151F",
"H. c #371F32",
"J. c #372033",
"K. c #2D1924",
"L. c #27151D",
"P. c #27151F",
"I. c #29151F",
"U. c #26141C",
"Y. c #2C1724",
"T. c #211116",
"R. c #2A1822",
"E. c #3E253B",
"W. c #3D253B",
"Q. c #200F12",
"!. c #211015",
"~. c #211216",
"^. c #200F11",
"/. c #3D243A",
"(. c #291520",
"). c #231118",
"_. c #211215",
"`. c #3E253C",
"'. c #2A151F",
"]. c #372032",
"[. c #24131A",
"{. c #241217",
"}. c #2A1720",
"|. c #3E273D",
" X c #26131B",
".X c #372134",
"XX c #251319",
"oX c #25131B",
"OX c #2A1620",
"+X c #221117",
"@X c #221016",
"#X c #200F14",
"$X c white",
/* pixels */
"                              . X o O + @ # $ % % % % $ & * = - ",
"                              . X o ; : > , < 1 1 1 1 < 2 3 4 = ",
"                              . X 5 6 7 8 9 0 q w e w r t y 3 u ",
"                              . X i p a s d f g h j k l z x c v ",
"                              . X i b n w f m M M N B V C Z A # ",
"                              . X i S D F G H J K L P I U Y T R ",
"                              . X i S D F E W Q ! Q L ~ ^ 0 < $ ",
"                              . X i b n / ( H ) ! ! Q _ ` / < $ ",
"                              . X i ' ] [ { } | ! ! | }  ...T # ",
"                              . X i p X.o.O._ +.+.+.+._ @.#.$.# ",
"                              . X 5 %.&.*.=.-.@.@.@.@.-.=.;.c v ",
"                              . :.>.,.<.1.*.2.3.3.3.3.2.4.5.3 * ",
"                              6.7.8.9.0.q.w.e.e.e.e.e.e.r.t.y.= ",
"                                u.i.p.a.s.d.f.f.f.f.f.f.g.h.j.k.",
"                                l.z.x.c.v.b.n.m.m.m.m.m.m.M.M.N.",
"                                l.z.B.V.C.Z.A.S.D.D.D.D.S.D.D.F.",
"                                u.G.H.J.K.L.P.I.I.I.I.I.I.L.U.Y.",
"                                T.R.E.W.I.Q.!.~.~.T.T.~.~.!.^.U.",
"                                7.8././.(.!.).            ).!.I.",
"                                7.8././.>._.                7.8.",
"                                T.R.`.`.R.~.                ~.R.",
"                                u.'.].].'.u.                u.'.",
"                                l.[.i.i.[.l.                l.[.",
"                                l.[.i.i.[.l.                l.[.",
"                                u.'.].].'.u.                {.}.",
"                              6.T.R.|.|.R.T.6.              {.>.",
"                              6.T.R.|.|.R.T.6.              l. X",
"                                u.'..X.X'.u.                  l.",
"                                XXoXOXOXoXXX                    ",
". . . . . . . . . . . . . . . . . +X@X@X+X. . . . . . . . . . . ",
"X X X X X X X X X X X X X X X X #X#X#X#X#X#XX X X X X X X X X X ",
"o o i i i i i i i i i i o o o o i i i i i i i i i i i i i i o o "
};
