/* XPM */
static char *wall_L2[] = {
/* columns rows colors chars-per-pixel */
"32 32 109 2 ",
"   c #25131A",
".  c #231318",
"X  c #200F15",
"o  c #2B1821",
"O  c #462A42",
"+  c #50314E",
"@  c #482E4B",
"#  c #472B49",
"$  c #452B49",
"%  c #452B48",
"&  c #482B4B",
"*  c #50304E",
"=  c #442942",
"-  c #51324F",
";  c #53334B",
":  c #523549",
">  c #513449",
",  c #513349",
"<  c #513249",
"1  c #523449",
"2  c #54364A",
"3  c #55364C",
"4  c #52344E",
"5  c #432942",
"6  c #2B1621",
"7  c #56374F",
"8  c #64434A",
"9  c #6B4847",
"0  c #694748",
"q  c #694548",
"w  c #684447",
"e  c #6B474A",
"r  c #724D4D",
"t  c #6C484F",
"y  c #57384F",
"u  c #422640",
"i  c #2A1621",
"p  c #422842",
"a  c #57374F",
"s  c #6D484A",
"d  c #775048",
"f  c #734E48",
"g  c #724E48",
"h  c #724C47",
"j  c #76504A",
"k  c #815850",
"l  c #775052",
"z  c #5A3951",
"x  c #402640",
"c  c #704C48",
"v  c #704A48",
"b  c #6E4A48",
"n  c #6D4947",
"m  c #734E4A",
"M  c #7C564F",
"N  c #754F50",
"B  c #593851",
"V  c #3F2640",
"C  c #56364F",
"Z  c #69474A",
"A  c #714C4A",
"S  c #7C544E",
"D  c #734D50",
"F  c #3F2540",
"G  c #694649",
"H  c #724D47",
"J  c #6D4A48",
"K  c #6D4948",
"L  c #6C4947",
"P  c #704B49",
"I  c #57384E",
"U  c #6D494B",
"Y  c #754F49",
"T  c #714B47",
"R  c #6F4B47",
"E  c #704C49",
"W  c #754E4A",
"Q  c #7D554F",
"!  c #754E50",
"~  c #422642",
"^  c #593A50",
"/  c #754F4F",
"(  c #7F554D",
")  c #744F48",
"_  c #744E48",
"`  c #7A534D",
"'  c #7D5450",
"]  c #835950",
"[  c #765050",
"{  c #58384F",
"}  c #6D484F",
"|  c #734D4D",
" . c #714C4D",
".. c #734C4F",
"X. c #744E4F",
"o. c #6C474E",
"O. c #523450",
"+. c #523448",
"@. c #523348",
"#. c #53354A",
"$. c #54344B",
"%. c #55354B",
"&. c #51344E",
"*. c #432940",
"=. c #482D4B",
"-. c #472A49",
";. c #452A48",
":. c #442A40",
">. c white",
/* pixels */
"                              . X o O + @ # # # # # # $ % & * O ",
"                              . X o = - ; : > > > , < 1 2 3 4 5 ",
"                              . X 6 5 7 8 9 0 q q q w e r t y u ",
"                              . X i p a s d f g g g h j k l z x ",
"                              . X i p 7 e f c v v b n m M N B V ",
"                              . X i p C Z g v b b b n A S D B F ",
"                              . X i p C Z g v b b b n A S D B V ",
"                              . X i p C Z g v b b b n A S D B V ",
"                              . X i p C Z g v b b b n A S D B V ",
"                              . X i p C Z g v b b b n A S D B V ",
"                              . X i p C Z g v b b b n A S D B V ",
"                              . X i p C Z g v b b b n A S D B V ",
"                              . X i p C Z g v b b b n A S D B V ",
"                              . X i p C Z g v b b b n A S D B V ",
"                              . X i p C Z g v b b b n A S D B V ",
"                              . X i p C Z g v b b b n A S D B V ",
"                              . X i p C Z g v b b b n A S D B V ",
"                              . X i p C Z g v b b b n A S D B V ",
"                              . X i p C Z g v b b b n A S D B V ",
"                              . X i p C Z g v b b b n A S D B V ",
"                              . X i p C Z g v b b b n A S D B V ",
"                              . X i p C Z g v b b b n A S D B V ",
"                              . X i p C Z g v b b b n A S D B V ",
"                              . X i p C Z g v b b b n A S D B V ",
"                              . X i p C Z g v b b b n A S D B V ",
"                              . X i p C Z g b b b b n A S D B V ",
"                              . X i p C G H b J K n L P S D B F ",
"                              . X i p I U Y T R E A P W Q ! B V ",
"                              . X i ~ ^ / ( ) _ ` ' S Q ] [ z x ",
"                              . X i p { } | e 0  .D ....X.o.y u ",
"                              . X o 5 O.3 2 +.@.#.$.$.$.%.3 &.*.",
"                              . X o O * =.$ # # -.;.;.;.% & * :."
};
