/* XPM */
static char *skull_R1[] = {
/* columns rows colors chars-per-pixel */
"32 32 105 2 ",
"   c #25131A",
".  c #28161E",
"X  c #291621",
"o  c #2C1925",
"O  c #2D1A28",
"+  c #321D2B",
"@  c #361F31",
"#  c #2E212D",
"$  c #35202F",
"%  c #2F2835",
"&  c #362132",
"*  c #392135",
"=  c #362538",
"-  c #3D253B",
";  c #322C3B",
":  c #3A2839",
">  c #32313F",
",  c #4D2734",
"<  c #43263B",
"1  c #4E293D",
"2  c #542C3F",
"3  c #592C3A",
"4  c #343444",
"5  c #353949",
"6  c #393B49",
"7  c #393E51",
"8  c #5C2E40",
"9  c #413A46",
"0  c #423D55",
"q  c #6E3342",
"w  c #743544",
"e  c #7D3945",
"r  c #3A4255",
"t  c #3A4659",
"y  c #3D495E",
"u  c #3D4D62",
"i  c #3D5065",
"p  c #3F556B",
"a  c #44424D",
"s  c #464A59",
"d  c #494662",
"f  c #404C62",
"g  c #425067",
"h  c #43556C",
"j  c #4C5C6E",
"k  c #445D74",
"l  c #4B5A74",
"z  c #4E6377",
"x  c #4A637F",
"c  c #833A46",
"v  c #943F49",
"b  c #9C424A",
"n  c #A2434B",
"m  c #B3494E",
"M  c #BC4C51",
"N  c #4D6785",
"B  c #4A6985",
"V  c #4C6E8B",
"C  c #516383",
"Z  c #4E708E",
"A  c #596C91",
"S  c #4E7493",
"D  c #4E7B99",
"F  c #517493",
"G  c #587296",
"H  c #527A9B",
"J  c #6F7E8E",
"K  c #718495",
"L  c #5285A5",
"P  c #5B80A6",
"I  c #5387A8",
"U  c #5984A8",
"Y  c #558BAD",
"T  c #5F8DAA",
"R  c #568EB1",
"E  c #5A8DB2",
"W  c #5790B4",
"Q  c #5990B3",
"!  c #5C95BA",
"~  c #5D98BE",
"^  c #628DA9",
"/  c #799AAF",
"(  c #6395B4",
")  c #679BBB",
"_  c #7CA4BC",
"`  c #5E9EC5",
"'  c #609FC7",
"]  c #5FA1C9",
"[  c #60A5CD",
"{  c #6AA8CC",
"}  c #61A7D0",
"|  c #62ABD4",
" . c #6EB2D7",
".. c #72B3D8",
"X. c #7CB9DB",
"o. c #86A1B3",
"O. c #85B6D2",
"+. c #89BBD6",
"@. c #82BCDC",
"#. c #8CC2DE",
"$. c #91C5E0",
"%. c #96C8E1",
"&. c #9BCAE2",
"*. c #A2CFE5",
"=. c #A7D1E6",
/* pixels */
"M M M b 8 - - - - - - @ O . @ - - - - - - - - - - - - 8 v M M M ",
"M m b e 8 - - - - * * = 4 4 = @ * @ - - - - - - - - = 8 w n m M ",
"M n w 8 9 - - - - * O 4 k V 5 X X o * - - - - - - - - < 2 q b M ",
"b c 8 - @ - - - < @ . 5 D ~ z a 6 4 ; @ @ & - - - - - - - 1 w b ",
"8 8 < - - 9 - - - @ . 5 D { _ / ^ V 5 X X O * - - - - - - - , 3 ",
"- - < - - @ @ @ - @ X 5 D  .%.&.@.) k 5 5 4 = & * - - - - - & + ",
"- - - - < @ O O & & . 5 D  .$.*.&.+.) U L Z 5 O & - - - < - & & ",
"- - < - @ @ 4 4 = = 4 h T X.%.=.=.&.@...| E r . @ - - - - - & & ",
"- - - @ O 4 N B 4 4 B ( X.%.*.=.=.*.&.#. .Y r X @ - - - - - $ $ ",
"- - - @ X 6 ^ ( h p Y { _ o.o.o.o.o.o./ T D i 4 = & - - - - @ & ",
"- - - @ . a / O.( Y ] Q z a a 0 a a r a 6 t B V 5 O * - < * & & ",
"- - - @ . 0 o.&.@.{ Q V y ; 4 5 5 6 5 4 > r B V 4 X @ - < - & @ ",
"- - - @ O 0 o.*.&._ j r h B D I L L L L V l t > O X @ - - : + & ",
"- - - @ O 6 J o.o.K s r V Q ` | } | } ] ! H y = o . @ - - - & & ",
"- - - - @ - 9 0 a s j S E [ [ } | | | ] [ Q D h ; . @ - - * + & ",
"- - - - < @ X     ; x U E ~ ) ! Y Y ] | ` E Z p ; X @ - - < * & ",
"- - - - - @ X     ; N H G A A C y u I ] P x a % o . @ - - - - - ",
"4 - - - - * O X   ; C Z l d d 7 # > L ~ C 0 %     X @ - - - - - ",
"- - - - - - @ + . ; B N 0 = & # . > S R i # .     X + - - - & $ ",
"- - - - - - - * O % g h 6 > 4 5 r u I Q k 5 > % o X @ - - - & $ ",
"- - - - - - - - @ * ; 5 g V H L L I ] ] W L Z h ; X @ - - - - * ",
"- - - - - - - - - * O ; f V Y ' ] ] R I ! W F h ; O * - - - - - ",
"- - - - - - - - - - * = ; 7 V E ] ! k t V D y ; = @ - - - - - - ",
"- - - - - - - - - - - @ O & f B L B r # u h > o * - - - - - - - ",
"- - - - - - - - - - - - @ & = > 4 4 ; * ; ; = & - - - - - - - - ",
"- - - - - - - - - - - - < & X . X o @ @ O o @ - - - - - - - - - ",
"- @ 9 - - - - - - - - - - - + + @ @ - - @ * - - - - - - - - - - ",
"8 8 < - - - - - - - - - - - + & - 4 - - - - - - - - - - - - 8 8 ",
"v c 8 @ < < < < < - - - - < $ $ - < - - - - - - - - - - - < e b ",
"M n w 3 < @ - - - < - : - < $ & * - < @ - - - - - - - = 8 q b M ",
"M M n c 1 @ @ @ + $ $ + $ $ + @ @ * @ @ + * - - @ @ - 8 e n m M ",
"M M M v 3 @ @ @ < $ $ & & & * @ * @ @ @ @ @ - - * @ = 8 v M M M "
};
