/* XPM */
static char *East[] = {
/* columns rows colors chars-per-pixel */
"64 64 40 1",
"  c gray13",
". c gray14",
"X c #282828",
"o c #2A2A2A",
"O c #2C2C2C",
"+ c #39352D",
"@ c gray19",
"# c #303031",
"$ c #323032",
"% c #303334",
"& c #333435",
"* c gray21",
"= c #333D3E",
"- c #353A3A",
"; c #38383D",
": c gray24",
"> c #3F3F45",
", c #36404A",
"< c #384757",
"1 c #374F65",
"2 c #563D4E",
"3 c #46412F",
"4 c #504130",
"5 c #534832",
"6 c gray27",
"7 c gray31",
"8 c #464650",
"9 c #4C4D55",
"0 c #585858",
"q c #565660",
"w c #5E5F6C",
"e c gray39",
"r c gray43",
"t c #676773",
"y c #767676",
"u c #72727D",
"i c #797A87",
"p c #838383",
"a c #868693",
"s c #929292",
/* pixels */
",qqq,=<q8<<q9,%=<<8qqqqqq<,,=>>>%,<<,,<qwq<><qq>O%>110<>,<<<<<=%",
"6rur8*0r0qetr0o6q0qpprrrr0766698X,0q77quir00wrp9.%8wtt860qqqqw,X",
">qrr7>ee09etr0 7eeepprrrr0996908 :00q0euirretrp0 %9erw66wwwqqt7 ",
">0w0720099qet9 7eeruyrrre09999w8 &0eweetrrrrter9 #8ww089qqq9007 ",
"900990e0889qt7 7qeruutree00999t8 *qrweertrrtw7e8 #8ww0000998898 ",
"889880e9>=28w6 >970www000888,8t,.*0eqeeeeeew968:.o60009098>>&6> ",
"&***;:6:O@@&6&o@;::::::::***$*6*X@:86:::868:&@$@.X%>>:&:;*$#o%$ ",
"##@@#oO#@@$&$@@@@%@@@@OoO@@@$$$#@@@*%##@@@@$@@oOXXO@#%@oo#$#####",
">:*:-@X;8qq0888869:;::O.@-2,66=299962=:6-X@,8>&@#%:6699*X*6>>:>6",
"98888:.,wtttewqqqw86772.*<890099wew0978e7.30006%:67equr8.>099099",
"788888 >etrteqqqqq6:806 :7779979qq09999y0.80996*380rryr9 >999e99",
"789898 >ewrwq0qqq9:%606 ,97888699979989p0.8987,;38qrre08 6090e98",
"990907 2qwteq09q096%606 698288707900090se 28998669trq98: 8e0e099",
"770006.:00w0979009>>:8:.:6=@,8096679790i9X:7777770q06;6*.8eeq099",
"*::::*X@:666;;:,66**&&#X#&&@-;::&*>;;:69:o$*=-:::66;#%%#X-69:2::",
"X###$@@@%****&**@@####@@@@@@##&&$@oo@*;;%@$&#@##$$#O@#@#o#%****o",
"X*86>>>>67770798*X*862>=2,3888986*#.:0qw0967,::::2%.*79:**:6666@",
".8ee00900eeryrtu7.8ee007q0qwqqeq65:.9piute0r97799q6.,rr9::7qe0q:",
".8eyeq0qqertrrrp0X8eyeq0qqqw99q9676.9purwq0099990t9.8rr0:69eqqw6",
"X8ertq0qweettetp0o8ertq0qww068998w6X9eweq00979990u9X8ww068qeq0q6",
".9ertw00wertrerp0X8ertq9qwq079009w8 7000q07899000r9.8ww090ee0008",
" 0eq0q770eeeeeer8.:00q8<7097770070>.60q986,28777706.6000770786<2",
" 66:*:**:666::66*X@:::$*::**::::::%o@:6-@@@@**:>**@X&:::*::*$@O&",
"@&@@$$@@&$$$@@@%@@@@*#@ooo@$$$%#@@@@@@@ooo@ooX@%%@o%@#&#$$@@$@@@",
"76X&88,82-;::;:62>>678;Xo@*6086>:&68:++$%:6*o@697>*:>66666>66697",
"r0.6eq807,899888<69eww8.@*80rq0q06ee767880q8.%0rrq890q00q0000qry",
"re 8wq8q8880q999980etw8 @:89e90qeqyueeeq0qr9 &0etw000qq0qqq0wtua",
"re 8wewq8990090q090eww8 @8880900eeuuteee00r9 &00ww000000qqq0wtui",
"re <ertq90e0900ew000qw6 #9660qqq0ewwweee00t9 %989q00qq00eeqqeert",
"e9 200088707987eq9667q:.#8669eeq809890078806.O2;:867q077777q0770",
"6;X$:::&-::****::****;@Xo***:66:&>*@*;;;**;%Xo@o@@*:::**:*:::**;",
"%OXXXXoXXXOXoooOOoooooXXooooo%%OXOooooooooooXXXXXXooOOoOOooOOooo",
">0q0,==<q8<<q9>%=<<89q8<88<,,=,,;%,<<,,<qwq<><qq>O%,<10<>><<<<<%",
">rir8-&0r0qwtr0X6q0errreee0764878o60q970iir00wrp9.%9wtt8,qq0qqwo",
">qtr8::eq09qryq 9eerryurre0997708 :0q00eiurewtrp0 %9erw66eweqqw ",
">qw0>44w9989eyq 7eerruirew0999908 %0eqeetttrtter9 %8ww0870q0000 ",
"90w0655t9989er0 7qertutee000999t8 *qreeerttrtw7e8 #8ww000q9988q ",
"<898877e9,-27e8.2870ww007778,28t2.*0eqeeewwe0968:.o60q09998>>-9 ",
"*+&&;::,:@O@&6%o@;=::::::;:-;@*6@.@:86:::868:*$$@.X%:::*:;*$@o% ",
"#@oo&+*+@Ooo@$@#@@%+#Ooo@%@%$@$@@oo####OO$*&$Oo$@@@%##oo@@@%@ooX",
"6*o*88>;;;&+:8888609:Xo@&6699668=+&&:6*X@697,**:66677&XO::62-*::",
"06.6eq8:6,680wwqqeut7.@*80eti0qq63,60q8.&0trq889qqery6.@7708<799",
"06 6w8:@%,60erwwqett7 @6890uie096689qt9 &7ttw099qqeyi8 &90099000",
"06 692@oO260rreeqewq6 @76>qtuw86>689qe9 &8qqq099qwerr6 &90090000",
"06 :<*X@:690ertwq0qq6 @0670wew8288990e9 &887909qwweee6 *9qeq0000",
"q6.$*@X-68880eq98670:.%8669000<:>888806.O2-:6680q0770*.$70eeq788",
"6>XXXXX#*****::****;@Xo***::6:*##****;&Xo#o@#**:::**;#.o*:66:*#$",
"#o@OOO@$&&&&$@@o@&&*$%##@@$&&-$@Xo@@##%&#%%@@#&#@@@$$###$#%*###o",
"o#;>6>6707786&oO:7eq08792=:60ee;oO::>>9eee07690=@&6786696688888%",
".*8009eryree0;o#9eiiyerrq770upp8X@7779ryyyrr0rp0X60eqq0rqqqqqqq:",
" *60qwerure096 %qeyirrrrq00qupa7 @9099qrtrrrrrse <0q990wqeqqq0w6",
" *6900errte086 :qerreeeeq00qqup8 &00990ewerrrrs0 298996870009706",
" :>8800ryiw08: 2qqeqeeq0e0990wr6 :e97700qtyrryp8 +8897:26079687:",
".;=2987ertq78* -97777878786>890:.:0666878qte0er2.@:,66:*;866=:6:",
"o@%*;-&:86,3;@.%*%**&&&&&*&%;::&X$*&***$$*,:::6;Xo@#&*&$#**###&#",
"@@OO&@##%##@@o@%####&#@XXo@@#%@@@@@@#@oXoo@ooX@@@@O@@&&@@@@#####",
"76o%8828>;;::;:>2=,678;XX@&608,2:&68:++$&:6*X@697,-=266666:66677",
"r0.6e0,q76897888889eww8.@-80r00q06ee767880q8.&0rr0880q00qq00qqry",
"re 8wq8q8880q999980etw8 @:89e90qeqyueeeq0qr9 &0etw000qq0qqq0wtua",
"re 8wewq8990090qq90eww8 @8880900eeuuteee00r9 &0qww000000qqq0wtui",
"re 8ertq90w090qew000qw6 #9660qqq0ewwweee00t9 $989000qq00eeqqeert",
"e9.,00q88707787eq76690:.#8669eeq8q9890078806.#>>:867q077777q0770",
"6;o@:::&*::***&::****;#Xo***:66:*:*$*;;***;%Xo@o@$*:::**:*:::**;",
"%OXXoooXoooooooOOoooooXXooooO%%OoOooooooooooXXXXXXooOOoOOooOOooo"
};
