/* XPM */
static char *North[] = {
/* columns rows colors chars-per-pixel */
"64 64 50 1",
"  c gray10",
". c gray13",
"X c gray14",
"o c #282828",
"O c #2A2A2A",
"+ c #2C2C2C",
"@ c #2F3231",
"# c #353128",
"$ c gray19",
"% c #303031",
"& c #313333",
"* c #323032",
"= c #303334",
"- c #333435",
"; c gray21",
": c #333D3E",
"> c #353A3A",
", c #38383D",
"< c gray24",
"1 c #3F3F45",
"2 c #36404A",
"3 c #384757",
"4 c #374F65",
"5 c #44392E",
"6 c #46412F",
"7 c #534832",
"8 c #604D38",
"9 c #6C553B",
"0 c gray27",
"q c gray31",
"w c #464650",
"e c #4C4D55",
"r c #585858",
"t c #565660",
"y c #5E5F6C",
"u c #795C41",
"i c gray39",
"p c gray43",
"a c #676773",
"s c #767676",
"d c #72727D",
"f c #797A87",
"g c #846746",
"h c #956D4B",
"j c #9E7550",
"k c #AB7E54",
"l c #B58A5D",
"z c #90909D",
"x c gray72",
"c c gray77",
/* pixels */
"24etteeewwwwweeew1w2wwweettttew1;:11101899g988771156111111111111",
"wefzfyddtrtyyyddteifyydyddzfdid1;799978uklkjhhg9u8088888987u988;",
"-1tyeeew11wqeeeq1-1wewwwqrqiety1;17771789hg9998777111777720178u,",
"$wyiqeew1wwwqerq111weewwwwwwwei<#:1111677188g81511<511781;-628u>",
"$wyiqeew1wwwqerq111weewwwwwwwei,+;1111677288981611>620781>-6079<",
"+wtirqew1weeeeqwwwwwqewwww::1ey,+$1166,77-;19771:;->17771161-18-",
"-1qriqqw1wqwwqw11w1weewww1,>1ey,+:11>>,>7#>,17770:;-#-;6-177>>>#",
"-1qriqqw1wqwwqw11w1weewww11>1ey,+;02>>>>7#>;17771;,-#$:6-177>>>#",
"$,etytww1ww11ww11wewewwwwww1wey,#170666>>-#>11177661&###->05<-:o",
"+,etytww1ww11ww11wewewwwwww1wey<#081666;>-#>11177661;###->26;-;o",
"$,tyayewwew:1eewewwwewwwwwwweey<#18811>:--->11621101>####=,;#,7+",
"$1qiyireeew1wtqwwwewwwwwww1wwty<#18812>,>---606>6172;&####=7607+",
"$wqiiititrwweeeeeeiiew111,,;2rf<o>116-=;>>1176$;-6162<>>--&1218O",
"$11wweeeew,,,,1,11w11:;:;=@;>0f$Xo=,>+o#+->>&#OOO##-;##+OO#+;#;+",
"+$,,<1112<-$$$$$*---=*@+OOOO$,=*Xo+#+oooOO++OXOOoOO###+oOoooooOO",
"$=-1,;w,1,==+-,$-==--=@OO@@;$+=oo+@-OoO%++O++OOXO+O---&+OXX.XoXo",
"789uugghggu999u81;weteww0weeeeqt3eeewwwwwww111,+O-78888770,;:207",
"99uhjjkjkjhh9hh9;1wdyttteeiyytittiytrttttteeeee@+#99g99988717788",
"61789u9uuu8888hu=--ew11;;:1w11=-->wqe,111w1-,we@O#761111<-#+;#;6",
"11777uuu999778g9;@:ew12,@;ww::=---:wwww1112;11e@O#>>1111,-;#6;+6",
"1887179u89988899;$>eew1,>11q1-=*$-,11ww1w11,11w-O#111111>---2>>>",
"1898678u9u9888g9:->ee111111e1-=--:1111www11:,1e-O+>111171>>->611",
"1797118uu9887799-&>we1111ww1,-+=-wew1wwe1111,1e-OO-61>1117611171",
"1881118uu81117g9;$-wew11www--#%::www11ww:1w1,1e=O#>>--6>6111117>",
"1881118uu81117g9:$-wew11www-=#@::www11ww1121,1e*O#;:--6>6111117>",
"7787078887771099#&;ee1:,1ww;@1www11e11ww110:,0e*O#----6,->16>617",
"71887888777162g9#@0w11,-1120;wrqqw1q1-ew=1:wwwi=O;-;>>71#->>6117",
",6889878881-;799-O1www1-=-,1wwwttew1>,q1,1>11ey=#2;027871>>6117>",
";6889877882;;798-O0www1==-,1wwwttew0>,q1,1;110y-#0;217870:;6117>",
"##-:;:>0,,,;#-10,+,:>>=%O+X---+111,;+$*OXOO@+$-++;->;=--1-O;1>>+",
"OOO#######O+++-;#OO+++OooXoO+O+X@=*OOoooXXoooOOOOO+OOOO+OooOO#+O",
".XOO#+O---OXo#-7X.+$%%+XXXo+***,%+XXXXOX.X.XXX-  XXXXo+oX.XXXXoX",
"14etteeewwwwweeew1wwwwweettrrew1,0ee333yassayytt33ww33eeeeeeee33",
"wefzfyddtrtyyyddteidyydyddzffid1>tapayydxcxzzzssdyeyyyyypytsayy0",
"=1tyeeew11wqeeeq1@1wewwwereiwty1=ertretydfsssayttreeerrtreeetys0",
"@wyiqeew1wwwqerq111weewwwwwwwei<$0eeeewttiippiewee0weetye0<weys0",
"%wyiqeew1wwwqerq111weewwwwwwwei<+0eeeewttrqiiirewe0weetye0<wets0",
"+wtirqew1weeeeqwwwwwqewwww::1ey,+<eeww0ttqwrtttew0<0wetteewe<ey<",
"=1eriqqw1wqwwqw11w1weewww1:,1ey,+0ee0000q00wettew01110wwwett000,",
"=1qriqqw1wqwwqw11w1weewww1:,1ey,+0ee00000010eette00<<<110wtt000,",
"$,etytww1ww11ww11wewewwwwww1wey,$eyewww00<10eeettww02<,<1wew0<0*",
"+,erytww1ww11ww11wewewwwwww1wey1=eyewww00<,0eeettewe1,,,<0ew0<0*",
"$,tyayewwew:1eewewwwewwwwwwweey1*eyyee00<<<0eeweeeee05,,,<00,0r%",
"$1eiyireeew1wrewwwewwwwwww1wwty5*0iiee000<<<wew0wete01<,,-<twey%",
"$weiiititrwweeeeeeiiew112><>1tf<O0eew1<000eetw<01wewe000<<<eeey$",
"#11wweeeew;1,,1,11w11:>>:-+-;0d-X*500@%<-<00<,$$$<<<0<<;$$,;<<0;",
"O@,,52111,=***=**---==@+OO++@,-*X$,>;%%%$$;;$$$$@@-,,,;$$$$$$$$$",
"@==11,w,1,==+=;*-==--=++OO--=O=oX-<<%%%,-;$;;$$+;;#<<<<;$+OO+$+$",
"wetyyaadaaytttye2>wqteww0weeeeqt3yyyttttttteee0-%<ryyyytre000eer",
"ttydffzfzfddtddt>,wdyttteeiyytittsdapaaaaayyyyy,;<asddsayytettyy",
":1wetytiiieeeqdy---ew11;@;0w11==-0tiy0eeete<0ty,%,wweeee0<,-<<0w",
"11wwwiiitrrwweat>$>ew11,=1wtww<<<<qtttteeee0eey,%<00eeee0<0,w05w",
"1eew1wtietteeett:;;eew1,:<wee000,0weettetee0wey<%<eeeeee0<<<e000",
"1ere:wqititeeqat;&>ee111:1eee00<<weeeettteew0ey<$-0eeeete00<0wee",
"1wrw11qiirqqwwtt-$>we1111wwe00000eeeeetyeeee0ey<$$<we0eeetweeete",
"1ee111qiiq111wat>$-wew11www<<00wwetteettwete0ey<$,00<<w0weeeeet0",
"1ee111qiiq111wat;@;wew21www1<<0wwetteetrwete0ey,*,00<<w0weeeeet0",
"wwqw1weeqwww11tt$@:ee1,,2ww5<1weeetteerteeew0ry,*<<<<<w0<0ew0wet",
"w1eeweeewww1:1at=*2w11,-0111;2reeeereeee<ewttts<-<<000te<<00weet",
",:qqrqwqqe1-,wtt-+0www1===,1wwwtryte00ee0e0eeyd<,e0eetyte00weet0",
",:eqrqwqqe1-,wte=+1www1-==,1wwwttyte000e0e0eeed<,e0eetyte00weet0",
"@%->,,,0,,,==-11>O,;,;-*++X-==*111,>+%%oXOOOO--+O,-;,---1=o:0,;+",
"OOO*$$*-**++++--*+++O+OooXoO+o+.@*%++oooXXOOOOOOXO++OOO+OooO+%O+",
".X+O$Oo;;-+XO$-eXX+$=$+XXXo+%%%1%+oX..+X.X.XXX-  XXXXo+oX..XXXoX"
};
