/* XPM */
static char *South[] = {
/* columns rows colors chars-per-pixel */
"64 64 68 1",
"  c gray13",
". c gray14",
"X c #282828",
"o c #2A2A2A",
"O c #2C2C2C",
"+ c #273628",
"@ c #2B362D",
"# c #2C322C",
"$ c #2F3A2C",
"% c #2C3E2C",
"& c #2F3231",
"* c #39352D",
"= c gray19",
"- c #313333",
"; c #323032",
": c #303334",
"> c #333435",
", c gray21",
"< c #333D3E",
"1 c #353A3A",
"2 c #3B3137",
"3 c #38383D",
"4 c gray24",
"5 c #3F3F45",
"6 c #31422B",
"7 c #32452B",
"8 c #364C2A",
"9 c #374E32",
"0 c #38572A",
"q c #2D5453",
"w c #36404A",
"e c #314949",
"r c #384757",
"t c #374F65",
"y c #44392E",
"u c #46412F",
"i c #40593A",
"p c #43612E",
"a c #4D6B33",
"s c #557438",
"d c #5C7D3E",
"f c #604D38",
"g c #6C553B",
"h c gray27",
"j c gray31",
"k c #464650",
"l c #4C4D55",
"z c #585858",
"x c #565660",
"c c #5E5F6C",
"v c #466246",
"b c #4E6D50",
"n c #537358",
"m c #795C41",
"M c gray39",
"N c gray43",
"B c #676773",
"V c #767676",
"C c #72727D",
"Z c #797A87",
"A c #5E8060",
"S c #6B8E6E",
"D c #838383",
"F c #868693",
"G c #929292",
"H c #90909D",
"J c gray63",
"K c #A4A4AC",
/* pixels */
"jMNBBtrtlllrrrrtlrzieqrrtcBBctrk54lhhhh99vv9ii99lh5+hhhh1>#.O>hz",
"jMNNFBZZcMcBBBZZcvvvvBZBZZHFZNZl59i99j99ASSnbbp9v9k9h99941#.&4MD",
"NNFDCBBBbvcccBBBviivicBBBNCCBNCl4k999l99vnvvvii999lhk9999,&.*hcH",
"NVJJibvviiivvbbziiiiivzzbvbbzBVh,5kkkl799l99v9l%lk5%lk994,o ,5zZ",
"MVJJMipilippMvMMlliiivzziilllcVh,5llkk%99k99v9k%llw%jk994,X 15zN",
"MNGHMviilipaavMjvivivzzjiiwwlcC5,4ll1149944k999hhw44k9994,..55MM",
"zNDDNiMvlvMaaMvllilvizzzzl55lcC5,5ll44w49,55l999lw54355%,,+.whMm",
"gNDDVMMvlvMvvMvllilivzzzjl55lcCw,5kl444h9,55l999l3y5,y5%,,#+4lNM",
"MNGGCBviliilliilliivizvzzilljcC5,l9l6%%544>wlkk99%%k4,,,,>;o,hBM",
"rNJHCBviliikliillippipivziexjcCh,l9k$$%554,hllk99%%l4,,,>;>o44cN",
"rNGGZCbippiwlvviippppppizi9pvcZh,l99kk454445kl$khkhl5,,,;;Ooh4lc",
"zMDDCVMvvviljcMippvviiiiijlkjBBh,599kk5554456l$51khk54,,;OX lujz",
"jMVVNNcBcMllljjliiBBvllllwhhlcck=4hk144544kk91,4,1h1k444;o. k4zg",
"gzVVMjzjjlh555l5lljll555h3,4wklyo:454;;,,4551:;>;;315,,,Oo  hyMM",
"fMVZhllllh4,,,4,44544,,,,,,,3hy,o=,,,;;;==,,;;;O;;>,,,,;oo  5hMN",
"zMZDhhjklh44,45,4355h433,354y5w3:354,,,333,3,,>O>,&4441,#o  5hlN",
"zMVZvbnnnbvi9iv9k5lzcjlljljjjlMctzjjlllllllkkkw>;,9999996&X 44jr",
"fzNNnnAAAnnbinAi55lCCcccljBBBzvccBBcMccccMjjiil,>,9ivvv93$+ >,hh",
"jzMMvvvvbvviivAv435cczjlkljbvviijjjvvvzljjllliv,;,79jjjj4#X 2,lM",
"zbsNiiviiii99ibi5,5ivllh5kjviii995kliillllkkkl9>;,55llll4&o ,jCG",
"sssdh9iv9ii99ivi535iiilhwhhiii98,9hll9pljll55lh4;,kllllk4;oo,jBG",
"assn<99vivi99ibi535iilllwlvii9889illlzv9ill55lh4;>5klllh4>oo,hzC",
"vvbGkk9vvi999ivi4,5iilllliili994iliile9vlllk5lh4;;41k5kk4>Xo1hzc",
"vnAHll9vv9kkkibi5,4ipillipih99,w9iiilla9wlll5lh4;,5444%54>; ,lNC",
"ANGHlk9vv9kkljbi5,4ipiklipi45&50wiiillii5llk5lh,;,5544%51;, ,MDF",
"NVHGk999999hkjvi,,5iilw5lii555klivljlkiikllrhjh,;,4444%51;> ,zDG",
"MVGG9999999h1hbi,,lill54klll5lvvMilMl5ii5l5lljN4>445549k4>O 4lDV",
"VDJGi99999k44hii4,ljijl4445lla9Bvvvl55Ml5l5llzC4,k5ll9994,O hjVB",
"FGKGi99999l454i94>llllk4344k9ilvcvll45zk4k4kklB4,l5ll9994,o jjCB",
"GGJG444h4454,4kh4;55554,;,;44hh9ll55,,4,O,,,,3h,;5455<111;  hhNB",
"GGGF,,,3,,,,;,44,>,,,,>;;OO>,>,7431,;;;;Oo;;;>>=:>,>>>>,,o  ,wMc",
"ZBZZ::::::::::<<:::::::::O::&>&O5&>&&>&;OO:::::::::&>&&>&O..;wlr",
"jMNNBxxxlllxxxxxlrzipxxxxcBBcxzk5<lhhhh99bv9ii99lh1%hhhh1:#.O:hz",
"jMNNFBZZcMcBBBZZcxvvvBZBZZHFZBZl59i99j99ASAnbni9v9k9h99941#.:4MD",
"NNFDCBBBxxcccBBBxiivicBBBNCCBNCl4k999k99vnvvvii9i9lhk9999,&.*hcH",
"NVJK9xxxxxxxxxxxiipipxxzxxxxxBVh,5kkkl799l99v9l%kkw%lk994,o ,5xZ",
"MVJJM9cxlxxxMxMMllppixzzxxllzcCh>5llkk$99k99v9k%jl5$lk994,X 15xN",
"MNGHMaxxlxxxxxMxxxvpvzzxxxwwlcC524ll<<999y5ki99hh544k9994,..55MM",
"zNDDN9MxlxMxxMxllxlpizzzzlwwlcC5,5ll35559,55k999l554344%1,+.5hMm",
"gNDDVMMxlxMxxMxllxlivzzzxjw5lcC5,5kl45y59,55l999k444,4h%,,#+3jNM",
"MNGGCBxxlxxllxxllxxvxzxzzxllxcC5,l9l%%%544,5lkk99%%k4,,,,>:o,hBM",
"xNJHCBxxlxxklxxllxxxxxxxzxxlxcCh,l9k%%%554,5llk99%%l4,,,>=>o44cN",
"xNGGZCxxxxxwlxxxxxxxxxxxzxxxxcZh,l99kk454445kl%khkhl5,,,;;OOkylc",
"zMDDCVMxxxxlxcMxxxxxxxxxxlllxBBh,599kk5554457k%w1khk54,,;OX lyjz",
"jMVVNNcBcMlllxxlxxBBxllll55klcch=4hk344544kk93,4,3h1k444&oX l4zg",
"gzVVxxxxxlh555l5llxll5555,,y5zl4O:454=;,,4551&;>=:315,,,OX  5yMM",
"fMVZhllllh4,,,4,445453,,,,,,,h3,O;,,,;;;;;,,;;;O;;>,,,,:OX  5hMN",
"zMZDhwzllh44,45>4355hy33>4w43555&354,,,333,3,,>O>,;4441,#X  5hlN",
"zMVZvbnnnbvi9iv9k5lzcxlljlxxzlMctzxxlllllllkkk5,;,999999$&X 44jz",
"fzNNnnnSnnnbinAi55lCZccclxBBBzvccBBcccccccxxxxl,>,99vvv9<$+ >,hh",
"jzMMvvvvbvviivAv455cxxxlklxxvviiljzxxxxxxxlllxx,;,99jjjj4@X 2:lM",
"zbsNiiviiii99ibi5,5xxll55klviii99hrlxxllllkkklx,;,5wllll4;o >jZG",
"sssdh9iv9ii99ivi515xxxlh5hkiii98,9hllxxlxll5wlx4;,kllllk4=oo,jBG",
"assn<99vivi99ibiw35zxlll5lv9i98899llllxxxll55lx4;,5klllh4>oo,hxC",
"vvbGkk9vvi999ivi4>5xxllllxxli994ilxxlxxxlllk5lx4;;y1kwkk4>Xo1hzc",
"vnSFll9vv9kkjibi5>5xxxllxxxk99,w9xxxllxx5lxl5lx4;,w5y5$h4>= ,lNC",
"ANGHlk9vv9kkljbi5,4xxxklxxx44,40wixxllxx5lxk5lx,=,5544%53=, ,MDF",
"NVHGk999999hkjvi,,5xxl55lxx535ljivlxllxxkllrhlx,;,4444%53=: ,zDG",
"MVGG9999999h1hbi,,lxll54klll5lvvMilMl5xx5l5llxN4:445549k4,O 4lDV",
"VDJGi99999k44hii4,lxxxl4445llxiBvxxl55Ml5l5llxC4,k5ll9994,O hjVB",
"FGKGi99999l454i94:llllk4344kiilvcxll45zk4k4kklB4,l5ll9995,o jjCB",
"GGJG444h4454,4kh5:55554,;,;4444ill55,,4,O,,,,3h,:5455<311&  hhNB",
"GGGF,,,3,,,,;,44>>,,,,>:;Oo>,>,743,,;;;;OX;;;>>;=>,>>>>,:o  >5Mc",
"ZBZZ::::::::::<<::>&>&>&&O&>:::O<:::::::OO:::::::::::>&&&O..>5lx"
};
