/* XPM */
static char *sword1[] = {
/* columns rows colors chars-per-pixel */
"65 143 68 1",
"  c black",
". c #23170B",
"X c #2F1F0F",
"o c #3B2713",
"O c #3A3319",
"+ c #2C2C2C",
"@ c #223322",
"# c #392B27",
"$ c #3D3626",
"% c gray20",
"& c #3A3A3A",
"* c #2E4425",
"= c #344D2D",
"- c #3D5935",
"; c #4B2F17",
": c #57371B",
"> c #423629",
", c #4F3F2B",
"< c #4B3447",
"1 c #563A4D",
"2 c #53472C",
"3 c #5B4326",
"4 c #5C7F36",
"5 c #604C33",
"6 c #6D5536",
"7 c #704628",
"8 c #7B5C3C",
"9 c #434343",
"0 c #4E4E4E",
"q c gray34",
"w c #4D6E4E",
"e c #527456",
"r c #654160",
"t c #7F4D6A",
"y c gray39",
"u c gray43",
"i c #777777",
"p c #5D825E",
"a c #814F30",
"s c #8F5477",
"d c #866741",
"f c #976E45",
"g c #A0764A",
"h c #AD7F4E",
"j c #9B6282",
"k c #BC7F9E",
"l c #B78C58",
"z c #C49A69",
"x c #CF9876",
"c c #FFCD7F",
"v c #848484",
"b c #939393",
"n c #A2A2A2",
"m c #AEAEAE",
"M c #B9B9B9",
"N c #D5AE80",
"B c #E3B490",
"V c #E5C196",
"C c #FFD78D",
"Z c #F4CAA7",
"A c #F5D4AC",
"S c #FEE19C",
"D c #FEEBAA",
"F c #FEF5B9",
"G c #C5C5C5",
"H c gainsboro",
"J c #FEFFC7",
"K c None",
/* pixels */
"KKKKKKKKKKKKKKKKKKKKKKKKKKKKKKKKKKKKKKKKKKKKKKKKKKKKKKKKKKKKKKKKm",
"KKKKKKKKKKKKKKKKKKKKKKKKKKKKKKKKKKKKKKKKKKKKKKKKKKKKKKKKKKKKKKKuq",
"KKKKKKKKKKKKKKKKKKKKKKKKKKKKKKKKKKKKKKKKKKKKKKKKKKKKKKKKKKKKKKKGi",
"KKKKKKKKKKKKKKKKKKKKKKKKKKKKKKKKKKKKKKKKKKKKKKKKKKKKKKKKKKKKKKuM0",
"KKKKKKKKKKKKKKKKKKKKKKKKKKKKKKKKKKKKKKKKKKKKKKKKKKKKKKKKKKKKKKvMq",
"KKKKKKKKKKKKKKKKKKKKKKKKKKKKKKKKKKKKKKKKKKKKKKKKKKKKKKKKKKKKKumbb",
"KKKKKKKKKKKKKKKKKKKKKKKKKKKKKKKKKKKKKKKKKKKKKKKKKKKKKKKKKKKKKimnb",
"KKKKKKKKKKKKKKKKKKKKKKKKKKKKKKKKKKKKKKKKKKKKKKKKKKKKKKKKKKKKunMHi",
"KKKKKKKKKKKKKKKKKKKKKKKKKKKKKKKKKKKKKKKKKKKKKKKKKKKKKKKKKKKKimMmv",
"KKKKKKKKKKKKKKKKKKKKKKKKKKKKKKKKKKKKKKKKKKKKKKKKKKKKKKKKKKKunMMmb",
"KKKKKKKKKKKKKKKKKKKKKKKKKKKKKKKKKKKKKKKKKKKKKKKKKKKKKKKKKKKimMGni",
"KKKKKKKKKKKKKKKKKKKKKKKKKKKKKKKKKKKKKKKKKKKKKKKKKKKKKKKKKKunMMGmv",
"KKKKKKKKKKKKKKKKKKKKKKKKKKKKKKKKKKKKKKKKKKKKKKKKKKKKKKKKKKymMGGnu",
"KKKKKKKKKKKKKKKKKKKKKKKKKKKKKKKKKKKKKKKKKKKKKKKKKKKKKKKKKybMMGGHq",
"KKKKKKKKKKKKKKKKKKKKKKKKKKKKKKKKKKKKKKKKKKKKKKKKKKKKKKKKKymMGGGGq",
"KKKKKKKKKKKKKKKKKKKKKKKKKKKKKKKKKKKKKKKKKKKKKKKKKKKKKKKKKvMMGGGHy",
"KKKKKKKKKKKKKKKKKKKKKKKKKKKKKKKKKKKKKKKKKKKKKKKKKKKKKKKKynMGGGGHy",
"KKKKKKKKKKKKKKKKKKKKKKKKKKKKKKKKKKKKKKKKKKKKKKKKKKKKKKKKumGGGGGH0",
"KKKKKKKKKKKKKKKKKKKKKKKKKKKKKKKKKKKKKKKKKKKKKKKKKKKKKKKynMMGGGGH0",
"KKKKKKKKKKKKKKKKKKKKKKKKKKKKKKKKKKKKKKKKKKKKKKKKKKKKKKKymGMGGGGHq",
"KKKKKKKKKKKKKKKKKKKKKKKKKKKKKKKKKKKKKKKKKKKKKKKKKKKKKKyvMGGGGGMHy",
"KKKKKKKKKKKKKKKKKKKKKKKKKKKKKKKKKKKKKKKKKKKKKKKKKKKKKKynMGGGGGMbK",
"KKKKKKKKKKKKKKKKKKKKKKKKKKKKKKKKKKKKKKKKKKKKKKKKKKKKKKiMMGGGGHmiK",
"KKKKKKKKKKKKKKKKKKKKKKKKKKKKKKKKKKKKKKKKKKKKKKKKKKKKKynMMGGGGHbuK",
"KKKKKKKKKKKKKKKKKKKKKKKKKKKKKKKKKKKKKKKKKKKKKKKKKKKKKqmMMGGGGHbqK",
"KKKKKKKKKKKKKKKKKKKKKKKKKKKKKKKKKKKKKKKKKKKKKKKKKKKKKiMMMGGGGHn0K",
"KKKKKKKKKKKKKKKKKKKKKKKKKKKKKKKKKKKKKKKKKKKKKKKKKKKKqnmGMGGGGHb9K",
"KKKKKKKKKKKKKKKKKKKKKKKKKKKKKKKKKKKKKKKKKKKKKKKKKKKKymMMMGGGGHvyK",
"KKKKKKKKKKKKKKKKKKKKKKKKKKKKKKKKKKKKKKKKKKKKKKKKKKKyvmMMMGGGGGuKK",
"KKKKKKKKKKKKKKKKKKKKKKKKKKKKKKKKKKKKKKKKKKKKKKKKKKKqnmMMMGGGHb9KK",
"KKKKKKKKKKKKKKKKKKKKKKKKKKKKKKKKKKKKKKKKKKKKKKKKKKKumMmMGGGGHi9KK",
"KKKKKKKKKKKKKKKKKKKKKKKKKKKKKKKKKKKKKKKKKKKKKKKKKKKvmmMMMGGGGuqKK",
"KKKKKKKKKKKKKKKKKKKKKKKKKKKKKKKKKKKKKKKKKKKKKKKKKKynmmMMMGGGGqKKK",
"KKKKKKKKKKKKKKKKKKKKKKKKKKKKKKKKKKKKKKKKKKKKKKKKKKymmmmMGMGGn9KKK",
"KKKKKKKKKKKKKKKKKKKKKKKKKKKKKKKKKKKKKKKKKKKKKKKKKKimmmmMMGGHu9KKK",
"KKKKKKKKKKKKKKKKKKKKKKKKKKKKKKKKKKKKKKKKKKKKKKKKKybmmmmMMGGGy9KKK",
"KKKKKKKKKKKKKKKKKKKKKKKKKKKKKKKKKKKKKKKKKKKKKKKKK0mmmmmMMMGGqKKKK",
"KKKKKKKKKKKKKKKKKKKKKKKKKKKKKKKKKKKKKKKKKKKKKKKKKummmmmMMMGn9KKKK",
"KKKKKKKKKKKKKKKKKKKKKKKKKKKKKKKKKKKKKKKKKKKKKKKKKbmmmmmmMMGu9KKKK",
"KKKKKKKKKKKKKKKKKKKKKKKKKKKKKKKKKKKKKKKKKKKKKKKKynmmmmmmMMGqqKKKK",
"KKKKKKKKKKKKKKKKKKKKKKKKKKKKKKKKKKKKKKKKKKKKKKKKymmmmmmmMMn9KKKKK",
"KKKKKKKKKKKKKKKKKKKKKKKKKKKKKKKKKKKKKKKKKKKKKKKKimmmmmmMmGv&KKKKK",
"KKKKKKKKKKKKKKKKKKKKKKKKKKKKKKKKKKKKKKKKKKKKKKKKbmmmmmmmmGq0KKKKK",
"KKKKKKKKKKKKKKKKKKKKKKKKKKKKKKKKKKKKKKKKKKKKKKKynnmmmmmmmm0KKKKKK",
"KKKKKKKKKKKKKKKKKKKKKKKKKKKKKKKKKKKKKKKKKKKKKKKynnmmmmmmMn9KKKKKK",
"KKKKKKKKKKKKKKKKKKKKKKKKKKKKKKKKKKKKKKKKKKKKKKKinmmmmmmmGu9KKKKKK",
"KKKKKKKKKKKKKKKKKKKKKKKKKKKKKKKKKKKKKKKKKKKKKKKbnmnmmmmmnqyKKKKKK",
"KKKKKKKKKKKKKKKKKKKKKKKKKKKKKKKKKKKKKKKKKKKKKKynnnmmmmmmb9KKKKKKK",
"KKKKKKKKKKKKKKKKKKKKKKKKKKKKKKKKKKKKKKKKKKKKKKynnnnmmmmMu9KKKKKKK",
"KKKKKKKKKKKKKKKKKKKKKKKKKKKKKKKKKKKKKKKKKKKKKKinnnnmmmmmq0KKKKKKK",
"KKKKKKKKKKKKKKKKKKKKKKKKKKKKKKKKKKKKKKKKKKKKKKvnnnnnmmmm9KKKKKKKK",
"KKKKKKKKKKKKKKKKKKKKKKKKKKKKKKKKKKKKKKKKKKKKKynnnnnnmmmb9KKKKKKKK",
"KKKKKKKKKKKKKKKKKKKKKKKKKKKKKKKKKKKKKKKKKKKKKynnnnnnnmmq9KKKKKKKK",
"KKKKKKKKKKKKKKKKKKKKKKKKKKKKKKKKKKKKKKKKKKKKKinnnnnnnmn9yKKKKKKKK",
"KKKKKKKKKKKKKKKKKKKKKKKKKKKKKKKKKKKKKKKKKKKKKvnnnnnnnmn9KKKKKKKKK",
"KKKKKKKKKKKKKKKKKKKKKKKKKKKKKKKKKKKKKKKKKKKKybnnnnnnnmq9KKKKKKKKK",
"KKKKKKKKKKKKKKKKKKKKKKKKKKKKKKKKKKKKKKKKKKKKybnnnnnnnn0qKKKKKKKKK",
"KKKKKKKKKKKKKKKKKKKKKKKKKKKKKKKKKKKKKKKKKKKKubnnnnnnnn9KKKKKKKKKK",
"KKKKKKKKKKKKKKKKKKKKKKKKKKKKKKKKKKKKKKKKKKKyibbnnnnnnb&KKKKKKKKKK",
"KKKKKKKKKKKKKKKKKKKKKKKKKKKKKKKKKKKKKKKKKKKyvbbnbnnnn09KKKKKKKKKK",
"KKKKKKKKKKKKKKKKKKKKKKKKKKKKKKKKKKKKKKKKKKKyvbbbnbnnn9KKKKKKKKKKK",
"KKKKKKKKKKKKKKKKKKKKKKKKKKKKKKKKKKKKKKKKKKKuvbbbbnnni9KKKKKKKKKKK",
"KKKKKKKKKKKKKKKKKKKKKKKKKKKKKKKKKKKKKKKKKKyivbvbbnbnq9KKKKKKKKKKK",
"KKKKKKKKKKKKKKKKKKKKKKKKKKKKKKKKKKKKKKKKKKyivvbbbbbn9qKKKKKKKKKKK",
"KKKKKKKKKKKKKKKKKKKKKKKKKKKKKKKKKKKKKKKKKKqvibvbvbni9KKKKKKKKKKKK",
"KKKKKKKKKKKKKKKKKKKKKKKKKKKKKKKKKKKKKKKKKKuivivvbbbu%KKKKKKKKKKKK",
"KKKKKKKKKKKKKKKKKKKKKKKKKKKKKKKKKKKKKKKKKyiiivivbvn99KKKKKKKKKKKK",
"KKKKKKKKKKKKKKKKKKKKKKKKKKKKKKKKKKKKKKKKKyiiiivvvvv9KKKKKKKKKKKKK",
"KKKKKKKKKKKKKKKKKKKKKKKKKKKKKKKKKKKKKKKKKyiiiiivvvu9KKKKKKKKKKKKK",
"KKKKKKKKKKKKKKKKKKKKKKKKKKKKKKKKKKKKKKKKKuiiiiiivbq9KKKKKKKKKKKKK",
"KKKKKKKKKKKKKKKKKKKKKKKKKKKKKKKKKKKKKKKKyuiiiiiiii0qKKKKKKKKKKKKK",
"KKKKKKKKKKKKKKKKKKKKKKKKKKKKKKKKKKKKKKKKyiiiiiiiii9KKKKKKKKKKKKKK",
"KKKKKKKKKKKKKKKKKKKKKKKKKKKKKKKKKKKKKKKKqiiiiiiivu&KKKKKKKKKKKKKK",
"KKKKKKKKKKKKKKKKKKKKKKKKKKKKKKKKKKKKKKKKyiuiiiiii00KKKKKKKKKKKKKK",
"KKKKKKKKKKKKKKKKKKKKKKKKKKKKKKKKKKKKKKKyuiiiiiiii9KKKKKKKKKKKKKKK",
"KKKKKKKKKKKKKKKKKKKKKKKKKKKKKKKKKKKKKKKyuuiiiiiiu9KKKKKKKKKKKKKKK",
"KKKKKKKKKKKKKKKKKKKKKKKKKKKKKKKKKKKKKKKqiuuuiiii99KKKKKKKKKKKKKKK",
"KKKKKKKKKKKKKKKKKKKKKKKKKKKKKKKKKKKKKKKyuuuuuiii9yKKKKKKKKKKKKKKK",
"KKKKKKKKKKKKKKKKKKKKKKKKKKKKKKKKKKKKKKyuuuuyuuii9KKKKKKKKKKKKKKKK",
"KKKKKKKKKKKKKKKKKKKKKKKKKKKKKKKKKKKKKKquuyuyuuiy&KKKKKKKKKKKKKKKK",
"KKKKKKKKKKKKKKKKKKKKKKKKKKKKKKKKKKKKKKquuyuyuuu90KKKKKKKKKKKKKKKK",
"KKKKKKKKKKKKKKKKKKKKKKKKKKKKKKKKKKKKKKyuuqyyuuu9KKKKKKKKKKKKKKKKK",
"KKKKKKKKKKKKKKKKKKKKKKKKKKKKKKKKKKKKKyyuqyquuuy&KKKKKKKKKKKKKKKKK",
"KKKKKKKKKKKKKKKKKKKKKKKKKKKKKKKKKKKKKquy0yqyuu99KKKKKKKKKKKKKKKKK",
"KKKKKKKKKKKKKKKKKKKKKKKKKKKKKKKKKKKKKqyy9y0uuy9yKKKKKKKKKKKKKKKKK",
"KKKKKKKKKKKKKKKKKKKKKKKKKKKKKKKKKKKKKyy00qqyuy9KKKKKKKKKKKKKKKKKK",
"KKKKKKKKKKKKKKKKKKKKKKKKKKKKKKKKKKKKyyy9y0yyuq9KKKKKKKKKKKKKKKKKK",
"KKKKKKKKKKKKKKKKKKKKKKKKKKKKKKKKKKKKqyy9y9yyu90KKKKKKKKKKKKKKKKKK",
"KKKKKKKKKKKKKKKKKKKKKKKKKKKKKKKKKKKKqy00q9yyy9KKKKKKKKKKKKKKKKKKK",
"KKKKKKKKKKKKKKKKKKKKKKKKKKKKKKKKKKKKyy9000yyq9KKKKKKKKKKKKKKKKKKK",
"KKKKKKKKKKKKKKKKKKKKKKKKKKKKKKKKKKKyyq%y90yy09KKKKKKKKKKKKKKKKKKK",
"KKKKKKKKKKKKKKKKKKKKKKKKKKKKKKKKKKKqy09y&qyy9KKKKKKKKKKKKKKKKKKKK",
"KKKKKKKKKKKKKKKKKKKKKKKKKKKKKKKKKKKqy&0q&yyq9KKKKKKKKKKKKKKKKKKKK",
"KKKKKKKKKKKKKKKKKKKKKKKKKKKKKKKKKKKqq+q09yyq9KKKKKKKKKKKKKKKKKKKK",
"KKKKKKKKKKKKKKKKKKKKKKKKKKKKKKKKKKyq9&q90yy9qKKKKKKKKKKKKKKKKKKKK",
"KKKKKKKKKKKKKKKKKKKKKKKKKKKKKKKKKKqq&9q&0yq9KKKKKKKKKKKKKKKKKKKKK",
"KKKKKKKKKKKKKKKKKKKKKKKKKKKKKKKKKKq0%00%0yq9KKKKKKKKKKKKKKKKKKKKK",
"KKKKKKKKKKKKKKKKKKKKKKKKKKKKKKKKKKq0%q9&qq99KKKKKKKKKKKKKKKKKKKKK",
"KKKKKKKKKKKKKKKKKKKKKKKKKKKKKKKKKy099q&9qq9KKKKKKKKKKKKKKKKKKKKKK",
"KKKKKKKKKKKKKKKKKKKKKKKKKKKKKKKKKq0&90%0qq9KKKKKKKKKKKKKKKKKKKKKK",
"KKKKKKKKKKKKKKKKKKKKKKKKKKKKKKKKKq0%00%0q09KKKKKKKKKKKKKKKKKKKKKK",
"KKKKKKKKKKKKKKKKKKKKKKKKKKKKKKKKK09&q9&qq9qKKKKKKKKKKKKKKKKKKKKKK",
"KKKKKKKKKKKKKKKKKKKKKKKKKKK0KKKKy0990&9q09KKKKKKKKKKKKKKKKKKKKKKK",
"KKKKKKKKKKKKKKKKKKKKKKKKKKK9KKKKq0&90&9q0&KKKKKKKKKKKKKKKKKKKKKKK",
"KKKKKKKKKKKKKKKKKKKKK9KKKKK9KKKKq9&09%qq99KKKKKKKKKKKKKKKKKKKKKKK",
"KKKKKKKKKKKKKKKKKKKKK,KKKKK>KKKKr9&09&0q9KKKKKKKKKKKKKKKKKKKKKKKK",
"KKKKKKKKKKKKKKKKKKKK1,KKKKK;KKKKr%90&90q&KKKKKKKKKKKKKKKKKKKKKKKK",
"KKKKKKKKKKKKKKKKKKKK5,KKKK22KKKK0%90%000KKKKKKKKKKKKKKKKKKKKKKKKK",
"KKKKKKKKKKKKKKKKKKKK3,KKKK3,KKK19&09%009KKKKKKKKKKKKKKKKKKKKKKKKK",
"KKKKKKKKKKKKKKKKKKKK33KKKK3,0KK0990&9009KKKKKKKKKKKKKKKKKKKKKKKKK",
"KKKKKKKKKKKKKKKKKKK555rKKK,,9KK0%90&900KKKKKKKKKKKKKKKKKKKKKKKKKK",
"KKKKKKKKKKKKKKKKKKK5665KKr,,,KK0%09%009KKKKKK2KKKKKKKKKKKKKKKKKKK",
"KKKKKKKKKKKKKKKKKKK6865KK6,,,K09%09&009KKKKKr&KKKKKKKKKKKKKKKKKKK",
"KKKKKKKKKKKKKKKKKKK8888KK5,,,K0&90&9009KKKKK$KKKKKKKKKKKKKKKKKKKK",
"KKKKKKKKKKKKKKKKKKrfggfKK5,,,K0%90&909KKKKK3OKKKKKKKKKKKKKKKKKKKK",
"KKKKKKKKKKKKKKKKKK6gzzziq3,,,09%09%009KKKK6$%KKKKKKKKKKKKKKKKKKKK",
"KKKKKKKKKKKKKKKKKK5zSCCN6,,,,09&09&009KKKt,>KKKKKKKKKKKKKKKKKKKKK",
"KKKKKKKKKKKKKKKKKK5gFFFN6,,,20&90&900%KKu5$$KKKKKKKKKKKKKKKKKKKKK",
"KKKKKKKKKKKKKKKKKK56NCCl59,,20%99&909KKu8>>%KKKKKKKKKKKKKKKKKKKKK",
"KKKKKKKKKKKKKKKKKK566gh66,,,09&99&009KK85$$KKKKKKKKKKKKKKKKKKKKKK",
"KKKKKKKKKKKKKKKKKK6666865,,,09&09&009K86>>>KKKKKKKK,KKKKKKKKKKKKK",
"KKKKKKKKKKKKKKKKKKq666563,,20&90&909988,>>$KKKKKKK3,KKKKKKKKKKKKK",
"KKKKKKKKKKKKKKKKKKy6666655390yy9&009685>>>KKKKKKK1,$KKKKKKKKKKKKK",
"KKKKKKKKKKKKKKKKKKK65-266fg8900qq00688,>>>KKKKKKK,oOKKKKKKKKKKKKK",
"KKKKKKKKKKKKKKKKKKKr2---56fg8000y0r883>>>>KKKKKK3OoKKKKKKKKKKKKKK",
"KKKKKKKKKKKKKKKKKKKK2--w2658gg000r686>>>>KKKKKK8;O+KKKKKKKKKKKKKK",
"KKKKKKKKKKKKKglzzNzgK2*ee2228gg80668,,>>>KKKKK85OOOKKKKKKKKKKKKKK",
"KKKKKKKKKKKyjkCDkrzlgK3O$4we56fg8685,>>>>KKKK66$$OKKKKKKKKKKKKKKK",
"KKKKKKKKKK8kNSSzz6<2$,q>$-=*>5566685,,>>KKKK66,$+$KKKKKKKKKKKKKKK",
"KKKKKKKKK8jf8f3fhha5$$55#**$$225688fggggiKK663,$>$KKKKKKKKKKKKKKK",
"KKKKKKKKKfxzNN5XO,5g>O$$$,+$=----8888ffff8665>>>,KKKKKKKKKKKKKKKK",
"KKKKKKKK8Nlfjs6.@$,7O#$+,;5O#-42p68886666666OO$$>KKKKKKKKKKKKKKKK",
"KKKKKKK88ggfcch63@$$#O@..;3OXX#$$,866666666$OOOOKKKKKKKKKKKKKKKKK",
"KKKKKKK38dxczhzf6,+O@X...;:oOO>O>>86666663$OOOOKKKKKKKKKKKKKKKKKK",
"KKKKKKOOO8g88dgl6O+@#++@$:;ooX#OO5666666,$O$$OKKKKKKKKKKKKKKKKKKK",
"KKKKKKOOO&52228d86OOO$#+::;oX...#<$,$X+..XXX+KKKKKKKKKKKKKKKKKKKK",
"KKKKK3#,>#+$#,255,>@@O##O;;X....+#@@.#$$$$$,d5KKKKKKKKKKKKKKKKKKK",
"KKKK838d3##+#$$OO$O3,@OOO+X>#,>O##XXO####$$#,g5KKKKKKKKKKKKKKKKKK",
"KKKKghggggglgllgzzggggdfzzgff8652OO>,>$,$####5f5KKKKKKKKKKKKKKKKK",
"KKKgcxzg88NNgNllNzlllfhlzNNxxNzzzfd8653>2>$###5f6KKKKKKKKKKKKKKKK",
"KK6zccNl88g88zNgzlffff8hzNBBVZZVVxlhgh8562>#$#$6gKKKKKKKKKKKKKKKK",
"K2jzcJNd,6l35gllddgfhgd5xxNNBAAAABNzllhgd6,O>,$26fKKKKKKKKKKKKKKK",
"2zl6hzz6O3f3X5hhllllf8,3hllzNBVZZVNzhhggd62>2>,$$5KKKKKKKKKKKKKKK"
};
