/* XPM */
static char *West[] = {
/* columns rows colors chars-per-pixel */
"64 64 49 1",
"  c #2F3231",
". c #3F392B",
"X c gray19",
"o c #313333",
"O c #303334",
"+ c #333435",
"@ c gray21",
"# c #333D3E",
"$ c #353A3A",
"% c #38383D",
"& c gray24",
"* c #3F3F45",
"= c #334141",
"- c #463E1F",
"; c #51461E",
": c #5D4E1D",
"> c #5B452D",
", c #504130",
"< c #534832",
"1 c #67571E",
"2 c #604D38",
"3 c #6C553B",
"4 c #73601E",
"5 c #7D691F",
"6 c gray27",
"7 c gray31",
"8 c #464650",
"9 c #4C4D55",
"0 c #585858",
"q c #565660",
"w c #5E5F6C",
"e c #795C41",
"r c gray39",
"t c gray43",
"y c #676773",
"u c #767676",
"i c #72727D",
"p c #797A87",
"a c #897120",
"s c #988324",
"d c #A69328",
"f c #838383",
"g c #868693",
"h c #929292",
"j c #90909D",
"k c gray63",
"l c #A4A4AC",
"z c gray68",
"x c gray72",
/* pixels */
"yiiywyiiiyiiighggutugy&0fggppfpff;::a:wwufpiifuyipgfqo&wiiiwiggu",
"wwrq9qrtiwqqyutttwwiji*7wiyttttu<4ass59qrttwqwwwtupfro%qwyrwtuut",
"wrqq99qwyq99wywrrrrtgp**0yywrrwy<:55d-290qqq990qrtifwoo90qqqwtrq",
"0rwyw0999800qritrqqqut*8wiiywwyir-a5a:q0rrq9qqq0rtyiro%0099qrrq9",
"0ritr0986=80qrtrq99qii68wiiywwyir05aa>q0rrq9qqq0rtyirO%9q880wyr0",
"9rtt09996=80qqrrrq9qpp68rpptrwttq.:51<qqwr99qwrrrrqtrO%8999ryr09",
"0rrrq99q9*90q99qrrqqpi*6rttrrrrr9684:<yrrr990qqqqq9q9X@69qqrrr09",
"0rrrq99q9*90q99qrrqqpi*6rttrrrrr968::<yrrr990qqqqq9q9o@69qqrrr09",
"90r<<99w9689999qqqq0iw$*rtyyryyq86q<1<itr09000q9999q8X@69wwrr00q",
"*6<5;*69*&###*68**77q7o*qyyyrww889q22tyr0q977999988q6o@&*9qq9888",
"**:5a;*8*@ @%****68668*&679966666891q9788***897897866*%**898*686",
"ii-54;yytq$*qwqwyiwqqwiuttyyyiffpi24ggfiiw&#7ryiffiywqqqwiywqifu",
"ww.4a<yyiw%&9wwq0r0qqwiywwwwryuuutt2fptwpy%$7rttuurwq779qttw0ttr",
"www152yyiw%&9wwq0r0qqwiywwwwryuuutt2fptwpy%$7rttuurwq779qttw0ttr",
"qqq3a2wwiy**9wr09009qrtrqq900qrytrrtitqqyrO+0rrrrrq98689qrrrrrrq",
"rrq93qqqwq#&7q08899qrrqq09999990rqqrwwwwtro%qwrrrq880rwqqwr9qtiy",
"qqq9qqqqtq$*9q98899q00rr99096690q999qwrqywO%qrqrrqqqwiiyrrr99rrr",
"q999wwqqw9@%qyq0qq990ryr99096690qq99qqyytr@@7wqqqqwrrtiitr09qqrr",
"989qwwq9w9@*qr09qq880qrrq0q96899q999qqrpi0oo7ww0900000titrq9qwr0",
"#=69998898$*888*&&***89q9786****66=6889008@o@97&%<:::<9qq989q09*",
"O8ihhuyytighuyiiityiiwwyywwiiyyt0O@*689866* **6*2asds1299879q98*",
"+9iutrrwyyturrryw0qwwqqrywrttyyiy*7tfffiwqqqyywi345:5aeyyyiigfi0",
"%9rr0qqrtr0q90qq9*&*89q0wwrrtyypt68rtttrqqqqrwq094at,4wrrwyipuiq",
"6qwr0wwrr0099qq9996*8q00wrqrrrtgi6*90qqq09989986615wr1q90qqriitr",
"7qttriiyrq989qqqqq98qwqqqqqqrrqpy**90q09866668**6qawre99999qrttr",
"8qttriiyrq989qqqqq98qwqqqqqqrrqpy*&89988868888869q5rrq9998990tur",
"8qttriiyrq989qqqqq98qwqqqqqqrrqpy*&89988868888869qerrq9998990tur",
"*9ttriptrq999qqrrqqqww990999000tr&&8988990qq99qrwqqwr9908*890rur",
"69ipiytrrwqqqqqrrrqwrr99099q0qrtq&&9q999qwwwqrriiyrrr9906*8900ut",
"*9ipuyywiyww00wwq0qqq98909qq0wwyq@*0q889q0rqw00riyrr08996*8qqqtr",
"*9wr0qqqq00999q98888866779q09q9q9@*76#&**66897668789*&&*O+*88800",
"*9wr0qqqq00999q98888866779q09q9q9@*76#%#*66897668789*&&*++*88800",
"yiiywyiiiyiiighggutugy&tzxxllzlzzljjggppkzljjzkgjlxzio&wpiiwiggu",
"wwrq9qrtiwqqyitttwwiji*rpjghhhhkkhpiwwwifhhpippphklzfO%0wyrwtuut",
"wrqq99qwyq99wywrrrrtgp*9tggpffpggiww09wwtiiiwwtifhjzpOO90qqqwtrq",
"0rwyw09998000ritrqqqut*wpjjgppgjftw99witffiwiiitfhgjfO%0089qrrq9",
"0ritr0986*=0qrtrq99qii6wpjjgppgjftw99witffiwiiitfhgjf %9q880wyr0",
"9rtt09996*80qqrrrq9qpp6wfllhfphhiw990wiipfwwipffffihfO%8999ryr09",
"0rrrq99q9890q99qrrqqpi*0fhhfffffw0wtfggfffwwtiiiiiwiwX@69qqrrr09",
"0rrrq99q9=90q99qrrqqpi*0fhhfffffw0wtfggfffwwtiiiiiwiwX@69qqrrr09",
"90rwq99w9689999qqqq0iw%9fhggfggiw0ipjjjhftwtttiwwwwiwX@69wwrr00q",
"*6998*696%###*68**77q7o9igggfppwwwifhhgftiwrrwwwwwwi0O@&*9qq9888",
"9999099w96o@%****68668*70rww00000wwiiwrww99wppfppfptt9899www90w0",
"jjggjjgghi%*0wqwyiwq0wiuttyyyiffpiifggfiiw&8rfgjzzjgpiiipjgpijzk",
"pppfhhggjp%&9wwq0r0qqwiywwwwryuuuttufptwpy%*rfhhkkfpirrwihhpthhf",
"pppfhhggjp%&9wwq0r0qqwiywwwwryuuuttufptwpy*6rfhhkkfpirrwihhpthhf",
"iiiiffppjg**9wr09009qrtrqq900qrytrrtitqqyr *tfffffiww0wwiffffffi",
"ffiwwiiipi#&9q08899qrrqq09999990rqqrwwwwtrO8ipfffiwwtfpiipfwihjg",
"iiiwiiiihi$*9q98899q00rr99096690q999qwrryw+8ififfiiipjjgfffwwfff",
"iwwwppiipwO%qyq0qq990ryr99096690qq99qqyytr@6rpiiiipffhjjhftwiiff",
"wwwippiwpw%*qr09qq880qrrq0q96899q999qqrii0O*rpptwttttthjhfiwipft",
"890wwwwwww$*888*&&***89q9786****6**6889qq8O&9wr7870w99wiiwwwitw9",
" 8ihhuyytighuyiiityiiwwyywwiiyyt0O@*687866#*99098790990wwwrwiww9",
"+9iutrrwyyturrryw0qwwqqrywrttyyiy*7tfffiwqqqyywiywiiiiyyyyiigfi0",
"*8rr0qqrtr0q90qq9*&*89q0wwrrtyypt68rtttrqqqqrwq09qwttwwrrwyipuiq",
"6qwr0wwrr0099qq9996*8q00wrqrrrtgi6*90qqq0998998669qwrqq90qqriitr",
"7qttriiyrq989qqqqq98qwqqqqqqrrqpy**90q09866668**6qwwrq99999qrttr",
"8qttriiyrq989qqqqq98qwqqqqqqrrqpy*&89988868888869qrrrq9998990tur",
"8qttriiyrq989qqqqq98qwqqqqqqrrqpy*&89988868888869qrrrq9998990tur",
"*9ttriptrq999qqrrqqqww990999000tr*&89988868888869qrrrq9998990tur",
"69ipiytrrwqqqqqrrrqwrr99099q0qrtq&&8988990qq99qrwqqwr9908*890rur",
"*9ipuyywiyww00wwq0qqq98909qq0wwyq&&9q999qwwwqrriiyrrr9906*8900ut",
"*9wr0qqqq00999q98888866779q09q9q9@*qq889q0rqw00riyrr08996*8qqqtr",
"*9wr0qqqq00999q98888866779q09q9q9@*76#&#*66897668789*&&*++*88800"
};
