/* XPM */
static char *floor[] = {
/* columns rows colors chars-per-pixel */
"32 32 27 1 ",
"  c #3B2539",
". c #3E253C",
"X c #3D253B",
"o c #372030",
"O c #3B2438",
"+ c #3C2439",
"@ c #3D253C",
"# c #3E253A",
"$ c #3B2439",
"% c #352030",
"& c #35202F",
"* c #382134",
"= c #3E263B",
"- c #3D243A",
"; c #382132",
": c #3E263F",
"> c #3C2539",
", c #3B2437",
"< c #362131",
"1 c #362031",
"2 c #351F2E",
"3 c #382133",
"4 c #3C243A",
"5 c #372131",
"6 c #372233",
"7 c #372032",
"8 c white",
/* pixels */
" .XXXXXXXXXXXXXXXXXXXXXXXXXX. oo",
" .XXXXXXXXXXXXXXXXXXXXXXXXXX. oo",
" .XXXXXXXXXXXXXXXXXXXXXXXXXX. oo",
" .XXXXXXXXXXXXXXXXXXXXXXXXXX. oo",
" .XXXXXXXXXXXXXXXXXXXXXXXXXX. oo",
" .XXXXXXXXXXXXXXXXXXXXXXXXXX. oo",
" .XXXXXXXXXXXXXXXXXXXXXXXXXX. oo",
" .XXXXXXXXXXXXXXXXXXXXXXXXXX. oo",
"O.XXXXXXXXXXXXXXXXXXXXXXXXXX. oo",
"+@XXXXXXXXXXXXXXXXXXXXXXXXXX. oo",
"#XXXXXXXXXXXXXXXXXXXXXXXXXXX. oo",
"XXXXXXXXXXXXXXXXXXXXXXXXXXXX. oo",
"XXXXXXXXXXXXXXXXXXXXXXXXXXXX. oo",
"XXXXXXXXXXXXXXXXXXXXXXXXXXXX.$%%",
"XXXXXXXXXXXXXXXXXXXXXXXXXXXX.O&&",
"XXXXXXXXXXXXXXXXXXXXXXXXXXXX@+**",
"XXXXXXXXXXXXXXXXXXXXXXXXXXXXX=--",
"XXXXXXXXXXXXXXXXXXXXXXXXXXXXX=- ",
"XXXXXXXXXXXXXXXXXXXXXXXXXXXX@+*&",
"XXXXXXXXXXXXXXXXXXXXXXXXXXXX@+;&",
"XXXXXXXXXXXXXXXXXXXXXXXXXXXXX#+O",
"XXXXXXXXXXXXXXXXXXXXXXXXXXXXXX@.",
"XXXXXXXXXXXXXX@@XXXXXXXXXXXXXXXX",
"XXXXXXXXXXXXX#++#XXXXXXXXXXXXXXX",
"XXXXXXXXXXXX@+;;+@XXXXXXXXXXXXXX",
"XXXXXXXXXXXX.O&&O.XXXXXXXXXXXXXX",
"XXXXXXXXXXXX.$%%$.XXXXXXXXXXXXXX",
"XXXXXXXXXXXX. oo .XXXXXXXXXXXXXX",
"@...........:>oo>:...@XX@@XXXXXX",
"+O$         >,<<,> $O+==++#XXXXX",
"*&%oooooooooo1221oo%&34455+@XXXX",
"6%%ooooooooooo77ooo%&34455+@XXXX"
};
