/* XPM */
static char *exit2[] = {
/* columns rows colors chars-per-pixel */
"32 32 143 2 ",
"   c #09010E",
".  c #0F0411",
"X  c #130612",
"o  c #150914",
"O  c #1A0B15",
"+  c #1E0F1A",
"@  c #1F101E",
"#  c #210E15",
"$  c #200F1C",
"%  c #221017",
"&  c #24131A",
"*  c #29151D",
"=  c #2F1A1D",
"-  c #331B1E",
";  c #3B1E1E",
":  c #3D211F",
">  c #271521",
",  c #2B1722",
"<  c #2F1920",
"1  c #351E21",
"2  c #341E2D",
"3  c #331F32",
"4  c #362021",
"5  c #3B2222",
"6  c #3C2628",
"7  c #372031",
"8  c #3A2235",
"9  c #3C243A",
"0  c #42221F",
"q  c #442523",
"w  c #4B2923",
"e  c #412729",
"r  c #4E302E",
"t  c #53312C",
"y  c #412739",
"u  c #452B3B",
"i  c #4A2C3B",
"p  c #502F3C",
"a  c #4A3336",
"s  c #4C333B",
"d  c #503637",
"f  c #51323D",
"g  c #523838",
"h  c #5B3F3F",
"j  c #6A3E2F",
"k  c #623F33",
"l  c #674235",
"z  c #6D4232",
"x  c #69443A",
"c  c #6E483D",
"v  c #724533",
"b  c #744B3C",
"n  c #7C4D3B",
"m  c #7D513E",
"M  c #5B3D41",
"N  c #613C43",
"B  c #5C4346",
"V  c #754C40",
"C  c #794F40",
"Z  c #795449",
"A  c #7D584C",
"S  c #7E5B52",
"D  c #8C4C34",
"F  c #8E4E3B",
"G  c #85513A",
"H  c #8B563F",
"J  c #94513F",
"K  c #935B3D",
"L  c #A25739",
"P  c #A45C3F",
"I  c #A85E3F",
"U  c #845542",
"Y  c #8E5740",
"T  c #865946",
"R  c #8B5845",
"E  c #865B48",
"W  c #885C49",
"Q  c #955647",
"!  c #945D45",
"~  c #9B5A48",
"^  c #815A51",
"/  c #A55E42",
"(  c #AA5B41",
")  c #976046",
"_  c #986147",
"`  c #97634B",
"'  c #9A654B",
"]  c #9F694E",
"[  c #896557",
"{  c #84645B",
"}  c #8D6A5D",
"|  c #986C57",
" . c #946D5B",
".. c #996C59",
"X. c #A06446",
"o. c #AB6146",
"O. c #A2654B",
"+. c #AC644A",
"@. c #A56A4D",
"#. c #B16443",
"$. c #BB6743",
"%. c #BB6845",
"&. c #B0664A",
"*. c #B86D4C",
"=. c #A86D52",
"-. c #A56E59",
";. c #AB6F5A",
":. c #AD7152",
">. c #AE715F",
",. c #BD795C",
"<. c #8F6E61",
"1. c #977465",
"2. c #9B7665",
"3. c #9B7866",
"4. c #96796A",
"5. c #A97464",
"6. c #B77B61",
"7. c #BD7B60",
"8. c #C2734D",
"9. c #C9734B",
"0. c #CA7852",
"q. c #B78068",
"w. c #CB8363",
"e. c #C38468",
"r. c #C2886F",
"t. c #978485",
"y. c #9A8383",
"u. c #9D8A8B",
"i. c #A38A89",
"p. c #959AA7",
"a. c #949CAB",
"s. c #959FB0",
"d. c #ABA7AA",
"f. c #ADA9AB",
"g. c #B2ACAC",
"h. c #ACACB1",
"j. c #A1B1BF",
"k. c #B8B1B2",
"l. c #B6B5B9",
"z. c #A5B7C5",
"x. c #A7B8C6",
"c. c #A5BAC9",
"v. c #A8BCCB",
/* pixels */
"9 9 9 9 9 f Q +.+.Q M 3 9 9 9 9 9 9 9 9 3 N ~ +.+.Q M 3 3 3 3 3 ",
"9 9 9 9 9 M &.8.8./ M 3 9 9 9 9 9 9 9 9 3 M +.8.8.+.M 9 9 9 3 3 ",
"8 9 9 9 9 s R _ ~ T M 3 9 9 9 9 9 9 9 9 9 p Q ~ ~ T M 9 9 9 3 3 ",
"7 9 9 9 9 i C U U N 3 M 9 9 9 9 9 9 9 9 9 y V U U V 3 9 9 9 3 3 ",
"8 9 9 y 9 y b G G z 8 3 9 9 9 9 9 9 9 9 9 9 j Q U j 9 9 9 9 8 2 ",
"3 9 3 8 i N ^ [ } { M i p p f s u M i M y N { } ^ ^ N y 9 3 2 2 ",
"$ > $ q J 5.t.p.j.f.>.( +.+.+.+.+.+.+.+.( 5.h.j.p.y.;.F 5 $ * , ",
"# $ O q P 7.u.a.c.g.6.$.*.*.*.*.;.*.&.%.%.7.x.x.p.i.,.( ; O # & ",
"# % O e Y =. .<.4.2.O.X.] ] O.] X.] ] ] X.O.2.4.} ..=.G 5 o % & ",
"# # O 1 l G m m n n b b c c b b b b b c b b n n G G m k 1 O & & ",
"# & % * - 6 g B h d : : : 4 4 : 4 5 : 1 - 6 g h M s e = & % & & ",
"# & & O O * s B B a &   O O O O O O O O X * a B M u & O % & & * ",
"# & & % O ; c W E x = o + % & % % % % O O 1 c E E x < o % & & & ",
"# & & % O 5 C ] ' b 1 O % % & & % & & & O 5 m ] ' n - O % & & & ",
"# & & # O 5 n ' ' b - o & & & & & & & % O 5 C ' ' b - O & & & , ",
"# & & # O ; n ` ` b : o % & & & & & & % O 5 C ` ` b 1 O & & & & ",
"# & & % O 4 m ` ` b = O & * & & & & % % O 4 m ` ` b = O + & & * ",
"# & & % O 4 m ' ` c : o % & & & & * & % O : m ` ` b 1 O & & & & ",
"# % & % O 5 m ` ` b : O % & & & & & & % O 4 m ' ` b 1 O & & & * ",
"% & & + o 4 m ' ) c = X + & + @ % & % O o : b ` ` c = o & & & & ",
"% & & O   - v K K l %   . o o X o X . .   * v K K z &   O & & & ",
"# % % & - t A  .1.S w = : : 4 5 5 5 : : - r S 1. .Z t = & + & * ",
"% % O 0 F :.y.a.z.d.=.L P P o.X.o.o.P P L -.h.c.p.q.@.D : O & & ",
"% % O w #.w.u.s.c.k.e.9.0.0.0.0.0.0.0.9.9.r.l.v.s.u.w.I : O % * ",
"# + O : ! :.| <.4.3.@.O.@.@.@.@.@.@.@.@.@.O.3.4.S 1.:.H : O + * ",
"% % + : l m m m n b b b b b b b b b b b b b n n m Z m k = O + * ",
"% & % & - 6 g h h d 4 : : : : 4 4 4 : - - 6 g h h d 6 = & + & * ",
"% % & O O * d B B a @ X o O o o O O O O X * s B B a & O + & & * ",
"& & % % O 1 c E E x = X + % % % + % % + O 1 c W E x = O + & & * ",
"& & & % O 5 m ] ' b : O % % & & & & & % O 5 m ' ' b 4 O % & & * ",
"& & & % O 5 m ` ` c : O % & & & & & & % O 5 m ' ` b = O % & & * ",
"< * * & @ 5 c T T l 1 & * * * * * * * & @ 4 c T T x : @ * * * = "
};
