/* XPM */
static char *player_L2[] = {
/* columns rows colors chars-per-pixel */
"32 32 251 2 ",
"   c #2E1A28",
".  c #372134",
"X  c #3B2338",
"o  c #3D253B",
"O  c #361F32",
"+  c #2A1721",
"@  c #473E47",
"#  c #8B95A1",
"$  c #71747F",
"%  c #3E333B",
"&  c #2D1D25",
"*  c #2F1A22",
"=  c #392123",
"-  c #613E38",
";  c #442934",
":  c #492D3A",
">  c #3C2435",
",  c #3C2434",
"<  c #3C243A",
"1  c #372233",
"2  c #3C2428",
"3  c #613E37",
"4  c #432930",
"5  c #37212D",
"6  c #331F2C",
"7  c #35232F",
"8  c #332B31",
"9  c #2E1E26",
"0  c #342B31",
"q  c #362331",
"w  c #342530",
"e  c #342531",
"r  c #352030",
"t  c #35202F",
"y  c #382134",
"u  c #3D243A",
"i  c #361F31",
"p  c #331C2D",
"a  c #39222C",
"s  c #46282B",
"d  c #382D2D",
"f  c #452B29",
"g  c #7C4938",
"h  c #625A65",
"j  c #3D2E38",
"k  c #382434",
"l  c #3C2433",
"z  c #30282B",
"x  c #2C1D25",
"c  c #331E2E",
"v  c #3B222F",
"b  c #452729",
"n  c #7D4838",
"m  c #554D56",
"M  c #81828E",
"N  c #99A4B1",
"B  c #A0ACB9",
"V  c #959AA7",
"C  c #9194A1",
"Z  c #949BA8",
"A  c #8E97A3",
"S  c #5E5C66",
"D  c #59535C",
"F  c #8C94A0",
"G  c #8E929E",
"H  c #7D7C88",
"J  c #625C66",
"K  c #3C3138",
"L  c #352F32",
"P  c #30292C",
"I  c #2B2024",
"U  c #2D1E26",
"Y  c #302230",
"T  c #3A374A",
"R  c #3F4259",
"E  c #414259",
"W  c #3E3A4E",
"Q  c #3D2C42",
"!  c #423E55",
"~  c #4F6E8C",
"^  c #5688AB",
"/  c #62ABD4",
"(  c #5889AD",
")  c #517091",
"_  c #737581",
"`  c #423742",
"'  c #3A2737",
"]  c #321C2C",
"[  c #291620",
"{  c #26131B",
"}  c #382223",
"|  c #604137",
" . c #413432",
".. c #2E1E22",
"X. c #2C2226",
"o. c #333031",
"O. c #353435",
"+. c #393538",
"@. c #3D333A",
"#. c #65626B",
"$. c #464548",
"%. c #49464B",
"&. c #433940",
"*. c #76737E",
"=. c #787882",
"-. c #90919E",
";. c #898995",
":. c #7B7985",
">. c #534A53",
",. c #5B5660",
"<. c #919DAA",
"1. c #9FADBA",
"2. c #838591",
"3. c #727781",
"4. c #413A41",
"5. c #373235",
"6. c #3C3332",
"7. c #4F3F39",
"8. c #80503D",
"9. c #462D2A",
"0. c #432625",
"q. c #7F4E3C",
"w. c #4C3833",
"e. c #321F22",
"r. c #433C43",
"t. c #767D87",
"y. c #4C4E51",
"u. c #3B383B",
"i. c #3F353D",
"p. c #747B85",
"a. c #48474C",
"s. c #515257",
"d. c #8E9CA7",
"f. c #8C97A3",
"g. c #4A454C",
"h. c #30242A",
"j. c #2B1A22",
"k. c #392A32",
"l. c #615964",
"z. c #67616C",
"x. c #4D424B",
"c. c #5E3B33",
"v. c #3B2328",
"b. c #38202F",
"n. c #372032",
"m. c #361F33",
"M. c #361F30",
"N. c #331C2B",
"B. c #321C2A",
"V. c #28161F",
"C. c #4B3B43",
"Z. c #54363B",
"A. c #4D2E34",
"S. c #804B3E",
"D. c #996B5D",
"F. c #8F878A",
"G. c #8E8689",
"H. c #956758",
"J. c #814B39",
"K. c #54312B",
"L. c #664035",
"P. c #5D3A32",
"I. c #372022",
"U. c #2B171C",
"Y. c #2E181D",
"T. c #412423",
"R. c #7B4736",
"E. c #985840",
"W. c #4B2A26",
"Q. c #3F2C44",
"!. c #433E57",
"~. c #454561",
"^. c #5889AE",
"/. c #527091",
"(. c #5789AD",
"). c #44455F",
"_. c #443E57",
"`. c #5E372E",
"'. c #9E5D42",
"]. c #AB6648",
"[. c #83523E",
"{. c #795D56",
"}. c #71524A",
"|. c #73676C",
" X c #8D878E",
".X c #8B909B",
"XX c #57484C",
"oX c #55433C",
"OX c #925D46",
"+X c #7E5543",
"@X c #4E413B",
"#X c #4B3F3A",
"$X c #745141",
"%X c #734F3F",
"&X c #714A3C",
"*X c #412B2A",
"=X c #483935",
"-X c #48393F",
";X c #4A2F2E",
":X c #3F2F35",
">X c #3E282A",
",X c #3E253A",
"<X c #3C2439",
"1X c #3D253C",
"2X c #45455F",
"3X c #5788AC",
"4X c #4D6D89",
"5X c #3E394F",
"6X c #371F33",
"7X c #2A1722",
"8X c #2E1A27",
"9X c #362132",
"0X c #351F2E",
"qX c #321D2B",
"wX c #372531",
"eX c #423741",
"rX c #727581",
"tX c #413640",
"yX c #41353E",
"uX c #7A7A86",
"iX c #858C98",
"pX c #453B44",
"aX c #605F69",
"sX c #93A0AD",
"dX c #A4B6C3",
"fX c #A5B5C2",
"gX c #979DAA",
"hX c #75717D",
"jX c #3F323B",
"kX c #25131A",
"lX c #3B2438",
"zX c #3E253C",
"xX c #3B2539",
"cX c #372030",
"vX c #362531",
"bX c #373237",
"nX c #373737",
"mX c #322E2F",
"MX c #291C21",
"NX c #482826",
"BX c #8E543E",
"VX c #7A4C3B",
"CX c #412625",
"ZX c #3D2429",
"AX c #633F39",
"SX c #452A32",
"DX c #372131",
"FX c #382133",
"GX c #2F272A",
"HX c #28191F",
"JX c #26151B",
/* pixels */
"/ ^ ).zXo o o o o o o O + kXkXkXkXkXkXkXkXkXkX+ O o o o o ~.^./ ",
"^ ~ ! zXo o o o o X . k j jXjXjXjXjXjXjXjXyXpX` ' . X o o !./.(.",
"E W Q zXo o o o o .   j h hXhXhXhXhXhXhXhXuXiX_ `   . o o Q._.).",
"cXcXxXzXo o o o o O + k.l.hXhXhXhXhXhXhXhXM N A S ` ' . X o zXxX",
"cXcXxXzXo o o o o O + j.k.jXjXjXjXjXjXjXjXm M Z A _ `   . o zXxX",
"cX0X9X6XO . X X . ' ` % & & % % & & % % & jXhXV B iXpX+ O o zXxX",
"cXqX8X7X+   . .   ` _ $ % % $ $ % % $ $ % jXhXC V uXyX+ O o zXxX",
"B.wXeX% & + O O + @ # # @ @ # # @ @ # # @ yXuXV C hXjX+ O o zXxX",
"V.tXrX$ % + O O + @ # # @ @ # # @ @ # # @ pXiXB V hXjX+ O o zXlX",
"kX@ # # @ + O O + @ # sXaXaXsXsXaXaXsXsXaXaXsXfXgXhXjX+ O o 1X<X",
"kX@ # # @ + O O + @ # dXsXsXdXdXsXsXdXdXsXsXdXfXgXhXjX+ O o o ,X",
"V.C.F.G.-X+ O .   ` _ <.1.1.<.# # <.1.fXfXfXfXN M l.k.+ O o o o ",
"B.Z.D.H.;X+ O X . ' ` ,.2.2.,.@ @ ,.2.gXgXgXgXM m k.j.+ O o o o ",
"r A.S.J.K.ZX> X . ] [ k.l.z.x.jXjX>.:.-.-.;.:.J K HXJX[ ] . X o ",
"t a s K.L.AX: .   [ { j.k.x.z.hXhX:.;.-.-.:.>.K L GXHX{ [   . o ",
"y p + I.P.- ; ] [ & % % & k.l.H G G H *.=.#.@.I P 5.4.pXyXj k O ",
"u i + U.I.= * [ { % $ $ % j.k.D F F D &.%.$.+.P I 4.3.iXuXh j + ",
"xXi + Y.T.NXCXI.U.@ # f.g.h.i.S A F D K L o.O.mXMX@ # fXgXhXjXkX",
"t p + T.R.BXVXP.I.@ # d.s.a.p.A Z G H J K X.o.mXMX@ # fXgXhXjXkX",
"t N.+ W.E.].[.P.I.% $ t.y.y.t.A Z G H J K X.o.mXMX% $ .X X|.:XkX",
"lXM.+ W.E.'.`.I.U.& % r.u.u.r.S A F D K L o.O.mXMX& % XX{.}.>XkX",
"zXm.+ T.R.R.T.{ [ [ { e.w.w.e.@ # # @ e.w.oX@X=X*XI.U.I.P.P.I.kX",
"o O + Y.T.T.Y.[ ] ] [ 0.q.q.0.@ # # @ 0.q.OX+X%X&XP.I.U.I.I.U.kX",
"o O + U.I.I.U.+ O O + 0.q.8.9.4.3.$ % 0.q.OX+X$X$X| } { [ + + + ",
"o O + I.P.P.I.+ O O + e.w.7.6.5.4.% & e.w.oX@X#X#X ...[ ] O O O ",
"o .   v.c.L.K.b v c x X.o.O.o.d f T.Y.MXmXnXnXnXnXo.X.x c . X o ",
"o X . b.v.K.J.n b x z o.O.o.X.f g R.T.MXmXnXnXnXnXO.o.z x   . o ",
"o o o O + NXBXBXNXMXmXnXnXmXMXNXBXBXNXMXmXnXnXnXnXnXnXmXMX+ O o ",
"o o o O + CXVXVXCXMXmXnXnXmXMXCXVXVXCXMXmXnXnXnXnXnXnXmXMX7X6X1X",
"~.!.Q..   ZXAXAXZX9 0 bXbX8 9 2 3 3 2 9 8 bXbXbXbXbXbX8 U Y 5X2X",
"( ) !.X . l SXSX, 1 q w e 7 6 5 4 4 5 6 7 vXvXvXvXvXvX7 6 T 4X3X",
"/ ( ~.o 1X<XDXDX< < FXt r cXcXcXn.n.cXcXcXcXcXcXcXcXcXcXcXR ^ / "
};
