/* XPM */
static char *ezgif_56933ffcbd2469[] = {
/* columns rows colors chars-per-pixel */
"32 32 148 2 ",
"   c #25141B",
".  c #29151D",
"X  c #2A191E",
"o  c #321C1F",
"O  c #291620",
"+  c #2C1A23",
"@  c #2F1A28",
"#  c #331D21",
"$  c #381E20",
"%  c #321C2B",
"&  c #351E31",
"*  c #2C2326",
"=  c #2F2429",
"-  c #362325",
";  c #3C2324",
":  c #34222E",
">  c #3C232B",
",  c #322B2E",
"<  c #382A2E",
"1  c #3B302F",
"2  c #372232",
"3  c #392335",
"4  c #352C31",
"5  c #392B33",
"6  c #3D253B",
"7  c #3C2D39",
"8  c #363435",
"9  c #3D3134",
"0  c #3E333B",
"q  c #3E3C3F",
"w  c #462624",
"e  c #472A27",
"r  c #4C2A26",
"t  c #412629",
"y  c #41292B",
"u  c #4B2C28",
"i  c #512E2A",
"p  c #55322C",
"a  c #5B362E",
"s  c #452A33",
"d  c #492D33",
"f  c #442A3A",
"g  c #423330",
"h  c #463B37",
"j  c #41323C",
"k  c #483E39",
"l  c #563336",
"z  c #5C3B33",
"x  c #523F38",
"c  c #5B3938",
"v  c #6D3E32",
"b  c #623E3A",
"n  c #4D403A",
"m  c #53433B",
"M  c #5C463D",
"N  c #654136",
"B  c #6B443B",
"V  c #704034",
"C  c #7B4636",
"Z  c #714638",
"A  c #754839",
"S  c #7D4B3A",
"D  c #7F503D",
"F  c #3D2B41",
"G  c #3D354B",
"H  c #3B3A4E",
"J  c #453B43",
"K  c #483D46",
"L  c #41344C",
"P  c #5B3D40",
"I  c #423D54",
"U  c #464047",
"Y  c #4A434B",
"T  c #4A494E",
"R  c #52464D",
"E  c #4F4952",
"W  c #534C55",
"Q  c #4D5053",
"!  c #5D5350",
"~  c #56525A",
"^  c #59525B",
"/  c #654F4E",
"(  c #6B4F4A",
")  c #765141",
"_  c #625357",
"`  c #464662",
"'  c #434B63",
"]  c #474D69",
"[  c #5E5A65",
"{  c #615A64",
"}  c #625F69",
"|  c #66636D",
" . c #676672",
".. c #6B6671",
"X. c #6D6974",
"o. c #726F7B",
"O. c #72747F",
"+. c #814C3A",
"@. c #85513D",
"#. c #8A503B",
"$. c #815643",
"%. c #885944",
"&. c #875A48",
"*. c #975F46",
"=. c #995A42",
"-. c #A25E43",
";. c #8B6458",
":. c #A86447",
">. c #9F7468",
",. c #4E6383",
"<. c #4D6D8A",
"1. c #547D9F",
"2. c #717580",
"3. c #797581",
"4. c #737882",
"5. c #7B7985",
"6. c #7F7D89",
"7. c #807F8B",
"8. c #7E818B",
"9. c #7E8591",
"0. c #5680A3",
"q. c #5A8FB5",
"w. c #5990B5",
"e. c #60A6CE",
"r. c #61A9D2",
"t. c #848085",
"y. c #82828E",
"u. c #838591",
"i. c #828A96",
"p. c #8B8A95",
"a. c #868D99",
"s. c #8B8E9B",
"d. c #88949E",
"f. c #91929E",
"g. c #8A94A1",
"h. c #8F9BA8",
"j. c #9295A3",
"k. c #949AA6",
"l. c #949DAA",
"z. c #93A0AD",
"x. c #99A0AD",
"c. c #97A4B1",
"v. c #99A6B3",
"b. c #9FACB9",
"n. c #9FB0BD",
"m. c #A3B1BF",
"M. c #A4B5C3",
"N. c #A7B8C5",
/* pixels */
"e.1.I 6 6 6 6 6 6 6 6 & .                     O & 6 6 6 6 ] q.e.",
"q.<.I 6 6 6 6 6 6 6 & 6 4 5 3 5 5 5 5 5 5 7 0 7 6 3 6 6 6 ` 1.q.",
"' I F 6 6 6 6 6 6 2 @ 0 { X.X.X.X.X.X...X.3.9. .7 % 3 6 6 L ` ] ",
"& 2 6 6 6 6 6 6 6 & O 0 ..5.5.5.5.5.3.3.5.p.b.a.W 7 3 3 3 6 6 6 ",
"2 % 6 6 6 6 6 6 6 & . * j J J J J J J J J [ p.l.a. .7 % 3 6 f 6 ",
"2 % 3 3 3 3 6 6 3 6 0 4 + + 5 3 + + 5 4 O J 5.l.M.9.7 O 3 6 6 6 ",
"2 % % O O % 3 & @ K 2.| 4 j O.| 4 j 2.| 4 J 5.j.l.O.5 + & 6 6 6 ",
"% 3 9 < O + & & O E l.i.0 E z.i.0 E z.i.0 J y.j.f.X.3 + 3 6 6 6 ",
"O J 2.| 5 + 3 & O E z.i.7 E c.9.0 E z.i.j Y j.v.k.X.5 O & 6 6 3 ",
"  E l.i.0 + 2 & O E z.g.W [ v.g.W | c.g.W } v.m.k.X.5 O 3 6 6 6 ",
"  E z.i.0 O 3 & O E z.n.g.h.N.n.g.h.M.n.g.k.M.M.l.X.5 + & 6 6 6 ",
"O R f.t.7 @ & & @ K 9.v.M.M.c.z.l.v.M.N.N.N.N.c.u.{ : + 3 F 6 6 ",
"% P >.;.y + 3 3 & 7 K | s.9.[ E W | f.x.l.l.l.8.W 9 O O & 6 6 6 ",
"& l #.+.r > 3 6 F & O J ..} J 5 3 W 7.f.d.p.7.{ 5 . . O & L 6 6 ",
"2 > i a N c f 6 6 6 2 6 J W } X.X.3.p.f.f.3.W j 4 : . O & F F 6 ",
"3 % . ; N b f & 3 & & % . f ..7.j.s.7.5.6.| 5 * 4 , + O & & & 6 ",
"6 & . X ; ; + + + O O O   * f } k.a.~ Y E T 8 , 8 , X   O % 2 6 ",
"6 % . o $ t ; # . @ 8 5 + * 7 } l.a.Y 5 4 8 8 8 8 8 9 0 5 3 3 2 ",
"% % O w C +.Z p o k 2.X.G E 4.d.l.s.3.^ 5 * , 8 * U 2.8.o.^ 3 + ",
"& % . p -.:.$.z o E l.g.Q ~ i.z.l.s.6.{ 5 * 8 , X E z.n.k.X.5 . ",
"& & . p -.=.a ; X T c.d.Q q T X.l.a.~ 0 , , 8 , X E z.m.l.X.4   ",
"L % . r #.C $     J 9.8.! g X T z.i.0 - h n n 4 X U 8.k.p.} <   ",
"6 % O o r r o     = U / &.Z ; E z.9.0 e D %.) m # , U _ ;.( ;   ",
"6 & O . o o     X X   u #.S t Y 9.4.8 u #.*.$.N - .   ; b z o   ",
"f & O $ c p o . % %   - x k 1 8 Y h * - m M n n 4 * . X ; ; .   ",
"& & + t v b r > > % + * 8 8 4 < e $   + 8 8 q 8 8 4 * .     . O ",
"& F & & w p +.v > * , 4 8 8 * u +.V $ * 4 8 8 8 8 8 8 * . . % & ",
"L 6 6 & . i -.#.; + 4 8 8 , X p #.@.; X 8 8 8 8 8 8 8 , O + 3 6 ",
"6 6 6 & O r $.C ; + 8 8 8 , X e @.A ; + 8 8 8 8 8 8 8 , X + 2 6 ",
"I L f & O s v b - + 4 8 8 4 + y B z ; + 5 8 8 8 8 8 8 , O 2 G H ",
"1.,.L 6 & 6 d s & 3 5 3 4 : % > d s : : : 5 4 3 5 5 4 2 % H <.0.",
"r.1.` 6 6 6 & & 6 6 & & & 2 % 2 2 2 : & 2 & > & 2 2 > & 2 ' w.r."
};
