/* XPM */
static char *key[] = {
/* columns rows colors chars-per-pixel */
"32 32 126 2 ",
"   c #0C0608",
".  c #0C0710",
"X  c #0F0918",
"o  c #150B13",
"O  c #190C16",
"+  c #160A18",
"@  c #1C0D1A",
"#  c #200E1C",
"$  c #24131D",
"%  c #231819",
"&  c #2D1A1C",
"*  c #311D1D",
"=  c #34211E",
"-  c #170D20",
";  c #1D0D20",
":  c #1D1220",
">  c #210F22",
",  c #291623",
"<  c #261822",
"1  c #2C1A24",
"2  c #29172B",
"3  c #2C192D",
"4  c #331E2D",
"5  c #331E32",
"6  c #392424",
"7  c #3C2A25",
"8  c #35202E",
"9  c #39232D",
"0  c #3B2B2D",
"q  c #372031",
"w  c #392235",
"e  c #3D253B",
"r  c #4B301D",
"t  c #432C2E",
"y  c #483123",
"u  c #4C3329",
"i  c #563A24",
"p  c #5A3E27",
"a  c #533B2A",
"s  c #4A3237",
"d  c #4E3A33",
"f  c #523A3E",
"g  c #5E4125",
"h  c #5D412A",
"j  c #594030",
"k  c #5F433F",
"l  c #614223",
"z  c #63452A",
"x  c #674D33",
"c  c #634B3C",
"v  c #6C5233",
"b  c #6F5439",
"n  c #715635",
"m  c #7B5D35",
"M  c #6A4F46",
"N  c #6B5146",
"B  c #644F54",
"V  c #685955",
"C  c #66545F",
"Z  c #75614F",
"A  c #7E664A",
"S  c #7F6952",
"D  c #726159",
"F  c #7E6C5B",
"G  c #835E2C",
"H  c #886232",
"J  c #8F6A35",
"K  c #836338",
"L  c #936D37",
"P  c #906E3F",
"I  c #997236",
"U  c #997239",
"Y  c #9D793E",
"T  c #A1793B",
"R  c #8E7040",
"E  c #AF833B",
"W  c #B2863D",
"Q  c #BA8C3B",
"!  c #9F8047",
"~  c #A48347",
"^  c #B58A41",
"/  c #BA8E42",
"(  c #BF9446",
")  c #B6944E",
"_  c #AE8E50",
"`  c #B69550",
"'  c #A99171",
"]  c #BAAA60",
"[  c #BFA26B",
"{  c #BFA67E",
"}  c #C39A54",
"|  c #D3A64E",
" . c #CDA957",
".. c #CDAD5B",
"X. c #D3A758",
"o. c #D8AD5B",
"O. c #DEB757",
"+. c #D1B05D",
"@. c #E2B95A",
"#. c #C2A76A",
"$. c #D5B764",
"%. c #D6B475",
"&. c #EAC762",
"*. c #F4CD67",
"=. c #E6D269",
"-. c #998F8C",
";. c #AC9E8B",
":. c #BAA88C",
">. c #BCAC93",
",. c #BFB2A0",
"<. c #C2B191",
"1. c #D9CD90",
"2. c #D3C39F",
"3. c #E4D689",
"4. c #F8DF80",
"5. c #F9E88C",
"6. c #DBD2BB",
"7. c #E7D6B0",
"8. c #E7DAB2",
"9. c #EDDCB2",
"0. c #EFE1AB",
"q. c #F8E9A8",
"w. c #FAEFB8",
"e. c #EDE9D2",
"r. c #F0E6D0",
"t. c #F6F3DB",
/* pixels */
"e e e e e e e e e e e e e e e e e f e e e e e e e e e e e e 5 e ",
"e e e e e e e e e e e e e e e e e e e e e e e e e e e e e e 5 5 ",
"e e e e e e e e e e e e e e e e e e e e e e e e e e e e e e w 9 ",
"e e e e e e e e e e e e e e e e e e e e e e e e e e e e e e 9 5 ",
"e e e e e s e e e e e e e e e e e e e e e e e e e e e e e e 9 5 ",
"e e e e e e e e e e e e e e e e e e e e e e e e e e e e e e w 9 ",
"e e e e e e e e e e e e e e e e e e e e 5 5 5 e e e e e e e 5 9 ",
"e e e e e e e e e e e e e e e e e e e 3 ; ; > 5 e e e e e e 5 9 ",
"e e e e e e e e e e e e e e e e e e e e t 9 1 4 e e e e e e 5 9 ",
"e e e e e s e e e e e e e e e e e 3 e R <.` H y , 5 e e e e 9 5 ",
"e e e e e w w 5 w w 5 w 5 5 w 5 5 2 d ;.7.%.T l 4 4 5 e e e 9 w ",
"e e e e w 4 , $ ; ; ; ; ; > ; - 1 h K S D c z G G u 1 5 e e 9 5 ",
"e e e e e 2 $ * 3 & * * & * * * y I E h $ o * U T g # 3 e e 4 5 ",
"e e e e w > & l G G G G G J L I Y Q Q h 1 X * U } g # 3 e e 5 4 ",
"e e e e 5 ; 1 P X.o.X.| | / W T ^ } ` k e @ 6 U Q g # 3 w e 4 9 ",
"e e e e w @ 6 ' 0.w.q.4.@.J i r b { 2.C e # * U T p # 3 e e w w ",
"e e e e q O w >.t.e.8.5.&.n #   0 :.6.C e - = Y ( g @ 3 e e e e ",
"e e e e w o 0 ,.r.-.F $.=.A 4 . 7 [ 1.B e @ = ) @.n @ 3 e e e w ",
"e e e e q o 0 <.9.V * Y ..N e ; 7 ~ +.S f 0 a )  .v % 3 w e w 8 ",
"e e e e q + 7 #.3.Z 4 a v s e 5 9 a m _ ] +.` R v t q w e e w 8 ",
"e e e e 5 > t ~ +.M w < , 5 5 e q < 7 ! O.*. .x & 4 e e e e e e ",
"e e e e e 5 5 z v s e 4 5 5 e s e q 8 j b m v 0 4 w e e e e e e ",
"e e e e e 5 w < $ 5 w e 5 e e e e e w < : @ % 8 e e e e e e e e ",
"e e e e e s w 5 3 w w e e e e t e e e 5 2 2 3 e e e e e e e e e ",
"e e e e e e e e e e e e e e w w e e e e e e 5 e e e e e e e e e ",
"e e e e e e e e e e e e e 5 w 5 e e e e e e e e e e e e e e e e ",
"e e e e e e e e e e e e e e 5 5 e e e e e e e e e e e e e e e e ",
"e e e e e e e e e e e e e e 5 5 e e e e e e e e e e e e e e e e ",
"e e e e e e e e e e e e s e 5 9 e e e e e e e e e e e e e e e e ",
"e e e e e e e e s t e e 5 w w q w e e e w e e s e e e e e e e e ",
"q q 8 9 q q e w 5 5 9 q 5 5 4 9 q q 5 5 8 w e e e w e e e e e e ",
"q q 8 w 8 q q q 9 q 5 4 w w 5 w q q q q 8 q e e q q e e e e e e "
};
